<?xml version="1.0" standalone="no"?>
<!DOCTYPE svg PUBLIC "-//W3C//DTD SVG 1.1//EN" "http://www.w3.org/Graphics/SVG/1.1/DTD/svg11.dtd" >
<svg xmlns="http://www.w3.org/2000/svg">
<metadata></metadata>
<defs>
<font id="andron_scriptor_webregular" horiz-adv-x="1" >
<font-face units-per-em="1000" ascent="800" descent="-200" />
<missing-glyph horiz-adv-x="240" />
<glyph unicode="&#xd;" horiz-adv-x="240" />
<glyph unicode=" "  horiz-adv-x="240" />
<glyph unicode="&#x09;" horiz-adv-x="240" />
<glyph unicode="&#xa0;" horiz-adv-x="240" />
<glyph unicode="!" horiz-adv-x="280" d="M183 226h-25l-46 405q0 13 16 28t47 15q15 0 26.5 -5t19 -12t11 -14.5t3.5 -11.5zM170 -10q-24 0 -41.5 17t-17.5 41q0 25 17.5 42t41.5 17t41.5 -17t17.5 -42q0 -24 -17.5 -41t-41.5 -17z" />
<glyph unicode="&#x22;" horiz-adv-x="365" d="M217 687q5 4 12 8q6 3 14.5 5t20.5 2q14 0 22 -2t13 -5q6 -4 9 -8l-37 -238h-29zM69 687q5 4 12 8q6 3 14.5 5t20.5 2q14 0 22 -2t13 -5q6 -4 9 -8l-37 -238h-29z" />
<glyph unicode="#" horiz-adv-x="639" d="M444 -200l-55 -10q3 31 4 70.5t2 74.5q1 41 1 83h-42h-29.5t-33.5 -0.5t-33 -1t-28 -0.5v-216l-55 -10q2 29 3 67.5t2 73.5q1 40 1 82q-24 -1 -49 -3q-21 -2 -45 -3.5t-44 -3.5l-9 8l17 88h130v258l-11.5 -1t-30 -2.5t-40.5 -3t-42 -3.5l-9 15l17 80h117q-1 42 -2 80 l-2 64t-3 47l55 6v-197h166q-1 42 -2 80l-2 64t-3 47l55 6v-197h138l-9 -86q-13 2 -34.5 2.5t-42.5 1.5q-25 1 -52 1v-262h118l-9 -87q-11 2 -30 2.5t-36 1.5q-20 1 -43 1v-217zM230 99h165q0 23 0.5 58t0.5 73v73.5v58.5h-32q-15 0 -32.5 -0.5t-35.5 -1t-35 -1t-31 -0.5 v-260z" />
<glyph unicode="$" horiz-adv-x="550" d="M381 123q0 25 -7.5 44t-20 34.5t-29 28.5t-35.5 26l-36 -223q7 -1 13.5 -1.5t13.5 -0.5q20 0 38.5 6.5t32.5 18.5t22 29t8 38zM170 501q0 -24 8 -41t21 -30.5t30 -25t34 -23.5l32 204l-10 1q-20 0 -40.5 -4.5t-37 -14.5t-27 -26.5t-10.5 -39.5zM416 486q-3 18 -7 33.5 t-11.5 27.5t-20 20.5t-33.5 12.5q-11 -57 -20 -112t-19 -112q26 -19 52.5 -39t48 -43.5t35 -52t13.5 -64.5q0 -37 -17.5 -68t-45.5 -53t-63 -34t-69 -11h-12l-21 -120l-41 -1l20 126q-19 1 -44 8.5t-47 21t-37.5 32t-15.5 42.5q0 10 5 19.5t13 17.5t18 13t20 5q6 0 14 -5 q2 -42 19.5 -71.5t61.5 -40.5l36 245q-24 18 -49 37t-45.5 41t-33.5 48.5t-13 60.5q0 37 15.5 66t41 48.5t58 29.5t67.5 10h12l11 66l39 5l15 -6q-6 -17 -9 -34.5t-6 -34.5q16 -3 38 -9.5t42 -17t34 -26t14 -36.5q0 -20 -15.5 -33.5t-35.5 -13.5q-6 0 -12 2z" />
<glyph unicode="%" horiz-adv-x="726" d="M350 426q0 -30 -11 -56t-30 -45t-45 -29.5t-55 -10.5q-27 0 -53 10t-45.5 28t-31.5 43.5t-12 55.5t11 55.5t30 43.5t45.5 28.5t57.5 10.5q63 0 101 -36.5t38 -97.5zM216 333q34 0 56.5 26.5t22.5 66.5q0 45 -24.5 71.5t-57.5 26.5q-34 0 -56.5 -25t-22.5 -65 q0 -43 23.5 -72t58.5 -29zM119 -9l-2 5l473 565l53 -18v-6q-35 -36 -77 -82.5t-86.5 -97.5t-89.5 -104.5t-86 -103.5t-76 -94.5t-60 -78.5zM681 120q0 -30 -10.5 -55t-29.5 -43t-44 -28.5t-54 -10.5q-27 0 -52 9.5t-44.5 27t-31 42t-11.5 54.5q0 29 11 54t30 43t45 28t56 10 q61 0 98 -35.5t37 -95.5zM550 30q33 0 55 26t22 64q0 44 -23.5 70t-55.5 26q-33 0 -55.5 -25t-22.5 -63q0 -42 23 -70t57 -28z" />
<glyph unicode="&#x26;" horiz-adv-x="756" d="M756 34q-17 -16 -36.5 -24.5t-36.5 -13.5q-19 -5 -37 -6q-19 0 -38 2.5t-37.5 11.5t-35.5 26t-33 46h-5q-48 -45 -106.5 -66t-115.5 -21q-51 0 -95 16.5t-77 45t-52 68.5t-19 86q0 65 44.5 117.5t125.5 82.5l1 5q-51 45 -51 113q0 19 9 39.5t29 37t52.5 27.5t80.5 11 q33 0 59 -9t44.5 -23.5t28 -32.5t9.5 -36q0 -24 -12.5 -44t-30.5 -36t-39 -26.5t-39 -16.5l-1 -5q56 -30 102.5 -84t93.5 -132h6q10 9 19 29.5t15.5 44.5t10 48t3.5 40q0 13 -1.5 23t-6.5 21t-22 24t-57 18l3 27q26 -2 47.5 -3t37.5 -2q18 -1 33 -1q14 0 32 1q15 1 34 2 t40 3l3 -26q-30 -4 -46.5 -17t-21.5 -22q-10 -19 -16 -46t-15.5 -59.5t-25.5 -70t-45 -77.5q16 -32 29 -54t26.5 -35.5t28 -19t32.5 -5.5q11 0 30.5 5.5t33.5 19.5zM325 605q-24 0 -40.5 -7t-26 -18t-13.5 -25t-4 -28q0 -23 11.5 -45t50.5 -47q23 8 41 20.5t30.5 28t19 31.5 t6.5 31q0 12 -7 23t-18 19t-24 12.5t-26 4.5zM319 43q51 0 90 20.5t70 52.5q-35 58 -62 99t-53.5 71t-55.5 52t-69 42q-33 -12 -54 -30t-33 -39.5t-16.5 -43.5t-4.5 -42q0 -37 12.5 -70t36.5 -58t59 -39.5t80 -14.5z" />
<glyph unicode="'" horiz-adv-x="226" d="M60 687q7 4 16 8q8 3 18 5t22 2q14 0 23.5 -2t16.5 -5q8 -4 13 -8l-42 -238h-35z" />
<glyph unicode="(" horiz-adv-x="307" d="M295 -199q-49 30 -94 77.5t-79 106.5t-54 127.5t-20 139.5q0 69 21 138t55 129.5t76.5 108.5t85.5 76l12 -23q-34 -32 -64.5 -73.5t-54 -93t-37 -114.5t-13.5 -137q0 -73 14 -139.5t38 -122.5t56.5 -101.5t69.5 -76.5z" />
<glyph unicode=")" horiz-adv-x="307" d="M0 -177q37 31 69.5 74.5t56.5 98.5t38 121.5t14 143.5q0 74 -13.5 137t-36.5 115.5t-54 94t-65 73.5l13 23q43 -28 85.5 -72.5t76 -100t54.5 -120.5t21 -134q0 -71 -20 -143t-54 -136t-79 -115.5t-94 -81.5z" />
<glyph unicode="*" horiz-adv-x="423" d="M177 571q3 2 6.5 3.5t6.5 3.5l33 138l20 -1l12 -139q6 -3 11 -8l135 44l9 -19l-114 -78v-6.5t-1 -6.5l105 -97l-11 -17l-126 58q-5 -4 -13 -7l-30 -134l-20 2l-20 140q-8 4 -12 7l-127 -47l-9 18l107 83v13l-96 93l11 17z" />
<glyph unicode="+" horiz-adv-x="650" d="M576 277l5 -11l-13 -42q-29 2 -63.5 3t-63.5 2q-34 1 -68 1v-230h-92q3 45 4.5 85.5t3.5 72.5q2 38 2 71q-34 0 -70 -1q-31 -1 -69.5 -2.5t-78.5 -3.5l-6 11l26 44h198q0 37 -1 75q-1 32 -3 71t-6 73l86 12l14 -4l-8 -227h203z" />
<glyph unicode="," horiz-adv-x="240" d="M127 129q23 0 42.5 -26.5t19.5 -74.5q0 -24 -14 -48.5t-36 -46.5t-48 -39.5t-49 -26.5l-20 23q14 7 30 19t29.5 26t22 30t8.5 31q0 20 -14 39t-37 26q0 14 6 26.5t15.5 21.5t21.5 14.5t23 5.5z" />
<glyph unicode="-" horiz-adv-x="322" d="M278 233l-223 -19l-7 8l7 66l223 9v-64z" />
<glyph unicode="." horiz-adv-x="244" d="M122 -12q-26 0 -44.5 18.5t-18.5 44.5q0 27 18.5 45.5t44.5 18.5q27 0 45.5 -18.5t18.5 -45.5q0 -26 -18.5 -44.5t-45.5 -18.5z" />
<glyph unicode="/" horiz-adv-x="382" d="M-33 -199l398 927h57l9 -13q-38 -78 -83.5 -177t-91.5 -203t-89 -203t-76.5 -177t-54 -125.5l-20.5 -47.5z" />
<glyph unicode="0" horiz-adv-x="460" d="M233 625q41 0 75 -22t58 -62.5t37.5 -97t13.5 -126.5q0 -71 -14.5 -130.5t-40 -103t-59 -68t-72.5 -24.5q-36 0 -70.5 23t-60.5 64.5t-42 99.5t-16 128t14.5 128.5t40 101t60.5 66t76 23.5zM339 296q0 67 -8.5 121t-23.5 92.5t-35 59t-43 20.5t-42 -19t-33 -54t-22 -83.5 t-8 -106.5q0 -66 8.5 -121.5t23 -95.5t34.5 -62t43 -22q12 0 21.5 4.5t18.5 12.5q30 29 48 95t18 159z" />
<glyph unicode="1" horiz-adv-x="460" d="M56 534q46 12 80.5 22t62 20t51 22t49.5 29l18 -18q-11 -22 -15.5 -39t-6.5 -30q-1 -17 -2.5 -47t-2.5 -68t-1.5 -80t-0.5 -83q0 -63 2 -113t7 -67q4 -12 11 -20t20.5 -14t35 -10.5t55.5 -9.5l-3 -32q-45 5 -89 7t-89 2q-46 0 -89 -2t-83 -6l-3 30q38 6 61.5 11.5 t37.5 12t21.5 14t12.5 18.5q3 7 5.5 35.5t5 68t3.5 85.5t1 89q0 45 -1.5 79.5t-3.5 48.5q-2 15 -13.5 21t-27.5 6q-23 0 -50.5 -2.5t-53.5 -5.5z" />
<glyph unicode="2" horiz-adv-x="460" d="M430 82q-2 -18 -5 -32.5t-5 -25.5l-6 -22q-21 1 -54 1h-71q-33 0 -67.5 -0.5t-67 -1t-60.5 -1.5t-48 -2l-7 26q32 34 65.5 72t62.5 76q35 45 59.5 82.5t39.5 70t22 62t7 59.5q0 25 -7 46.5t-21 38t-34.5 26t-46.5 9.5q-40 0 -73 -22.5t-61 -52.5l-22 26q43 58 98 85.5 t106 27.5q30 0 56.5 -9.5t46 -27.5t31 -45t11.5 -63t-10 -69.5t-27 -67.5q-30 -60 -80.5 -122.5t-113.5 -140.5l2 -11q31 0 72.5 1t81.5 3t72.5 4t45.5 4z" />
<glyph unicode="3" horiz-adv-x="460" d="M125 317q12 17 32.5 29.5t31.5 17.5q38 35 55.5 69.5t17.5 67.5q0 40 -24 65t-64 25q-45 0 -71.5 -26t-38.5 -59h-14l-9 86q29 15 58.5 22.5t53.5 11.5q14 2 27 3l26 2q28 0 54 -7.5t46 -21.5t32 -35.5t12 -48.5q0 -35 -20 -66.5t-71 -71.5l2 -8h7q31 0 56 -12.5 t42.5 -33t27 -47.5t9.5 -55q0 -41 -14.5 -76.5t-39.5 -64t-57.5 -49.5t-68.5 -33q-21 -8 -47.5 -9t-42.5 -1q-13 0 -30.5 4.5t-33.5 13t-27 19.5t-11 23q0 36 17 55t32 19q16 -37 44.5 -61t67.5 -24q49 0 82 33q21 21 31 53t10 66q0 25 -5.5 48t-16.5 40q-14 21 -34 31 t-42 10q-37 0 -74 -28z" />
<glyph unicode="4" horiz-adv-x="460" d="M336 621v-374l90 4l10 -5l-12 -58h-88v-190h-89q1 19 2.5 43.5t2.5 50.5t1.5 51t0.5 45h-239l-12 59q24 40 57 91t68 103.5t69.5 101t61.5 83.5zM56 249q25 -2 79 -3t121 -1q1 16 2 51t2 74t1.5 75.5t0.5 56.5v36l-4 2q-54 -69 -107 -142t-96 -139z" />
<glyph unicode="5" horiz-adv-x="460" d="M294 208q0 63 -30.5 102.5t-99.5 39.5q-36 0 -67 -9l-13 9l40 258l264 18q-3 -23 -6.5 -38t-7.5 -25q-2 -5 -4 -9.5t-4 -8.5h-202l-35 -135l7 -8q23 3 46 5t46 2q29 0 57.5 -12t50.5 -33t35.5 -49.5t13.5 -60.5q0 -46 -14.5 -86t-38.5 -72.5t-56 -55.5t-66 -35 q-22 -8 -43 -10.5t-38 -2.5q-13 0 -27.5 1.5t-27 5.5t-20.5 9.5t-8 14.5q0 37 14.5 56.5t25.5 19.5q12 -23 39 -40t53 -17q31 0 53 14t36 37t20.5 53t6.5 62z" />
<glyph unicode="6" horiz-adv-x="460" d="M382 607q-54 -18 -102.5 -53.5t-85 -85t-57.5 -112t-21 -134.5q0 -47 10 -83.5t27 -61t40 -37t49 -12.5q39 0 67 37.5t28 115.5q0 39 -11 63t-28 38t-37.5 19t-38.5 5q-11 0 -22.5 -1t-19.5 -4l-3 25q26 12 43 18.5t28 9.5q11 4 20 4q64 0 105.5 -38t41.5 -118 q0 -46 -10 -80t-27.5 -58.5t-40 -40t-46.5 -24.5q-19 -7 -37.5 -9.5t-36.5 -2.5q-36 0 -70 16.5t-60.5 48t-43 77t-16.5 103.5t18.5 109t48 94t67.5 78t76.5 60.5t74.5 41.5t63 21z" />
<glyph unicode="7" horiz-adv-x="460" d="M355 538q-14 1 -27.5 1h-26.5q-88 0 -129 -4.5t-50 -8.5q-9 -3 -23.5 -17t-29.5 -53l-25 4l32 155h353l4 -16q-63 -153 -127.5 -304t-133.5 -299h-67l-6 17q78 121 141 250t120 262z" />
<glyph unicode="8" horiz-adv-x="460" d="M394 234q14 -23 17 -44t3 -41q0 -44 -18 -75.5t-45 -51.5t-59.5 -30t-60.5 -10q-40 0 -74 11t-58.5 31.5t-38.5 49.5t-14 64q0 19 5.5 42t19.5 47.5t37.5 48t59.5 43.5v7q-57 50 -75 90t-18 70q0 39 15.5 67.5t39.5 46.5t52.5 27t54.5 9q34 0 62 -10t48.5 -27t31.5 -39 t11 -47q0 -38 -23.5 -79.5t-83.5 -81.5v-8q34 -24 64.5 -54t46.5 -56zM236 605q-38 0 -62.5 -26t-24.5 -64q0 -31 20.5 -67t78.5 -81h7q41 37 54.5 70.5t13.5 68.5q0 45 -25.5 72t-61.5 27zM232 14q21 0 40.5 7.5t34 21t23.5 32t9 41.5q0 16 -7 37.5t-23 45.5t-42 49t-64 49 h-9q-21 -23 -35 -42.5t-22 -38t-11 -37t-3 -39.5q0 -32 10.5 -55.5t26.5 -39t35 -23.5t37 -8z" />
<glyph unicode="9" horiz-adv-x="460" d="M26 416q0 53 18 93t46 67t62.5 40.5t66.5 13.5q42 0 79 -17.5t64.5 -48t44 -72.5t16.5 -90q0 -66 -17 -122t-45 -101t-62.5 -80t-69 -60.5t-66.5 -41t-53 -22.5l-12 26q49 24 92.5 58t75.5 80.5t50.5 105.5t18.5 134q0 58 -10.5 98.5t-28.5 66t-41.5 36.5t-48.5 11 q-18 -1 -36 -9.5t-32.5 -26t-23.5 -44t-9 -64.5q0 -46 11.5 -76t28.5 -47.5t37 -24.5t37 -7q4 0 21.5 2.5t35.5 14.5l6 -28q-21 -12 -37.5 -19t-27.5 -11q-7 -2 -13 -3t-11 -2q-20 0 -43 3.5t-44 15.5q-35 20 -57.5 59.5t-22.5 91.5z" />
<glyph unicode=":" horiz-adv-x="305" d="M162 -7q-23 0 -39.5 16.5t-16.5 39.5t16.5 39.5t39.5 16.5t39.5 -16.5t16.5 -39.5t-16.5 -39.5t-39.5 -16.5zM162 306q-23 0 -39.5 16.5t-16.5 39.5t16.5 39.5t39.5 16.5t39.5 -16.5t16.5 -39.5t-16.5 -39.5t-39.5 -16.5z" />
<glyph unicode=";" horiz-adv-x="305" d="M151 232q-20 0 -34.5 14.5t-14.5 34.5t14.5 34.5t34.5 14.5t35 -14.5t15 -34.5t-15 -34.5t-35 -14.5zM172 129q23 0 42.5 -26.5t19.5 -74.5q0 -24 -14 -48.5t-36 -46.5t-48 -39.5t-49 -26.5l-20 23q14 7 30.5 19t30.5 26t23 30t9 31q0 20 -15.5 39t-38.5 26q0 14 6 26.5 t15.5 21.5t21.5 14.5t23 5.5z" />
<glyph unicode="&#x3c;" horiz-adv-x="650" d="M564 461l16 -34l-364 -179v-8l364 -211l-16 -34l-524 228v17z" />
<glyph unicode="=" horiz-adv-x="776" d="M418 127l-27 -0.5t-73 -1.5t-106 -3t-126 -7l-7 16l30 57h583l-12 -68q-34 3 -79.5 4t-86 1.5t-68.5 1zM680 311q-34 2 -79 3t-86 2q-48 1 -97 1q-46 1 -100 -1q-46 -2 -106 -4t-126 -7l-7 14l30 55h583z" />
<glyph unicode="&#x3e;" horiz-adv-x="650" d="M88 -5l-16 34l367 184v6l-367 208l16 34l523 -224v-17z" />
<glyph unicode="?" horiz-adv-x="340" d="M134 673q37 0 76 -14.5t71.5 -41.5t53 -64.5t20.5 -83.5q0 -67 -30 -98q-13 -15 -34 -27.5t-42.5 -23.5t-40.5 -21t-28 -19q-3 -4 -6 -11.5t-3 -21.5q0 -8 1 -17.5t5 -20.5l-27 -7q-13 30 -20 50t-10 32q-4 14 -4 22t10 21t29 23q8 5 30 13t46.5 17.5t47 21t31.5 21.5 q5 5 6 13t1 17q0 26 -12.5 46t-30.5 38q-29 29 -59 37.5t-61 8.5q-20 0 -34.5 -4.5t-30.5 -13.5q-6 2 -10.5 10.5t-4.5 20.5t5 26t13 25t19 18.5t23 7.5zM165 -10q-25 0 -42 17t-17 41q0 25 17 42t42 17q24 0 41 -17t17 -42q0 -24 -17 -41t-41 -17z" />
<glyph unicode="@" horiz-adv-x="904" d="M343 160q4 -30 14.5 -51t25.5 -34t32.5 -19t36.5 -6q35 0 67.5 15.5t51.5 38.5q-43 123 -71 192.5t-33 71.5l-7 -1q-20 -10 -41 -29.5t-38 -45t-28 -55t-11 -59.5v-9t1 -9zM576 68q-13 -13 -31.5 -26.5t-41.5 -25t-49.5 -18.5t-56.5 -7q-24 0 -46.5 9.5t-40 28t-27.5 47 t-10 66.5q0 44 19.5 84.5t47 75t58 61.5t53.5 44l-3 19l3 8l80 3q3 -8 11.5 -32t20 -56t25.5 -69t27 -71t25 -61.5t20 -41.5t16 -23.5t25 -9.5q25 0 42 18.5t27.5 46t15.5 59.5t5 59q0 79 -22 141t-62.5 104.5t-99.5 65t-132 22.5q-71 0 -134 -26.5t-110 -73t-74.5 -110 t-27.5 -136.5q0 -85 25.5 -156t71.5 -122t111 -79.5t144 -28.5q36 0 66.5 3.5t59 11.5t55.5 20.5t56 30.5l15 -22q-26 -22 -61 -38.5t-71 -27t-70 -15.5t-58 -5q-90 0 -165 33t-129.5 89t-84.5 131t-30 159t32.5 156.5t88 126t130 84t158.5 30.5q152 0 258 -85 q29 -23 51.5 -53t37.5 -64.5t22.5 -72t7.5 -74.5q0 -60 -23 -116t-68 -98q-29 -26 -63 -46t-56 -20q-7 0 -16.5 11.5t-17.5 25.5q-5 8 -10 17t-10 19h-10z" />
<glyph unicode="A" horiz-adv-x="696" d="M236 -3q-28 3 -53 4t-44 2q-22 1 -41 1q-18 0 -36 -1q-15 -1 -31.5 -2t-30.5 -4l-4 29q23 7 38 14q9 4 17 9q14 9 28.5 30t26.5 48q5 12 17 43.5t33.5 94t55.5 161.5t84 246l97 13q37 -106 66.5 -189t52.5 -146t40.5 -108.5t29.5 -76.5q29 -73 41 -94q9 -10 20 -20 q10 -8 23 -15.5t30 -9.5l-4 -29q-28 3 -53 4t-44 2q-22 1 -41 1t-40 -1q-18 -1 -41 -2t-48 -4l-2 28q27 4 44 9.5t26.5 12t12.5 13.5t3 14q0 8 -3 20.5t-9.5 32.5t-17 49t-25.5 70q-23 2 -59.5 3t-74.5 1q-40 0 -73.5 -1t-50.5 -3q-15 -41 -25 -70.5t-15.5 -49.5t-8 -32.5 t-2.5 -20.5q0 -5 2.5 -12t12.5 -13.5t28.5 -12.5t49.5 -10zM222 304q14 -1 30.5 -1.5t31.5 -0.5h34h37q17 0 36 0.5t39 1.5v1l2 6l-102 265h-11q-20 -48 -37.5 -95t-31.5 -85q-17 -45 -31 -85z" />
<glyph unicode="B" horiz-adv-x="627" d="M544 515q0 -27 -12 -50.5t-30.5 -43t-41.5 -34t-45 -23.5v-7q32 -8 63 -25t55.5 -41.5t39.5 -55.5t15 -67q0 -48 -25.5 -85.5t-69.5 -60.5q-12 -6 -30 -11t-38.5 -8t-40.5 -5t-36 -2q-51 0 -95 2.5t-78 2.5q-14 0 -49.5 -0.5t-82.5 -3.5l-3 27q26 4 42.5 10t26.5 13 t14 14t5 13q2 13 3.5 41t2.5 65.5t1.5 81t0.5 88.5t-0.5 87.5t-1 76.5t-1.5 56.5t-3 28.5q0 1 -3 5.5t-12 10t-25 10.5t-43 7l2 26q59 5 108.5 7t87.5 3.5t61.5 1.5h29.5q48 0 87.5 -12t67.5 -35q25 -21 39 -48.5t14 -59.5zM484 175q0 55 -24.5 92t-69.5 52q-25 8 -51.5 11 t-49.5 3q-22 0 -39 -1.5t-25 -2.5v-32q0 -40 0.5 -77t1.5 -66t2.5 -48t2.5 -25q4 -18 13 -26.5t21 -12.5q13 -4 25.5 -6t29.5 -2q16 0 38 2t37 7q45 15 66.5 52.5t21.5 79.5zM346 370q45 7 75 42.5t31 92.5v2q0 23 -8 45t-23 39.5t-37.5 29t-51.5 13.5q-8 1 -15 1h-15 q-23 0 -40.5 -2t-24.5 -4q-3 -6 -5 -30t-3.5 -60t-2.5 -80.5t-1 -90.5q5 -1 21 -1.5t36 -0.5q17 0 33.5 1t30.5 3z" />
<glyph unicode="C" horiz-adv-x="738" d="M647 497q-12 71 -76 107.5t-160 36.5q-41 0 -78.5 -10t-69.5 -30.5t-57.5 -50.5t-41.5 -70q-11 -29 -16 -60t-5 -63q0 -78 27.5 -150.5t79.5 -117.5q36 -31 82 -47.5t103 -16.5q32 0 63.5 5.5t59 22t51 46.5t39.5 79l25 -7q-8 -44 -13.5 -71t-9 -42t-5.5 -20l-2 -5 q-97 -56 -218 -56q-75 0 -146 22.5t-128 73.5q-54 46 -86.5 112.5t-32.5 160.5q0 54 17 101.5t46 87.5t67 70t81 48t92 25.5t94 7.5q17 0 35 -1t37 -3q32 -3 73 -10t86 -20q5 -39 7.5 -67t4.5 -47q1 -11 1.5 -20t0.5 -17z" />
<glyph unicode="D" horiz-adv-x="802" d="M393 -5q-43 0 -94.5 3.5t-97.5 3.5q-13 0 -33.5 -0.5t-41.5 -1t-39 -1.5t-27 -2l-3 27q20 2 34.5 10t24.5 16q10 10 18 21q2 4 3.5 21.5t2.5 45t1.5 62.5t0.5 73q0 52 -0.5 106t-1.5 99t-2.5 75.5t-3.5 36.5q0 1 -3.5 7t-13.5 13t-28.5 13.5t-48.5 8.5l1 26 q37 3 77.5 5.5t80 4t77 2.5t69.5 1q42 0 81 -3.5t68 -9.5q66 -13 116.5 -45t85 -76.5t52.5 -96t18 -103.5q0 -85 -30 -149t-81.5 -107t-119 -64.5t-142.5 -21.5zM237 583q-2 -33 -3.5 -89.5t-1.5 -119.5v-40q0 -93 2 -158.5t7 -85.5q5 -17 15.5 -27t23.5 -15q14 -5 41 -7.5 t55 -2.5q79 0 133.5 22.5t88.5 60.5t49 88.5t15 106.5q0 64 -15 121.5t-63 103.5q-42 39 -99.5 62.5t-130.5 23.5q-16 0 -48 -1.5t-66 -8.5l-2 -23q-1 -3 -1 -11z" />
<glyph unicode="E" horiz-adv-x="644" d="M43 662q25 -2 58.5 -3t71.5 -1q19 0 57 0.5t79 1.5t77 1.5t51 0.5q57 0 122 -3l17 -156l-27 -3q-4 15 -10.5 34t-17.5 36t-26.5 29.5t-37.5 14.5q-20 2 -48.5 2.5t-57.5 0.5h-41.5t-37.5 -0.5t-29 -1.5t-16 -2q-1 -7 -2.5 -26.5t-2.5 -47.5t-1.5 -62t-0.5 -70v-44 q51 0 92 1q35 1 67 3t40 5q9 4 16 7.5t13 10t11.5 17.5t12.5 31l24 -3q-8 -45 -9 -68.5t-1 -24.5t1 -27t7 -74l-26 -3q-3 26 -12 41.5t-19 24.5q-10 10 -25 15q-9 2 -28.5 3.5t-42.5 2t-47 1t-43 0.5h-31v-77.5t1 -71.5t2 -59t3 -41q1 -6 5 -13t9 -9q9 -3 25 -5t35.5 -3.5 t41 -2t42.5 -0.5q32 0 58.5 2t35.5 6q31 14 58 45.5t42 73.5l30 -5v1q-9 -48 -16.5 -78.5t-13.5 -50.5l-12 -36q-25 -2 -52.5 -3t-62.5 -1q-20 0 -55 0.5t-74 1.5t-77.5 1.5t-66.5 0.5q-12 0 -30 -0.5t-37 -1.5t-36 -1.5t-27 -1.5q0 8 -1 11q-1 5 -1.5 9.5t-0.5 6.5 q20 2 34.5 10t23.5 16q10 10 18 21q3 4 4.5 27t2.5 57.5t1.5 78t0.5 88.5v94t-1 83.5t-2 62.5t-3 30q0 1 -3.5 6.5t-12.5 12.5t-25.5 14t-42.5 11q0 7 1.5 17t1.5 9z" />
<glyph unicode="F" horiz-adv-x="593" d="M227 610q-2 -5 -3.5 -23.5t-2 -45.5t-1 -61t-0.5 -70v-57h36h45.5t47 1t40.5 2t24 3q10 4 21 12q9 7 18.5 18.5t14.5 31.5l24 -3q-8 -47 -9 -70q-1 -14 -1 -23q0 -11 1 -27q1 -14 2.5 -32.5t4.5 -41.5l-26 -3q-3 26 -12 42t-19 25q-11 11 -25 15q-7 2 -21 3.5t-31 2 t-36.5 1t-37.5 0.5h-34t-27 -1q0 -43 1 -83t2 -72.5t2.5 -54t3.5 -27.5q6 -10 18 -20q11 -8 30 -15.5t51 -9.5l-3 -30q-12 1 -28.5 1.5t-36 1.5t-39.5 1.5t-39 0.5h-21t-22 -1t-34 -2t-57 -2l-3 27q24 2 39 9t23 15q10 9 14 20q3 4 4.5 25.5t2.5 54.5t1.5 74.5t0.5 85.5 q0 74 -1 143.5t-3 110.5q-1 16 -4 27.5t-12 19.5t-25.5 14.5t-43.5 12.5l3 26q31 -1 52.5 -2t36.5 -1.5t25.5 -0.5h19.5q27 0 63.5 0.5t72.5 1.5t68.5 1.5t52.5 0.5h31q14 0 31.5 -0.5t34.5 -1.5l29 -161l-27 -6q-4 15 -12.5 34.5t-20.5 37.5t-27.5 32t-34.5 17 q-8 1 -22 1.5t-33 0.5q-22 0 -48 -0.5t-48.5 -1.5t-39 -2t-21.5 -2z" />
<glyph unicode="G" horiz-adv-x="746" d="M652 19q-11 -1 -27.5 -5t-33.5 -8q-19 -4 -40 -10q-27 -7 -59.5 -13t-75.5 -6q-67 0 -135.5 22t-124 67.5t-90 115t-34.5 164.5q0 54 17 101.5t45.5 87.5t66.5 70t80 48t90.5 25.5t93.5 7.5q36 0 75 -4q33 -3 74 -10t82 -20q5 -39 7.5 -67t4.5 -47q2 -22 3 -37l-27 -5 q-14 72 -72.5 108.5t-157.5 36.5q-52 0 -101 -17.5t-87 -52.5t-60.5 -89t-22.5 -127q0 -76 21 -137t60 -104t93.5 -66t121.5 -23q13 0 31.5 3t36.5 8.5t31.5 12.5t17.5 14q5 11 7 27t2 33q0 36 -4.5 63.5t-12.5 43.5q-7 14 -34 23.5t-65 17.5l3 27q82 -5 121 -6q24 -1 41 -1 q16 0 34 1q15 1 34 2.5t39 3.5v-29q-37 -9 -50 -22.5t-15 -30.5q-2 -12 -2 -31v-41q0 -31 1 -62t4 -50z" />
<glyph unicode="H" horiz-adv-x="840" d="M715 70q3 -10 14 -19q9 -8 25.5 -14.5t44.5 -9.5l-3 -30q-31 2 -55.5 2.5t-41.5 1.5q-20 1 -35 1t-34 -1q-17 -1 -41 -1.5t-54 -2.5l-3 27q24 5 39 12t23 14q10 8 15 17q2 4 4 26.5t3 57.5t1.5 79t0.5 90q-11 1 -34 2t-52.5 1.5t-63 1t-66.5 0.5q-32 0 -61 -0.5t-53 -1.5 t-41 -2t-26 -2q0 -44 1 -86.5t2 -76.5t3 -57t4 -29q5 -11 16 -20q9 -8 25 -14.5t42 -8.5l-3 -30q-30 2 -55 2.5t-42 1.5q-20 1 -36 1q-15 0 -35 -1q-17 -1 -41 -1.5t-54 -2.5l-3 27q20 2 34.5 10t24.5 16q11 10 18 21q2 4 3.5 21.5t2.5 45t1.5 62.5t0.5 73q0 44 -0.5 90 t-1 86.5t-1.5 73.5t-2 51q-1 14 -4 22.5t-11 15.5q-9 7 -23.5 14t-45.5 12l3 26q66 -4 102 -6q21 -1 37 -1q17 0 36 1q17 1 39 2.5t48 3.5l3 -26q-26 -5 -42 -13.5t-24 -15.5t-11 -17.5t-5 -24.5q-3 -26 -4 -77t-2 -114q19 -1 82 -2t175 -1q56 0 90.5 1t48.5 2q0 44 -0.5 82 t-1 67.5t-2.5 48.5t-6 25q-9 16 -30 25t-49 14l3 26q55 -5 86 -5.5t49 -0.5q29 0 58 1t68 5l3 -26q-32 -7 -49.5 -18t-25.5 -20q-5 -6 -7.5 -29.5t-4 -58.5t-1.5 -78.5v-88.5q0 -47 0.5 -93.5t1.5 -85t2.5 -64.5t3.5 -32z" />
<glyph unicode="I" horiz-adv-x="354" d="M309 -1q-38 2 -73.5 3t-70.5 1q-32 0 -62 -1t-59 -3l-3 27q26 5 41.5 11.5t24 14.5t11.5 17.5t4 20.5q2 17 3 44t2 60t1 70v75q0 72 -1 134t-4 97q-1 16 -4.5 26t-12.5 17t-25 12.5t-41 11.5l3 26q38 -4 68.5 -5.5t60.5 -1.5t61.5 1.5t73.5 5.5l3 -27q-26 -5 -41.5 -11 t-24.5 -14t-12.5 -18.5t-4.5 -23.5q-1 -18 -2 -46t-2 -63t-1.5 -74t-0.5 -79q0 -69 1.5 -128t3.5 -90q1 -15 4.5 -24.5t12.5 -16t25.5 -11t43.5 -8.5z" />
<glyph unicode="J" horiz-adv-x="384" d="M344 637q-27 -8 -42 -14.5t-22.5 -16t-10 -24t-3.5 -38.5q-1 -20 -1 -44v-51q0 -91 3 -186t3 -175q0 -52 -17 -98.5t-48.5 -85t-75.5 -69t-98 -52.5l-16 28q41 19 68 43.5t44.5 53.5t26.5 62.5t12 70.5q5 53 5.5 109.5t0.5 114.5v74.5t-1 75.5t-2 69.5t-3 56.5 q-2 26 -6 41t-14 25t-28 16t-49 14l3 26q39 -4 74 -5.5t68 -1.5t63.5 1.5t62.5 5.5z" />
<glyph unicode="K" horiz-adv-x="731" d="M723 -3q-32 2 -56.5 2.5t-42.5 1.5q-21 1 -37 1t-37 -1q-18 -1 -43.5 -1.5t-57.5 -2.5l-3 27q30 5 40.5 12.5t10.5 12.5q0 7 -6 15q-8 13 -27.5 37t-44 52.5t-51 58t-49.5 54t-39.5 41t-20.5 18.5t-14 2q-7 0 -14 -1t-12 -3q0 -119 3.5 -180t11.5 -80q5 -8 23 -21t56 -15 l-3 -30q-30 2 -55 2.5t-42 1.5q-20 1 -37 1q-16 0 -36 -1q-17 -1 -40.5 -1.5t-52.5 -2.5l-3 27q31 4 48.5 17t24.5 22q3 4 5.5 14t4 39t2.5 84.5t1 150.5q0 45 -1 88t-2.5 76.5t-3.5 55.5t-4 26q-5 8 -22 20.5t-57 19.5l3 26q23 -3 59.5 -4.5t71.5 -1.5q32 0 69 1t62 4 l3 -26q-35 -8 -51.5 -20t-22.5 -20q-4 -5 -7 -22.5t-5 -44t-2.5 -60t-0.5 -71.5v-37h8q8 2 17.5 6t19.5 10q26 16 57.5 45t61 61t53 61t32.5 44q4 8 4 14q0 9 -6 15q-6 4 -15 8q-8 3 -19.5 6.5t-28.5 4.5l3 26q49 -4 82.5 -5t47.5 -1q8 0 41 1t94 6l3 -26q-14 -2 -28.5 -5.5 t-25.5 -7.5q-13 -4 -26 -10q-11 -5 -31 -18t-40 -30q-36 -32 -67.5 -70t-67.5 -68q-6 -6 -14 -13q-7 -6 -16.5 -14t-21.5 -17v-9q5 -5 15 -14t21 -20q17 -19 40 -44t48 -52t50.5 -54.5t48.5 -51.5t41 -42t28 -27q15 -12 31 -22q14 -8 31.5 -15t35.5 -7l-3 -29v0z" />
<glyph unicode="L" horiz-adv-x="643" d="M592 2q-32 -2 -72.5 -3t-92.5 -1q-21 0 -51.5 0.5t-64 1.5t-67.5 1.5t-61 0.5q-36 0 -69 -1.5t-67 -3.5l-3 27q25 6 40.5 13t24 16.5t12 21.5t4.5 28q1 18 2 45t1.5 58.5t1 66.5t0.5 71v60.5t-1 59.5t-2 54.5t-3 44.5q-1 19 -4.5 30.5t-12.5 19t-25 13t-42 11.5l3 26 q29 -4 66 -5.5t75 -1.5t75 1.5t68 5.5l3 -26q-34 -8 -53.5 -14t-30 -13.5t-14.5 -18t-6 -27.5q-3 -34 -4.5 -94t-1.5 -127q0 -38 0.5 -75.5t1.5 -70.5t2 -59.5t2 -41.5q3 -30 26 -38q14 -5 44.5 -7t66.5 -2q61 0 97.5 3t59.5 18t45.5 43.5t56.5 84.5l29 -9z" />
<glyph unicode="M" horiz-adv-x="1006" d="M875 80q2 -13 10 -21.5t20.5 -15t28.5 -10.5l32 -8l-3 -27q-32 3 -68 4t-72 1t-69.5 -1t-62.5 -4l-3 28q40 5 56.5 17.5t21.5 19.5q5 8 6 25.5t1 49.5q0 41 -1 96t-3 112.5t-4 111.5t-4 93l-6 2l-268 -564l-27 -1l-252 567l-7 -1q-2 -25 -3.5 -59.5t-3.5 -73.5t-4 -81 t-3.5 -81.5t-2.5 -75t-1 -61.5q0 -21 1 -36.5t7 -24.5t25.5 -20.5t58.5 -14.5l-3 -28q-20 2 -51 3.5t-64 1.5q-36 0 -69 -1.5t-53 -3.5l-3 27q20 3 34 10.5t24 15.5q11 10 19 21q3 5 6.5 31.5t7 66t7.5 88.5t8 99q5 66 8 123.5t3 88.5q0 12 -1.5 21t-10.5 17.5t-27.5 15.5 t-53.5 14l3 26q23 -2 55 -3.5t66 -1.5q26 0 50 0.5t44 2.5q14 -41 43 -112q25 -61 67.5 -162t108.5 -252h10q13 28 32.5 70.5t42 92.5t46 103t45 102t39 90t27.5 66q17 -1 37.5 -1.5t43.5 -0.5q29 0 59.5 1.5t61.5 4.5l3 -27q-36 -6 -56 -16.5t-25 -18.5t-5.5 -17.5 t-0.5 -29.5q0 -28 1 -70t3 -90t4 -97.5t4.5 -93t5 -76.5t4.5 -47z" />
<glyph unicode="N" horiz-adv-x="842" d="M37 662q25 -2 52 -3.5t54 -1.5q42 0 76 3l441 -512l8 2v193q0 89 -0.5 140t-2.5 77q-1 20 -6 32.5t-15.5 20t-28.5 11.5t-47 8l3 30q29 -2 60 -3.5t63 -1.5t62 1.5t57 3.5l3 -27q-24 -6 -39.5 -12t-24.5 -14t-13 -20.5t-6 -30.5q-2 -21 -3.5 -60.5t-3 -105.5t-2.5 -163.5 t-1 -234.5l-48 -8l-479 555l-7 -3q-1 -48 -1 -87.5v-74.5q0 -69 0.5 -118.5t1.5 -83t2.5 -54t2.5 -32.5q2 -16 7.5 -25.5t16.5 -16t28 -10t42 -7.5l-3 -30q-31 2 -61 3t-60 1q-32 0 -63 -1t-59 -3l-3 27q23 6 38 11t24 11.5t13 16.5t6 25q3 20 5 51.5t3 69t1.5 79.5t0.5 83 q0 38 -0.5 73t-1.5 63.5t-2.5 48.5t-3.5 28q-6 24 -31.5 34t-57.5 15z" />
<glyph unicode="O" horiz-adv-x="791" d="M240 594q-48 -37 -74 -97t-26 -141q0 -77 21.5 -138.5t58.5 -105t86 -67t104 -23.5q53 0 98 21.5t77.5 61t50.5 94.5t18 122q0 96 -35 167t-93 110q-32 21 -68 32.5t-75 11.5q-83 0 -143 -48zM32 336q0 78 27.5 143t76 111t116.5 71.5t149 25.5q79 0 144 -25t111.5 -70.5 t72.5 -109.5t26 -141q0 -79 -28 -146t-76.5 -116t-114.5 -76.5t-142 -27.5q-71 0 -136.5 27t-115.5 75t-80 114t-30 145z" />
<glyph unicode="P" horiz-adv-x="587" d="M262 310q6 -2 12.5 -2h13.5q29 0 57 5t53 21q33 21 48.5 59.5t15.5 85.5q0 28 -9 57.5t-30 50.5q-20 20 -47 33.5t-63 13.5q-23 0 -48 -2.5t-36 -4.5q-2 -10 -4 -44.5t-3.5 -82.5t-2.5 -105t-1 -113v-77t1 -66t3.5 -49.5t6.5 -27.5q5 -9 24 -20t68 -14l-4 -30 q-25 2 -58.5 3t-69.5 1q-39 0 -77 -1.5t-69 -3.5l-3 27q38 5 53 15t22 19q4 5 6.5 34t4 70.5t2 90.5t0.5 94q0 48 -0.5 92t-1.5 78.5t-2.5 56t-4.5 25.5q-5 8 -22.5 18.5t-56.5 14.5l2 26q74 5 121 7.5t77 4t48 1.5h33q70 0 116.5 -18t74 -45t38.5 -58.5t11 -58.5 q0 -55 -22.5 -96t-57.5 -68t-76.5 -40t-79.5 -13q-16 0 -36 3t-31 8z" />
<glyph unicode="Q" horiz-adv-x="815" d="M1047 -124q-26 -15 -52 -22.5t-46 -11.5q-24 -4 -46 -5q-45 0 -86 8t-78 27q-10 5 -29 15t-43 21.5t-50 24t-49.5 24t-42 20t-27.5 12.5q-51 -14 -104 -14q-71 0 -136.5 27t-115.5 75t-80 114t-30 145q0 78 27 143t75.5 111t116 71.5t148.5 25.5t146.5 -24.5t112 -70 t72 -109.5t25.5 -142q0 -100 -43.5 -179.5t-116.5 -127.5l1 -7q12 -2 19 -4t18 -6q16 -6 67.5 -28t152.5 -68q48 -22 85 -25.5t51 -3.5q12 0 25.5 1t25.5 5zM408 22q54 0 99 21.5t77.5 60.5t51 94.5t18.5 122.5q0 74 -21.5 133.5t-58.5 101t-86 64t-105 22.5 q-53 0 -98 -20.5t-77.5 -58.5t-50.5 -91.5t-18 -119.5q0 -79 23.5 -143.5t70.5 -111.5q35 -35 79.5 -55t95.5 -20z" />
<glyph unicode="R" horiz-adv-x="729" d="M449 488q0 34 -13 66t-42 52q-16 11 -37.5 16t-44.5 5t-47.5 -2t-35.5 -4q-2 -6 -4 -34.5t-3.5 -70.5t-2 -93.5t-0.5 -102.5h28t36 0.5t37 1.5t31 2q40 21 68.5 63.5t29.5 100.5zM759 -1q-11 -4 -26.5 -6t-29.5 -3q-16 -1 -32 -1q-21 0 -44 3t-48.5 13.5t-52 30 t-55.5 51.5q-13 15 -35 41t-44.5 52t-40 47.5t-22.5 26.5q-17 20 -35 24.5t-35 4.5q-11 0 -22 -0.5t-18 -2.5q0 -39 0.5 -75.5t1.5 -66t3 -50t6 -27.5q5 -8 23.5 -20t60.5 -14l-4 -30q-31 2 -64 3.5t-66 1.5q-35 0 -69 -1.5t-66 -3.5l-3 27q35 5 52.5 16t22.5 19 q3 5 5.5 34.5t3.5 73t1.5 96t0.5 103.5q0 63 -1.5 118.5t-3.5 86.5q-1 16 -4.5 25.5t-12 15.5t-24.5 10t-42 10l1 26q72 4 121.5 6t82.5 3t52 1h29q35 0 73 -5.5t64 -19.5q86 -47 86 -139q0 -30 -14.5 -58.5t-37 -54t-49.5 -46t-52 -34.5v-6q20 -14 33 -25.5t26 -26.5 q4 -4 19.5 -22.5t34 -40.5t35 -41.5t23.5 -27.5q29 -33 53 -52t46 -29t44 -13t49 -3v-25z" />
<glyph unicode="S" horiz-adv-x="501" d="M434 518l-29 -3q-6 33 -19 57t-32 39t-42.5 22t-49.5 7q-51 0 -85 -27t-34 -75q0 -56 44 -90q35 -27 82 -52t89 -55q33 -23 53 -45.5t31.5 -45t15 -44t3.5 -43.5q0 -28 -13.5 -60.5t-40.5 -60t-68.5 -45.5t-97.5 -18q-24 0 -52 4q-24 3 -55 10t-66 21q-5 14 -10 36 q-5 19 -10 48t-10 70l32 7q8 -28 22.5 -55t36.5 -48.5t53 -35t73 -13.5q26 0 48.5 8t39 22.5t26 33.5t9.5 41q0 31 -14.5 61.5t-57.5 62.5q-17 13 -37 26t-40.5 25.5t-39.5 24t-34 21.5q-47 33 -65.5 74.5t-18.5 81.5q0 29 11 60.5t35 57t63 42t94 16.5q45 0 81.5 -7 t65.5 -15z" />
<glyph unicode="T" horiz-adv-x="690" d="M392 612q-1 -20 -2 -49t-1.5 -64t-1 -74t-0.5 -79q0 -50 0.5 -97.5t1.5 -86t2.5 -64t3.5 -31.5q4 -9 16 -18q10 -7 28.5 -13.5t47.5 -8.5l-3 -30q-34 3 -61 4t-45 2q-11 1 -20 1h-17h-17t-20 -1q-19 -1 -46.5 -2t-63.5 -4l-3 27q26 2 43.5 8.5t28.5 14.5q7 5 11.5 10.5 t8.5 10.5q3 5 5 36.5t3.5 79t2 105.5t0.5 115q0 66 -0.5 122.5t-2.5 88.5q-63 0 -109 -3t-68 -17q-20 -14 -35 -43.5t-29 -68.5l-28 6q11 42 18 74.5t11 55.5q5 27 6 49l12 2l79 -11h455l39 3l8 -5v-176l-29 -2q-6 37 -11 62.5t-16.5 41t-33 22.5t-60.5 8q-15 1 -30.5 1.5 t-30 0.5h-26h-17.5z" />
<glyph unicode="U" horiz-adv-x="788" d="M109 212q-1 12 -1 24.5v26.5q0 39 1.5 86.5t1.5 92.5q0 59 -2.5 104t-7.5 53t-21.5 19t-55.5 18l3 26q28 -3 63 -4.5t72 -1.5q35 0 69.5 1.5t63.5 4.5l3 -26q-40 -7 -58 -19.5t-23 -20.5q-4 -7 -6.5 -32t-3.5 -61.5t-1.5 -80.5t-0.5 -89q0 -27 0.5 -54t2.5 -57 q2 -35 12.5 -69t33 -60.5t59 -42.5t91.5 -16q89 0 142 38q35 25 53 61t24 74q5 35 6 75t1 72q0 29 -1 68.5t-3.5 77t-7.5 66.5t-13 37t-26.5 17.5t-57.5 11.5l3 30q29 -2 61 -3.5t65 -1.5q31 0 61 2t56 4l1 -27q-28 -3 -45.5 -13.5t-25.5 -22.5q-5 -10 -8 -34.5t-4.5 -58.5 t-2 -73.5t-1 -78.5t-1.5 -74.5t-3 -61.5q-2 -23 -5.5 -47.5t-14.5 -47.5q-20 -42 -57 -79.5t-100 -56.5q-22 -7 -49 -10.5t-54 -3.5q-45 0 -78.5 6t-59.5 15q-44 16 -72.5 41.5t-45 55.5t-23.5 61t-9 59z" />
<glyph unicode="V" horiz-adv-x="723" d="M375 -21h-40q-40 100 -72 179t-57.5 140.5t-44.5 106.5t-33 77q-33 75 -47 102q-8 14 -20 25q-11 10 -26 18t-35 8l3 28q32 -4 68.5 -5.5t74.5 -1.5q74 0 147 6l2 -28q-29 -4 -46 -10t-25.5 -13t-11 -15t-2.5 -17q0 -11 3 -28t11.5 -44.5t22.5 -67t36 -95.5l11 -29 t26.5 -68.5t31 -78.5t24.5 -59l8 1q7 13 17 35t21 48.5t22.5 53t21 48.5t15 35.5l5.5 13.5q24 54 39 93.5t23.5 66.5t11.5 44.5t3 28.5q0 10 -2.5 18.5t-11 16t-25 13t-44.5 9.5l3 28q65 -6 122 -6q32 0 62.5 1.5t61.5 5.5l2 -29q-20 -1 -34.5 -9.5t-25.5 -18.5 q-12 -11 -22 -25q-15 -28 -50 -102q-15 -31 -35.5 -76t-48 -106t-62 -140t-78.5 -179v1z" />
<glyph unicode="W" horiz-adv-x="1052" d="M1058 662q0 -6 1 -11t1 -9.5v-8.5q-15 -2 -25.5 -4.5t-19.5 -8t-17.5 -13.5t-17.5 -22q-4 -7 -16 -34t-28.5 -67.5t-36.5 -90.5t-40.5 -102t-40 -103t-35.5 -92.5t-27 -71t-15 -38.5h-44q-36 105 -66 189t-52 144q-26 70 -47 125h-8l-197 -458h-53q-41 136 -71 233.5 t-51 164.5t-35 107t-22.5 62.5t-13 32t-7.5 13.5q-7 9 -22.5 20t-51.5 14l5 29q28 -2 52 -3.5t42 -2.5q21 -1 39 -1t40 1q19 1 45 2.5t58 3.5l1 -28q-25 -4 -40 -10t-23 -14t-10 -18t-2 -24q0 -11 2 -27t7.5 -41t14.5 -59.5t23 -82.5q13 -42 25 -85q11 -37 23 -79.5 t23 -80.5h9q52 115 82.5 186.5t47.5 112.5q19 48 28 70q2 6 3.5 14.5t1.5 15.5q0 12 -4 26.5t-10 28t-12 24.5t-10 15q-8 8 -23.5 16t-41.5 11l2 28q29 -2 53.5 -3t42.5 -2q21 -1 38 -1q18 0 40 1q19 1 45.5 2t58.5 3l3 -28q-30 -4 -47 -9.5t-26 -12.5t-11.5 -15.5 t-2.5 -17.5q0 -11 3 -27.5t10.5 -41t19 -60t28.5 -84.5q16 -47 31 -92q13 -38 27.5 -81t26.5 -75h10q18 48 34.5 94.5t29.5 83.5q15 43 29 81q57 161 57 212q0 6 -2.5 12.5t-11 13t-25.5 12t-46 7.5l3 28q45 -3 71.5 -4t48.5 -1q24 0 57 1.5t65 4.5z" />
<glyph unicode="X" horiz-adv-x="691" d="M687 -3q-29 3 -53.5 4t-43.5 2q-22 1 -40 1t-43 -1q-21 -1 -51.5 -2t-69.5 -4l-2 28q24 2 38 6.5t21.5 10t9.5 10t2 7.5q0 12 -9.5 34.5t-25.5 51.5t-38 63.5t-47 71.5h-9q-30 -41 -56 -77t-45 -65t-30 -49t-11 -29q0 -8 13.5 -20t54.5 -15l-2 -28q-32 3 -62.5 5t-62.5 2 q-28 0 -55.5 -1.5t-59.5 -5.5l-4 28q20 4 37 11.5t30 15.5q15 10 27 21q17 16 42.5 46.5t54 66t56 71.5t46.5 61v9q-16 26 -38 60t-45.5 69.5t-47.5 69t-45 57.5q-20 20 -43 35t-61 18l4 29q26 -2 50 -3.5t42 -2.5q21 -1 39 -1t43 1q21 1 52 2.5t69 3.5l2 -28 q-23 -2 -37 -6.5t-21.5 -10t-10 -11t-2.5 -8.5q0 -12 8 -32t23 -46.5t35 -58.5t44 -67h11q29 38 53 71.5t41 60t26.5 45.5t9.5 28q0 2 -1.5 6.5t-8 10t-20 10.5t-36.5 8l3 28q26 -2 48.5 -3.5t39.5 -2.5q20 -1 38 -1t36 1q16 1 35 2.5t36 3.5l3 -29q-19 -2 -35 -10.5 t-29 -16.5q-15 -10 -27 -21q-14 -14 -37.5 -42t-49.5 -61t-52.5 -67.5t-46.5 -61.5v-6q13 -22 35 -57t47.5 -74t53.5 -77t53 -66q5 -5 13.5 -13t22 -16t31 -14.5t39.5 -7.5z" />
<glyph unicode="Y" horiz-adv-x="713" d="M611 657h19t18 1q16 1 34.5 2.5t35.5 3.5l3 -28q-19 -3 -35 -11.5t-28 -18.5q-7 -5 -13.5 -11t-11.5 -13q-17 -21 -46 -62t-61 -87.5t-62.5 -93t-51.5 -78.5q0 -87 1 -139t6 -61q7 -11 29.5 -20t57.5 -12l-3 -30q-33 2 -59 2.5t-44 1.5q-11 1 -20 1h-17h-17t-19 -1 q-17 -1 -41.5 -1.5t-54.5 -2.5l-3 27q38 2 57 13.5t26 21.5q3 4 4.5 19.5t2.5 39.5t1 54.5v63.5q-10 16 -27.5 43t-39 60.5t-45 69.5t-46 69t-41.5 61t-31 44q-11 13 -24 24q-12 9 -28.5 17t-36.5 10l4 28q60 -4 103 -6q11 -1 21.5 -1h19.5h19.5t21.5 1q20 1 46.5 2.5 t57.5 3.5l2 -28q-36 -5 -58.5 -15t-22.5 -22q0 -29 43 -100q19 -33 49.5 -80t76.5 -116h8q64 98 99 155.5t49 87.5q8 17 13 29t5 21q0 13 -19.5 23t-61.5 17l3 28q26 -2 50 -3.5t42 -2.5q11 -1 20.5 -1h19.5z" />
<glyph unicode="Z" horiz-adv-x="674" d="M120 664l53 -4h444l4 -19l-439 -585q0 -2 0.5 -5.5t2.5 -5.5q57 0 109.5 0.5t95 2t73 3.5t43.5 6q15 5 30.5 18t29.5 32.5t26 43.5t19 50l31 -7q-14 -104 -24 -149t-10 -44h-556l-7 24l435 583l-2 10q-45 0 -90 -1t-83.5 -2.5t-67.5 -4t-43 -6.5q-29 -8 -54 -39.5 t-48 -79.5l-28 8l47 168z" />
<glyph unicode="[" horiz-adv-x="289" d="M153 -138q6 -8 20 -13q12 -5 35 -9t61 -4v-28h-197v891h197v-31q-39 -1 -62 -5.5t-35 -9.5q-14 -6 -19 -13q-5 -48 -9.5 -147t-4.5 -225q0 -63 2 -124.5t4 -115.5t4.5 -97.5t3.5 -68.5z" />
<glyph unicode="\" horiz-adv-x="382" d="M382 -218l-20.5 47.5t-54 125.5t-76.5 177t-89 203t-91.5 203t-83.5 177l9 13h57l398 -927z" />
<glyph unicode="]" horiz-adv-x="289" d="M136 -138q1 25 3.5 68.5t4.5 97.5t4 115.5t2 124.5q0 126 -4.5 225t-9.5 147q-5 7 -19 13q-12 5 -34.5 9.5t-62.5 5.5v31h197v-891h-197v28q38 0 61 4t35 9q14 5 20 13z" />
<glyph unicode="^" horiz-adv-x="369" d="M177 555l-109 -162l-13 7l124 262h20l124 -262l-12 -10z" />
<glyph unicode="_" horiz-adv-x="650" d="M599 58l-6 -58q-42 2 -99 2.5t-122 0.5q-81 0 -166 -1.5t-158 -4.5l-5 14l19 48z" />
<glyph unicode="`" horiz-adv-x="500" d="M238 479l-128 142q13 16 29 23.5t31 11.5q18 4 35 5l71 -172z" />
<glyph unicode="a" horiz-adv-x="412" d="M317 375q9 -14 11 -31t2 -37q0 -35 -1 -71.5t-1 -84.5q0 -31 1.5 -55.5t4.5 -32.5q8 -20 26 -20t37 22l13 -23q-23 -28 -50 -39t-44 -11q-20 0 -37 18t-25 47h-5q-8 -9 -22.5 -21t-31.5 -22t-34.5 -17t-32.5 -7t-31 6.5t-29 19.5t-21.5 31.5t-8.5 42.5q0 17 6 37t30 38 q12 9 32.5 17t43.5 16.5t47.5 18.5t45.5 24q10 7 10 18q0 15 -1 30.5t-3 31.5q-3 26 -24 45.5t-56 19.5q-29 0 -42 -13q-7 -7 -11 -16.5t-7 -18.5t-7 -15t-11 -6q-20 0 -35 14t-15 28q0 9 21 21t50 22.5t59 17.5t48 7q28 0 56 -14.5t42 -37.5zM254 213q0 1 -1 2t-5 1 q-12 -10 -29 -19t-34.5 -17.5t-33 -18t-24.5 -21.5q-7 -9 -9 -17.5t-2 -17.5q0 -27 13 -45t41 -18q14 0 27 5.5t23.5 14.5t19 19.5t13.5 20.5q1 11 1.5 27t0.5 32v37q0 11 -1 15z" />
<glyph unicode="b" horiz-adv-x="498" d="M158 704q-3 -56 -4.5 -107t-2 -94t-0.5 -76.5v-54.5l6 -2q26 20 49 31t40.5 16t28.5 6t14 1q39 0 76 -17t63 -53q33 -44 33 -117q0 -44 -11.5 -80.5t-31 -65t-44.5 -49.5t-51 -33q-22 -10 -44.5 -14.5t-42.5 -4.5q-22 -1 -43 3q-18 3 -39 8.5t-39 16.5l-39 -14l-7 7 q2 33 3.5 77.5t3 94.5t2 102.5t0.5 101.5q0 45 -0.5 84.5t-1 70t-2 49.5t-4.5 23q-5 7 -17.5 14t-41.5 15v20q40 10 65.5 18t40.5 14q20 8 27 13zM357 83q14 20 20.5 51.5t6.5 66.5q0 37 -8.5 68t-25 53.5t-40.5 35t-55 12.5q-28 0 -55.5 -10t-48.5 -29q-1 -25 -1.5 -58 t-0.5 -93q0 -32 0.5 -54t4.5 -38q8 -32 35 -46t59 -14t61.5 14.5t47.5 40.5z" />
<glyph unicode="c" horiz-adv-x="396" d="M276 424q42 -2 69 -13q20 -9 24.5 -13.5t4.5 -17.5q0 -17 -13 -32t-27 -15q-9 0 -16 4.5t-13.5 11l-14.5 14.5t-19 14q-13 7 -32 7q-23 0 -48 -12t-45 -39q-17 -23 -24.5 -51t-7.5 -57q0 -45 15 -84t40 -60q21 -18 43 -25.5t42 -7.5q35 0 59.5 17t46.5 42l16 -24 q-18 -20 -36 -37.5t-37 -30t-41 -19.5t-49 -7q-38 0 -75.5 19t-65.5 59q-14 21 -24 52t-10 67q0 27 6 55t20 55.5t37 53t58 46.5q25 15 56 21.5t61 6.5z" />
<glyph unicode="d" horiz-adv-x="502" d="M428 92q3 -11 10 -17q6 -7 18 -13.5t32 -10.5v-19q-59 -11 -93 -27q-21 -10 -33 -19l-12 5v79h-6q-10 -14 -26 -28.5t-35.5 -26t-40.5 -19t-41 -7.5q-24 0 -52 10.5t-53 34t-41.5 60.5t-16.5 91q0 63 22 108.5t55 74.5t72 43t73 14q23 0 45.5 -4.5t41.5 -11.5h5v73 q0 25 -0.5 48t-1 41.5t-2.5 31t-5 15.5q-6 6 -21.5 14.5t-44.5 15.5v19q39 8 65.5 15.5t43.5 13.5l32 13l12 -5q0 -6 -0.5 -30t-1 -61t-1 -83t-1 -95t-1 -98.5t-0.5 -92.5q0 -60 0.5 -102t2.5 -50zM352 176q0 5 0.5 17t0.5 27v32.5t-0.5 34t-0.5 30.5v23q-16 25 -46 37 t-60 12q-57 0 -95 -44t-38 -123q0 -41 10.5 -73.5t27.5 -55t40 -34t49 -11.5t44 8.5t32 22.5q23 23 28.5 45t7.5 52z" />
<glyph unicode="e" horiz-adv-x="426" d="M217 390q-21 0 -38.5 -9t-30 -25t-21 -36.5t-11.5 -42.5q15 0 45 0.5t60 2.5l74 3q11 3 11 15q0 5 -2.5 14t-5.5 16q-11 24 -31 43t-50 19zM388 251q-25 -5 -55 -6t-56 -1q-36 0 -71.5 1t-85.5 2q-4 -1 -5.5 -4t-1.5 -14q0 -8 0.5 -16t1.5 -16q4 -34 17 -61t32.5 -45.5 t43 -28.5t49.5 -10q23 2 42 7q18 5 39.5 17t40.5 33l12 -29q-19 -25 -43 -42.5t-48 -28.5t-46 -16t-37 -5q-33 0 -66 15t-59 41q-27 29 -40.5 69.5t-13.5 76.5q0 29 4 56.5t15 52.5q24 57 72 92.5t109 35.5q30 0 54.5 -13.5t42.5 -33t29 -40t15 -34.5l17 -36z" />
<glyph unicode="f" horiz-adv-x="329" d="M327 709q26 0 47 -7t21 -16q0 -12 -4 -21q-3 -9 -9 -20t-18 -20q-4 3 -15 8.5t-24 10.5t-26.5 9t-22.5 4q-23 0 -43.5 -17.5t-30.5 -65.5q-5 -20 -8 -63.5t-3 -98.5h131l-6 -56h-124v-88v-68t0.5 -60.5t1.5 -47t2 -28.5q1 -11 12 -18q8 -7 25 -13t46 -8l-3 -27 q-63 6 -116 6q-30 0 -57.5 -2t-52.5 -5l-3 27q40 12 51.5 19.5t13.5 21.5q1 8 2 28.5t1.5 47t1 57t0.5 58.5q0 37 -0.5 65t-2.5 35h-85l-5 27l92 36q0 32 4 63t13 61q12 41 33 72t47 52t55.5 31.5t58.5 10.5z" />
<glyph unicode="g" horiz-adv-x="483" d="M303 286q0 51 -21.5 82t-63.5 31q-36 0 -59 -26.5t-23 -71.5q0 -25 7 -46t19 -36.5t27.5 -24t33.5 -8.5q29 0 45 16q35 27 35 84zM384 -80q0 25 -14 44t-41 22q-10 1 -37 1.5t-56.5 1t-54.5 1.5t-32 4q-30 -8 -47.5 -33.5t-17.5 -50.5q0 -57 39.5 -90t102.5 -33 q45 0 75.5 15t49 36t26 44t7.5 38zM463 413l-6 -57l-88 14l-2 -2t-2 -3l-2 -3q5 -8 11 -26t6 -41q0 -29 -13 -54.5t-35 -45.5t-51.5 -31.5t-63.5 -11.5q-5 0 -10 0.5t-10 1.5q-29 -18 -46 -36t-17 -32q0 -15 17.5 -21t45.5 -8t62.5 -2.5t68.5 -3.5q55 -5 85.5 -27.5 t30.5 -76.5q0 -31 -17.5 -66.5t-50 -66t-78 -50.5t-101.5 -20q-38 0 -71 10.5t-58 29.5t-39.5 45.5t-14.5 58.5q0 14 8 30.5t22 32t31.5 29t37.5 21.5v6q-26 12 -46.5 30.5t-23.5 38.5q4 6 16 16t27.5 20.5t32 21.5t30.5 19q3 2 5 3.5t2 4.5q0 2 -5 4q-43 17 -70 52.5 t-27 77.5q0 29 13 54t35 43.5t51.5 29t63.5 10.5q60 0 100 -23z" />
<glyph unicode="h" horiz-adv-x="513" d="M500 -3q-54 5 -81 5.5t-27 1.5q0 -1 -25 -1.5t-70 -5.5l-3 27q26 3 37.5 11t16.5 13q6 6 9 22.5t5 38.5t2.5 47t0.5 48q0 42 -3 74q-4 40 -24 66t-59 26q-20 0 -40.5 -7.5t-37.5 -17t-28 -20t-13 -16.5v-33q0 -36 0.5 -75t1 -71.5t2.5 -55t5 -26.5q5 -7 18 -14.5t38 -9.5 l-3 -27q-29 3 -49.5 4t-34.5 2q-8 1 -15 1h-12h-10.5t-12.5 -1q-11 -1 -27.5 -2t-38.5 -4l-3 25q24 5 38.5 12.5t19.5 12.5q3 3 5 30.5t2.5 63l1 71t0.5 55.5v136q0 21 -0.5 52.5t-1 62.5t-2.5 55t-5 30q-5 6 -12 12q-7 5 -18 11t-30 11v20q40 11 65.5 20t40.5 16 q9 4 16 7.5t12 6.5l13 -2q-2 -60 -2 -110.5t-1 -88.5q-1 -22 -1 -42v-37v-71l5 -2q35 26 60.5 40.5t42.5 21t27.5 7.5t16.5 1q48 0 81.5 -28.5t42.5 -76.5q2 -12 3 -25t1 -27q0 -42 -1.5 -82.5t-1.5 -76.5q0 -20 1.5 -38t6.5 -25t18.5 -13t39.5 -7z" />
<glyph unicode="i" horiz-adv-x="267" d="M85 592q0 24 16 40.5t39 16.5q25 0 41.5 -16.5t16.5 -40.5q0 -23 -16.5 -39t-41.5 -16q-23 0 -39 16t-16 39zM185 427q-2 -81 -3.5 -139.5t-1.5 -100.5q0 -57 1.5 -90.5t7.5 -41.5q9 -12 27 -18.5t42 -11.5l-3 -28q-24 3 -54 5t-56 2q-27 0 -58.5 -2t-56.5 -5l-3 27 q26 5 44 12t26 18t9 38.5t1 72.5q0 24 -0.5 48.5t-1.5 45t-2 35t-2 18.5q-1 6 -10 15q-7 7 -19.5 14t-35.5 13v21q76 26 104.5 41.5t28.5 14.5z" />
<glyph unicode="j" horiz-adv-x="237" d="M79 595q0 21 15 36t36 15t36 -15t15 -36q0 -22 -15 -37t-36 -15t-36 15t-15 37zM21 383q26 8 51 16.5t45 15.5q23 8 44 16l13 -3q-1 -17 -1.5 -57t-0.5 -91q0 -87 1.5 -148.5t1.5 -82.5q0 -37 -6 -74.5t-24 -75.5t-50.5 -75.5t-85.5 -73.5l-17 25q30 22 48.5 44.5t29 46 t15 49t7.5 52.5t5 74.5t2 99.5q0 28 -1 61t-3 61.5t-5 49t-7 24.5q-10 10 -62 24v22z" />
<glyph unicode="k" horiz-adv-x="518" d="M268 411q23 -2 50.5 -3t52.5 -1q59 0 106 6l3 -28q-24 -3 -43.5 -10.5t-29.5 -12.5q-8 -5 -46 -28.5t-104 -80.5v-7q8 -7 17 -16.5t13 -14.5q17 -22 39 -49.5t42.5 -52t38 -43.5t25.5 -24q11 -6 29 -13.5t39 -8.5l-3 -29q-75 6 -108 6h-27q-6 0 -8 -1q-51 71 -81.5 111.5 t-47 60.5t-22 24.5l-5.5 4.5q0 4 -15 4q-5 0 -10.5 -1t-12.5 -5q1 -60 2.5 -101t3.5 -46q2 -3 4.5 -6t6.5 -6q13 -12 45 -18l-3 -25q-41 6 -99 6q-50 0 -96 -6l-3 27q19 3 30.5 8t18.5 10q7 6 12 12q2 3 3 23t2 52.5t1 73v84.5q0 53 -0.5 107t-1.5 98.5t-2 74.5t-2 34 q-1 6 -10 15q-7 6 -19.5 13t-35.5 13v19q73 20 103 33q9 4 16.5 7.5t13.5 6.5l15 -4q-2 -88 -2.5 -170t-1.5 -148q-1 -38 -1 -73.5v-68.5q0 -1 1 -2l5 -4q12 2 19.5 5.5t7.5 2.5q5 3 18.5 13.5t29.5 24.5t32 29.5t26 27.5q10 10 10 21q0 17 -44 23z" />
<glyph unicode="l" horiz-adv-x="249" d="M170 705q-1 -16 -2 -50.5t-1.5 -80t-0.5 -98.5v-107q0 -86 0.5 -145.5t1.5 -97.5t3 -56.5t5 -21.5q8 -9 20 -14t41 -10l-5 -28q-22 3 -52 5.5t-53 2.5t-55 -2t-53 -5l-3 27q21 4 38.5 10t26.5 18q3 5 5 29.5t3 65.5t1.5 96.5t0.5 121.5q0 105 -2.5 167t-7.5 70 q-6 9 -17.5 18.5t-40.5 17.5v20q21 5 44.5 14t43.5 17t33 14l13 6z" />
<glyph unicode="m" horiz-adv-x="783" d="M726 50q3 -7 11 -12q7 -5 18 -8.5t29 -4.5l-3 -28q-51 5 -77.5 5.5t-26.5 1.5q0 -1 -25.5 -1.5t-71.5 -5.5l-3 27q18 3 29.5 8t18.5 10q8 7 11 12q4 7 6.5 22t4.5 35t3 43t1 46t-1 43t-3 37q-4 38 -25 64t-61 26q-19 0 -37.5 -6.5t-34 -15.5t-25.5 -19.5t-12 -18.5 q-1 -48 -1.5 -102t-0.5 -106q0 -20 0.5 -34t2.5 -20q3 -7 11 -12q7 -5 18 -8.5t29 -4.5l-3 -26q-51 5 -77.5 5.5t-26.5 1.5q0 -1 -24.5 -1.5t-66.5 -5.5l-3 25q16 3 26 8t16 10q4 3 6.5 6t4.5 6q3 8 5.5 24t4.5 37t3 45.5t1 48.5q0 23 -1 43t-3 37q-5 35 -24 59.5t-57 24.5 q-17 0 -33.5 -5t-31.5 -12.5t-27 -16.5t-20 -17q-4 -4 -5.5 -11.5t-1.5 -12.5v-129q0 -45 1 -77t3 -39q4 -8 12 -12q7 -5 19 -9.5t32 -6.5l-3 -26q-24 3 -42.5 4t-31.5 2q-8 1 -14.5 1h-11.5h-11t-14 -1q-13 -1 -31 -2t-42 -4l-3 25q34 10 45 20q4 2 6.5 5t4.5 6 q3 6 4.5 38.5t1.5 72.5q0 24 -0.5 49t-1.5 45.5t-2 35t-2 18.5q-2 7 -9 15q-6 6 -17 13t-30 12v20q37 13 61.5 23.5t38.5 17.5q17 8 26 14l14 -4l-2 -43q-1 -5 -1 -11v-12l6 -3q30 24 54 38t42 21t30.5 9t18.5 2q42 0 71 -19t44 -53l7 -2q28 24 52.5 38.5t44 22.5t33 10.5 t19.5 2.5q51 0 83 -28.5t42 -68.5q3 -14 4 -28.5t1 -31.5q0 -42 -1.5 -82.5t-1.5 -76.5q0 -20 1 -36t3 -22z" />
<glyph unicode="n" horiz-adv-x="527" d="M455 50q4 -8 12 -12q7 -5 18.5 -8.5t31.5 -4.5l-3 -28q-54 5 -81 5.5t-27 1.5q0 -1 -25 -1.5t-70 -5.5l-3 27q17 3 28 8t18 10q8 7 11 12q3 7 6 22.5t4.5 35.5t2.5 43.5t1 47.5q0 43 -3 76q-11 89 -83 89q-53 0 -107 -42q-8 -6 -10 -13t-2 -17q-1 -26 -1 -63v-67 q0 -45 0.5 -78t3.5 -39q3 -7 12 -11q8 -5 20.5 -9t32.5 -6l-3 -26q-25 3 -44 4t-32 2q-8 1 -14.5 1h-11.5h-11t-14 -1q-13 -1 -31 -2t-42 -4l-3 25q34 10 45 20q4 2 6.5 5t4.5 6q3 6 4.5 38.5t1.5 72.5q0 24 -0.5 48.5t-1.5 45t-2 35t-2 19.5q-2 7 -9 15q-6 6 -17 13t-30 12 v20q37 14 61 24.5t38 18t19.5 11l5.5 3.5l12 -2v-71l5 -3q35 26 60.5 40.5t43 21t28.5 7.5t17 1q51 0 84.5 -30t41.5 -81q2 -11 2 -22.5v-22.5q0 -42 -1.5 -83t-1.5 -77q0 -21 1 -36t3 -21z" />
<glyph unicode="o" horiz-adv-x="500" d="M378 204q0 88 -36 138.5t-97 50.5q-54 0 -87.5 -46.5t-33.5 -122.5q0 -51 15.5 -96.5t41.5 -71.5q34 -33 79 -33q26 0 48 13.5t37.5 37.5t24 57.5t8.5 72.5zM462 218q0 -49 -16.5 -91t-45.5 -73t-67.5 -49t-83.5 -18q-42 0 -80 16.5t-67.5 46t-46.5 70t-17 89.5 q0 48 16.5 88.5t46 70t69.5 45.5t88 16q44 0 81.5 -15t64.5 -42.5t42.5 -66.5t15.5 -87z" />
<glyph unicode="p" horiz-adv-x="527" d="M376 79q16 23 25 58t9 73v11.5t-1 11.5q-3 29 -15 53t-30 41.5t-41.5 27t-48.5 9.5q-59 0 -102 -45q-2 -35 -2 -76.5v-70.5v-77q3 -16 14 -28.5t26 -21.5t32 -13.5t33 -4.5q29 0 56 13t45 39zM172 445v-79l8 -2q43 32 73.5 46.5t56.5 14.5q29 0 60 -12t56.5 -36t42 -59 t16.5 -81q0 -62 -20 -107.5t-52 -76t-71 -45.5t-76 -15q-26 0 -51.5 4t-44.5 11q0 -34 0.5 -68t1 -62.5t2.5 -48t5 -24.5q5 -7 12 -11q13 -11 51 -15l-3 -25l-84 6q-8 1 -15 1h-12h-11t-13 -1q-12 -1 -29 -2t-40 -3l-3 24q18 5 28.5 8.5t16 6.5t8 6.5t4.5 7.5q3 4 4.5 26.5 t2 54t0.5 66.5v63v119q0 21 -0.5 52.5t-1 61.5t-2.5 53.5t-5 29.5t-11 11q-7 5 -18 10.5t-28 9.5v20q35 15 59 26.5t39 19.5q9 5 16.5 9t12.5 8z" />
<glyph unicode="q" horiz-adv-x="503" d="M422 452l14 -4q0 -24 -0.5 -50.5t-0.5 -49.5v-26t-1 -27q-1 -36 -1.5 -76t-1 -81.5t-0.5 -82v-77.5q0 -69 1 -114.5t4 -51.5q4 -7 10 -11q13 -11 46 -17l-3 -29l-75 6q-8 1 -14.5 1h-11.5h-12.5t-15.5 -1q-14 -1 -36.5 -3t-54.5 -5l-3 27q27 4 43.5 10.5t25.5 11.5 q11 6 15 13q2 3 3 24t2 54t1 76v89l-7 2q-27 -33 -66.5 -50.5t-73.5 -17.5q-27 0 -57 11.5t-55.5 35.5t-42 60t-16.5 85q0 46 14.5 85t38.5 68.5t53.5 49.5t59.5 29t61 9q26 0 51.5 -4.5t51.5 -11.5zM248 388q-26 0 -50 -12t-42.5 -34t-29.5 -53.5t-11 -70.5q0 -36 10 -67 t27.5 -53t41 -34.5t50.5 -12.5q26 0 53 12t45 35q5 7 8 15.5t4.5 20.5t1.5 29v41q0 20 -0.5 45t-2.5 51q-2 23 -15.5 43.5t-30.5 29.5q-29 15 -59 15z" />
<glyph unicode="r" horiz-adv-x="360" d="M180 322q7 13 15.5 27.5t18 27.5t19 24t17.5 17q6 5 9.5 6t10.5 1q13 0 28.5 -3t29 -7.5t23 -9t9.5 -7.5q0 -9 -4.5 -20t-10.5 -21.5t-13.5 -17.5t-13.5 -7q-14 0 -32.5 11t-37.5 11q-9 0 -18.5 -7t-18 -18.5t-15.5 -25t-12 -26.5q-3 -8 -4.5 -17t-2.5 -18 q-2 -6 -2 -25.5v-43.5q0 -19 0.5 -39t1.5 -37t2.5 -28.5t3.5 -13.5q5 -6 23.5 -17.5t59.5 -13.5l-3 -27q-32 3 -55.5 4t-38.5 2q-18 1 -28 1q-11 0 -26 -1q-13 -1 -31.5 -2t-44.5 -4l-3 27q20 3 31.5 8t18.5 10q8 5 11 11q2 3 3.5 16t2 32t1 41.5t0.5 46.5q0 44 -1.5 81 t-3.5 45q-3 8 -10 15q-6 6 -18 12.5t-32 10.5v22q36 13 59 22.5t37 16.5q16 8 25 15l13 -3v-103l7 -1v0z" />
<glyph unicode="s" horiz-adv-x="374" d="M252 229q39 -23 57.5 -53t18.5 -61q0 -20 -8.5 -43t-26.5 -42t-45.5 -31.5t-66.5 -12.5q-26 0 -44 5t-33 10q-12 5 -25 5q-4 0 -7 -0.5t-8 -1.5q-4 16 -8 35q-8 35 -14 92l29 5q6 -22 16 -42.5t24.5 -36t33 -24.5t39.5 -9q31 0 53 17t22 49q0 17 -12 34.5t-34 31.5 l-82 49q-43 26 -57 55.5t-14 55.5q0 20 7.5 40.5t24 36.5t41.5 26t60 10q11 0 23 -1q11 -1 25 -3t31 -6l28 -2l15 -113l-29 -5q-4 16 -11.5 33t-19.5 31t-28.5 23t-37.5 9q-29 0 -46 -16t-17 -42q0 -35 40 -58l86 -50v0z" />
<glyph unicode="t" horiz-adv-x="314" d="M30 356l-3 28q22 8 39 17t32.5 24t29.5 38t30 60l21 -2q-1 -4 -2.5 -17t-2.5 -29.5t-2 -33.5t-1 -29h133l-7 -56h-129q-6 -90 -6 -166q0 -31 0.5 -55t2.5 -36q3 -22 12.5 -36.5t30.5 -14.5q8 0 30.5 6t50.5 32l13 -35q-38 -32 -72.5 -46t-63.5 -14q-38 0 -60.5 25.5 t-22.5 76.5q0 45 3 111.5t8 151.5h-64z" />
<glyph unicode="u" horiz-adv-x="516" d="M166 415q-1 -10 -3 -34.5t-3.5 -56.5t-3 -68t-1.5 -69q0 -24 1 -46t3 -35q5 -26 24 -43t53 -17q21 0 39.5 7t33.5 18t25.5 25t16.5 29q4 8 4.5 16t0.5 16q0 71 -1 122.5t-3 62.5q-1 5 -10 14q-7 6 -20.5 11.5t-37.5 10.5v22q38 3 64 7t43 7l31 7l14 -6q-1 -9 -2.5 -32 t-2.5 -53t-1.5 -63.5t-0.5 -64.5q0 -51 1.5 -79.5t9.5 -36.5q7 -7 19 -13.5t35 -11.5v-19q-29 -7 -52 -16t-40 -17q-10 -5 -18 -9.5t-15 -9.5l-14 6v69l-8 3q-85 -79 -152 -79q-39 0 -72 23.5t-41 65.5q-3 14 -4 30.5t-1 33.5q0 14 0.5 34.5t1.5 44t1.5 46.5t0.5 42 q0 18 -1 29t-6.5 17.5t-17 10.5t-32.5 9v22q35 5 59 9.5l40 7.5l30 7z" />
<glyph unicode="v" horiz-adv-x="451" d="M283 413q20 -2 39.5 -3t39.5 -1q41 0 96 6l2 -23q-15 -6 -24 -10.5t-16 -10t-11.5 -12t-10.5 -16.5q-1 -1 -2.5 -3.5t-6.5 -13.5l-15 -33t-28 -61t-46 -99t-68 -147h-23l-144 345q-5 12 -9.5 20.5t-12 15t-19 12.5t-30.5 12l3 25q31 -4 64.5 -5.5t65.5 -1.5q46 0 80 3 l2 -26q-37 -7 -48 -12.5t-11 -18.5q0 -7 4 -22t9 -27q10 -29 21.5 -61t22.5 -61t20 -52.5t14 -35.5h7q8 18 18.5 42.5t22 53t23 59t21.5 59.5q4 11 7.5 22.5t3.5 19.5q0 14 -16 21t-48 12z" />
<glyph unicode="w" horiz-adv-x="738" d="M396 418l8 -2q9 -33 24 -79t32.5 -93t34 -87.5t27.5 -61.5h7q45 102 68.5 166t23.5 87q0 15 -14 23.5t-48 13.5l2 27q42 -3 82 -3q51 0 95 6l2 -26q-26 -8 -39.5 -18t-27.5 -36q-8 -15 -22.5 -46t-34 -76t-44.5 -101.5t-54 -122.5h-39l-107 266h-13l-127 -266h-36 q-10 29 -26.5 76t-35 97.5t-36 97t-29.5 73.5q-5 12 -11 20.5t-14 15t-19.5 11.5t-27.5 9l3 26q32 -3 61.5 -4t57.5 -1q56 0 100 3v-27q-35 -5 -46 -13.5t-11 -19.5q0 -9 6.5 -36t17.5 -63.5t24.5 -78t28.5 -79.5h7q39 84 70.5 160t47.5 149z" />
<glyph unicode="x" horiz-adv-x="480" d="M229 385q-14 -2 -22 -5.5t-12 -8t-5 -8.5t-1 -7q0 -5 6 -16.5t15 -26.5t19.5 -31t19.5 -30h4q12 13 26 29t26 31t19.5 27t7.5 16q0 2 -1 6.5t-5.5 9t-13 8.5t-24.5 7l3 26q29 -3 63 -3q23 0 47.5 1t47.5 5l3 -30q-9 -2 -17.5 -5.5t-16.5 -7.5q-9 -4 -16 -9 q-9 -6 -25.5 -23t-35.5 -38t-38 -42.5t-31 -36.5q54 -79 85.5 -121t49.5 -54q8 -5 17 -9q8 -4 18 -7.5t21 -5.5l-3 -30q-54 6 -115 6q-49 0 -94 -3l-2 26q16 3 25 6.5t13.5 7.5t5.5 8t1 8q0 5 -6.5 18.5t-16.5 31t-21.5 36t-21.5 32.5h-5q-13 -15 -28.5 -33t-29 -35 t-22.5 -30.5t-9 -19.5q0 -7 6.5 -15t36.5 -15l-1 -26q-43 3 -73 3q-23 0 -47 -1.5t-46 -3.5l-4 28q26 9 43 17.5t36 26t46 48.5t72 83q-9 14 -27 40t-37 52t-35.5 47t-23.5 25q-8 6 -17 10q-8 4 -18 7t-22 5l3 29q19 -2 37 -3.5t32 -2.5q17 -1 33 -1t33 1q14 1 32 1t35 2z " />
<glyph unicode="y" horiz-adv-x="477" d="M210 -11q-29 77 -51.5 134t-40 98t-30 67.5t-21.5 42.5q-8 15 -14.5 24t-14.5 14.5t-19 9.5t-27 9l6 29q20 -3 38.5 -4.5t33.5 -2.5q9 -1 17.5 -1h16.5h16.5t17.5 1q15 1 34.5 1.5t39.5 2.5l1 -26q-19 -3 -29.5 -7.5t-16 -9.5t-6.5 -9t-1 -7q0 -4 2 -17.5t11 -43.5 t27 -80.5t49 -128.5h7q12 27 24 58t23.5 61t20.5 56.5t15 44.5q2 7 4 16.5t2 19.5q0 18 -12 28t-54 18l2 27q18 -2 36.5 -2.5t33.5 -1.5q9 -1 17 -1h16h14.5t15.5 1q30 2 70 6l3 -28q-18 -4 -30 -8t-20.5 -10.5t-15.5 -16.5t-16 -26q-14 -27 -33 -68t-40 -87.5t-42 -94.5 t-39 -89.5t-31 -71.5t-18 -41q-19 -41 -39.5 -66t-39 -38t-33 -17t-20.5 -4q-19 0 -33 10.5t-14 32.5q0 3 2 11q3 11 15 23q42 0 68 14t37 25q6 6 12.5 14.5t14 22t17 34.5t21.5 52z" />
<glyph unicode="z" horiz-adv-x="441" d="M415 128q-14 -38 -21 -63t-11 -39q-4 -17 -5 -26q-28 2 -62 2h-71q-30 0 -59.5 -0.5t-56 -1t-49.5 -1t-39 -1.5l-7 24l254 350l-1 6q-10 1 -28 1h-36t-35 -0.5t-30 -2.5q-30 -5 -54 -27.5t-44 -65.5l-24 9l48 135l67 -16l232 5l7 -29l-251 -343l2 -7q10 -1 29.5 -1h41.5 q18 0 35 0.5t29 2.5q39 4 64 25.5t49 71.5z" />
<glyph unicode="{" horiz-adv-x="272" d="M118 273q28 -13 45.5 -29t27 -32.5t12.5 -32.5t3 -28q0 -23 -7.5 -50.5t-16.5 -55.5t-16.5 -54t-7.5 -46q0 -14 4.5 -33.5t15 -37.5t28 -30.5t42.5 -12.5l-7 -29q-59 10 -93 31t-50.5 42.5t-20.5 40t-4 23.5q0 25 10.5 52.5t23 55.5t23 55t10.5 51q0 10 -3.5 25 t-12.5 30.5t-24.5 29.5t-39.5 21v15q30 8 45.5 26t23.5 38q9 23 10 48q0 25 -10.5 48.5t-23 47t-23 46.5t-10.5 48q0 5 4.5 22.5t21.5 38.5t50.5 41t92.5 29l4 -27q-27 -6 -43.5 -17.5t-26.5 -25t-13.5 -27.5t-3.5 -23q0 -19 7 -41t15.5 -47t15.5 -51t7 -52q-1 -21 -10 -42 q-8 -18 -25 -37.5t-50 -34.5l1 -12z" />
<glyph unicode="|" horiz-adv-x="205" d="M128 -236l-40 -15l-13 2q5 117 8 244.5t3 262.5q0 125 -2 241.5t-7 205.5h51v-941z" />
<glyph unicode="}" horiz-adv-x="272" d="M154 261q-28 13 -45.5 27t-27 28t-12.5 27.5t-3 25.5q0 23 7.5 49t16.5 52t16.5 50.5t7.5 44.5q0 14 -4.5 33.5t-15 37.5t-27.5 30.5t-43 12.5l7 29q59 -8 93 -28.5t50.5 -43t20.5 -41.5t4 -24q0 -25 -10.5 -51t-23 -52t-23 -51.5t-10.5 -49.5q0 -10 3.5 -22.5 t12.5 -25.5t24.5 -24.5t39.5 -19.5v-15q-24 -12 -39.5 -25.5t-24.5 -28.5t-12 -30.5t-3 -32.5q0 -20 10.5 -46.5t23 -55t23 -56.5t10.5 -51q0 -6 -5.5 -24t-23.5 -39t-51.5 -40t-88.5 -28l-4 27q27 6 43.5 17.5t26.5 25t13.5 27.5t3.5 23q0 19 -7 45t-15.5 55t-15.5 59 t-7 56q1 21 10 42q8 18 25.5 37.5t49.5 34.5l-1 12z" />
<glyph unicode="~" horiz-adv-x="600" d="M395 170q-23 0 -46.5 8t-47.5 17t-48 17t-48 8q-35 0 -63.5 -17t-51.5 -44l-23 22q22 27 44.5 50t43 39.5t38 26t27.5 9.5q24 0 50.5 -7.5t53.5 -16.5t53.5 -16.5t48.5 -7.5q33 0 54.5 14t43.5 42l21 -22q-34 -63 -75 -92.5t-75 -29.5z" />
<glyph unicode="&#xa1;" horiz-adv-x="280" d="M160 -207q0 -14 -16 -28.5t-46 -14.5q-15 0 -26.5 5t-19 12t-11.5 14.5t-4 11.5l52 405h25l46 -405v0zM104 434q24 0 41.5 -17t17.5 -42q0 -24 -17.5 -41t-41.5 -17t-41.5 17t-17.5 41q0 25 17.5 42t41.5 17z" />
<glyph unicode="&#xa2;" horiz-adv-x="400" d="M328 351q-11 0 -15 10t-12 21q-8 12 -19 22.5t-31 14.5l-33 -278q4 -1 8 -1h8q29 0 59.5 17t52.5 43l12 -25q-12 -13 -26.5 -27.5t-32 -26.5t-39 -20t-48.5 -10l-36 -296h-37q5 35 10.5 86t10.5 98q6 55 12 114q-27 5 -52 18.5t-44.5 34t-31.5 47.5t-12 60 q0 39 12.5 72.5t35.5 60t55 43.5t72 23q3 41 7 79q3 32 5.5 66t3.5 57l41 7l15 -6l-24 -201q20 0 40 -4t36.5 -10t26.5 -12.5t10 -12.5q0 -26 -14 -45t-26 -19zM178 147q3 29 6.5 64.5t7 71.5t6.5 71t6 64q-38 -6 -65 -39q-13 -17 -21.5 -41t-11.5 -62q0 -22 5 -42.5 t14.5 -38t23 -30t29.5 -18.5z" />
<glyph unicode="&#xa3;" horiz-adv-x="550" d="M218 339l207 7l3 -13l-34 -40q-38 5 -79 6.5t-97 1.5v38zM206 301l-191 -9l-4 13l34 42q19 -2 36 -3.5t35.5 -2.5t40 -1.5t49.5 -0.5v-38zM515 105q-21 -36 -40 -59.5t-35.5 -37t-29 -19t-20.5 -5.5q-26 0 -58 14.5t-64 32t-62 32t-51 14.5q-11 0 -17.5 -13t-11.5 -29 q-6 -18 -13 -33t-18 -15q-12 0 -24.5 6t-22.5 16t-16 23.5t-6 27.5q0 11 23 21.5t53 18.5q10 12 20 30.5t16 44.5q11 43 14.5 83.5t5.5 77.5t5 70.5t12 62.5q12 38 34 68.5t50 52t60 33t65 11.5q28 0 50 -7t37.5 -18t23.5 -25t8 -28q0 -18 -15 -30.5t-34 -12.5q-12 0 -24 6 q-2 13 -6.5 26t-13 23.5t-22 17.5t-32.5 7q-44 0 -67 -28.5t-31 -70.5q-4 -23 -7 -55t-6 -66t-6 -65.5t-8 -54.5q-4 -20 -9.5 -35.5t-14.5 -31.5t-23 -33.5t-34 -40.5l4 -5q23 5 42.5 7t27.5 2q21 0 46.5 -8t50.5 -17.5t46.5 -17.5t34.5 -8q21 0 43.5 12t45.5 45z" />
<glyph unicode="&#xa4;" horiz-adv-x="700" d="M679 53v-19l-84 -55l-89 107q-33 -23 -72.5 -35.5t-83.5 -12.5q-47 0 -90.5 15.5t-79.5 44.5l-80 -114h-29l-34 52l104 100q-29 34 -45.5 77.5t-16.5 95.5q0 48 14 89.5t40 76.5l-103 81v19l84 55l80 -97q33 23 73.5 36t86.5 13q54 0 100 -17.5t80 -49.5l75 110h29 l34 -52l-103 -99q23 -33 36 -74t13 -87q0 -50 -14.5 -93t-40.5 -77zM566 321q0 47 -16.5 87.5t-45 70t-66.5 46t-81 16.5q-44 0 -81.5 -16.5t-65.5 -45t-43.5 -67.5t-15.5 -85q0 -49 17 -90t45.5 -69.5t66 -44.5t79.5 -16q46 0 83.5 15.5t64.5 44t42.5 67.5t16.5 87z" />
<glyph unicode="&#xa5;" horiz-adv-x="550" d="M597 586q-12 -2 -23 -9t-20 -15q-5 -5 -10 -9.5t-10 -9.5q-12 -14 -30 -37t-38.5 -51.5t-41.5 -59.5t-39 -59h124l-11 -39q-23 1 -48 0.5t-45 -0.5h-45v-91h149l-8 -35h-95h-23.5t-22.5 -1q0 -42 1.5 -70.5t6.5 -36.5q6 -9 17 -17q9 -7 24.5 -12t38.5 -6l-3 -31 q-32 2 -55.5 2.5t-40.5 1.5q-10 1 -18 1h-16h-15t-17 -1q-16 -1 -38 -1.5t-51 -2.5l-3 28q22 0 36.5 5.5t23.5 13.5q11 9 17 20q5 8 6.5 38t1.5 68q-53 -1 -97.5 -3t-61.5 -5l4 44h155v70l-13 20q-51 -1 -90.5 -2.5t-55.5 -4.5l4 47h114q-19 27 -41 58t-43 60t-39.5 53.5 t-30.5 38.5q-4 5 -9 9.5t-10 9.5q-18 17 -46 21l2 30q23 -2 43 -3.5t35 -2.5q9 -1 17 -1h16h16.5t17.5 1q34 2 85 6l2 -29q-20 -3 -32.5 -8.5t-18.5 -10.5t-10 -14q-2 -9 14.5 -38t39.5 -64t46 -67.5t34 -48.5h20q10 15 31.5 47.5t43 67t37 63.5t14.5 38q-1 6 -9 14 q-6 6 -19 12t-37 9l3 29q22 -2 41.5 -3.5t34.5 -2.5q9 -1 17 -1h15h15t14 1q12 1 26 2.5t25 3.5z" />
<glyph unicode="&#xa6;" horiz-adv-x="205" d="M83 313q-1 107 -3 210.5t-6 181.5h57v-392h-48zM131 163v-399l-46 -15l-13 2q5 99 7.5 199.5t3.5 212.5h48z" />
<glyph unicode="&#xa7;" horiz-adv-x="580" d="M508 51q0 -24 -7.5 -51.5t-21.5 -54t-34 -50t-44 -39.5q-8 -23 -24.5 -42t-38 -32.5t-46 -21t-47.5 -7.5q-22 0 -42 3t-36 8.5t-25 12t-9 12.5q0 12 7 22t17 18t21 12.5t19 4.5q7 0 10 -3q3 -8 7 -17t11 -17.5t18 -14t26 -5.5q18 0 31.5 7t22.5 18t13.5 24t4.5 26 q0 51 -34 95q-15 21 -46 53.5t-64.5 68.5t-63 70.5t-42.5 59.5q-25 47 -34 85t-9 80q0 24 7.5 51.5t21.5 54t34 50t44 39.5q8 23 24.5 42t38 32.5t46 21t48.5 7.5q22 0 42 -3t35.5 -8.5t25 -12t9.5 -12.5q0 -12 -7.5 -22t-18 -18t-22 -12.5t-19.5 -4.5q-6 0 -9 3 q-3 7 -7 15.5t-10.5 15.5t-16.5 12t-25 5q-34 0 -52.5 -20.5t-18.5 -47.5q0 -48 33 -92q15 -20 45.5 -53t63.5 -70t62.5 -72.5t42.5 -60.5q26 -47 34.5 -85t8.5 -80zM462 26q0 40 -12.5 71t-35.5 64q-17 26 -50 63t-67.5 74t-64 67.5t-39.5 43.5q-31 39 -40 91q-1 8 -6 8 q-3 0 -11.5 -6t-17.5 -19t-16.5 -33.5t-7.5 -48.5q0 -40 13 -71t35 -64q17 -26 50 -63.5t68 -74.5t64.5 -67.5t38.5 -42.5q15 -20 25 -41t15 -47q1 -9 8 -9q4 0 12.5 6.5t17 20t15 33t6.5 45.5z" />
<glyph unicode="&#xa8;" horiz-adv-x="500" d="M154 615q21 0 35.5 -14.5t14.5 -35.5q0 -20 -14.5 -34.5t-35.5 -14.5q-22 0 -36.5 14.5t-14.5 34.5q0 21 14.5 35.5t36.5 14.5zM337 615q21 0 35.5 -14.5t14.5 -35.5q0 -20 -14.5 -34.5t-35.5 -14.5q-22 0 -36.5 14.5t-14.5 34.5q0 21 14.5 35.5t36.5 14.5z" />
<glyph unicode="&#xa9;" horiz-adv-x="716" d="M371 683q77 0 142.5 -25t112.5 -71.5t73.5 -112.5t26.5 -147q0 -73 -28 -138t-76 -113t-112.5 -76t-138.5 -28q-73 0 -138 28t-113 76t-76 113t-28 139q0 81 28 146.5t76 112t113 71.5t138 25zM404 12q61 7 110 33.5t83.5 67t53 93.5t18.5 112q0 71 -19.5 131t-57 103.5 t-91.5 68t-122 24.5q-69 0 -125.5 -24t-96.5 -66t-62 -99t-22 -122q0 -68 24.5 -127t65.5 -102.5t96 -68.5t116 -25h14.5t14.5 1zM512 521q10 -29 15 -48.5t8 -32.5q4 -15 4 -24l-25 -5q-5 11 -9 19t-8 14q-4 7 -8 12q-12 17 -34.5 31t-69.5 14q-18 0 -39.5 -7.5t-39.5 -26 t-30.5 -49t-12.5 -76.5q0 -82 38 -132.5t104 -50.5q23 0 42.5 9.5t33.5 25.5q4 5 9 13q10 15 24 46l27 -7l-25 -93q-17 -12 -38 -19t-40 -10q-22 -4 -44 -4q-38 0 -77 13t-71 40t-52 68.5t-20 98.5q0 45 16.5 80t42.5 60t58.5 40t64.5 19q23 3 42 3q60 0 114 -21z" />
<glyph unicode="&#xaa;" horiz-adv-x="334" d="M334 416q-13 -14 -26.5 -20.5t-24.5 -10.5q-13 -4 -25 -5q-11 0 -24.5 12t-18.5 31h-5q-5 -5 -16 -13t-24.5 -15t-27 -12t-24.5 -5t-23 4.5t-21.5 13t-16 21.5t-6.5 30q0 18 9 35t26 28q7 5 20.5 10t29.5 10.5t33.5 12t32.5 13.5q9 4 9 9q0 20 -3 41q-2 16 -15.5 27 t-37.5 11q-16 0 -23 -8.5t-11 -19t-6.5 -19t-8.5 -8.5q-20 0 -33 12t-13 26q0 6 14.5 15t34.5 17.5t42.5 14t38.5 5.5q20 0 41.5 -10t32.5 -25q8 -11 10 -24.5t2 -27.5q0 -9 -0.5 -21.5t-1 -26.5l-1 -28t-0.5 -25q0 -20 1 -35.5t3 -20.5q3 -7 6.5 -10t11.5 -4q2 0 9 2t20 10 zM209 526q0 3 -4 3q-3 0 -14 -4.5t-23.5 -11.5t-24 -15t-16.5 -14q-5 -5 -6.5 -11.5t-1.5 -13.5q0 -19 10.5 -27.5t24.5 -8.5q16 0 30 9t22 18q3 5 3 12v64z" />
<glyph unicode="&#xab;" horiz-adv-x="432" d="M208 85l-15 -20l-173 174v17l173 172l15 -21l-98 -145zM402 85l-15 -20l-173 174v17l173 172l15 -21l-98 -145z" />
<glyph unicode="&#xac;" horiz-adv-x="755" d="M649 350l7 -8q-1 -23 -1.5 -49t-0.5 -57q0 -41 1.5 -80.5t3.5 -70.5l-85 -7l-12 10q2 12 4 29.5t3.5 38t2 42.5t0.5 41q0 16 -0.5 29.5t-1.5 22.5q-42 5 -113.5 7.5t-151.5 2.5q-72 0 -141.5 -1.5t-118.5 -3.5l-6 12q1 0 4.5 6.5t8.5 14.5q5 10 12 21h585z" />
<glyph unicode="&#xad;" horiz-adv-x="322" />
<glyph unicode="&#xae;" horiz-adv-x="441" d="M236 713q43 0 79 -14t62 -39.5t40.5 -61.5t14.5 -81q0 -40 -15.5 -76t-42 -62.5t-62 -42t-76.5 -15.5q-40 0 -76 15.5t-62.5 42t-42 62.5t-15.5 76q0 45 15.5 81t42 61.5t62.5 39.5t76 14zM254 347q29 3 54 16t45 34l-1 3q-15 1 -32 6.5t-32 23.5q-4 5 -10.5 13.5 t-13.5 16.5t-12 15t-7 9q-5 6 -9.5 8t-10.5 2q-7 0 -10 -1q0 -27 0.5 -39.5t2.5 -16.5q2 -3 6 -7q6 -6 23 -9l-2 -19q-11 1 -22.5 1.5t-23.5 0.5q-14 0 -28.5 -0.5t-26.5 -1.5l-3 19q14 1 21 8q4 4 6 7t2.5 22t0.5 44v32t-0.5 29t-1 22t-1.5 11q0 3 -4 6q-3 2 -8.5 5 t-16.5 4l2 19q28 2 48 2.5t33 1.5q15 1 25 0q13 0 30.5 -2t28.5 -7q31 -17 31 -48q0 -21 -15.5 -37.5t-33.5 -27.5l-1 -4q11 -11 25 -31t25 -34q8 -10 16.5 -16t13.5 -8q2 0 3 2q13 20 20 43t7 49q0 37 -11.5 69t-32 56t-50 37.5t-65.5 13.5t-65.5 -13t-51.5 -35.5t-34 -53 t-12 -66.5t12.5 -68t34.5 -55.5t51.5 -37.5t63.5 -14h8.5t8.5 1zM286 568q0 15 -8 27.5t-29 14.5q-7 0 -17.5 -0.5t-13.5 -2.5q-2 -4 -2.5 -31t-0.5 -59q3 0 6 -0.5t8 -0.5q8 0 15.5 0.5t12.5 2.5q12 6 20.5 19t8.5 30z" />
<glyph unicode="&#xaf;" horiz-adv-x="788" d="M573 601l-5 -49l-321 -11l-6 14l29 46h303z" />
<glyph unicode="&#xb0;" horiz-adv-x="283" d="M131 685q60 0 97 -34.5t37 -92.5q0 -29 -10.5 -54t-29 -43t-43.5 -28t-53 -10q-26 0 -50.5 9.5t-43.5 26.5t-30.5 41t-11.5 53t10.5 53t29 41.5t43.5 27.5t55 10zM128 651q-35 0 -58 -25t-23 -67q0 -46 25.5 -73.5t59.5 -27.5q35 0 57 26.5t22 67.5q0 46 -24.5 72.5 t-58.5 26.5z" />
<glyph unicode="&#xb1;" horiz-adv-x="650" d="M576 337l5 -11l-13 -41q-29 2 -63.5 3t-63.5 2q-34 1 -68 1v-170h-92q3 45 4.5 76t3.5 52q2 25 2 41q-34 0 -70 -1q-31 -1 -69.5 -2.5t-78.5 -3.5l-6 11l26 43h198q0 28 -1 60q-1 27 -3 61t-6 68l86 12l14 -4l-8 -197h203zM599 59l-6 -59q-42 2 -99 2.5t-122 0.5 q-81 0 -166 -1.5t-158 -4.5l-5 14l19 49z" />
<glyph unicode="&#xb2;" horiz-adv-x="320" d="M282 392q-18 2 -35 2.5t-30 1.5q-15 1 -29 0q-14 0 -33 -1q-17 -1 -40 -2t-54 -4l-5 28q53 45 81.5 78.5t42 58.5t15.5 41t2 26q0 22 -15.5 33.5t-35.5 11.5q-12 0 -32.5 -8t-47.5 -39l-20 19q19 29 40 44.5t39 23t30.5 8.5l12.5 1q18 0 35.5 -5.5t31 -16.5t21.5 -27.5 t8 -39.5q0 -41 -33 -80t-92 -92l2 -5q28 0 47.5 0.5t31.5 1.5q14 1 23 2q8 2 20.5 19.5t17.5 34.5l22 -7q-13 -53 -17 -80q-3 -16 -4 -28z" />
<glyph unicode="&#xb3;" horiz-adv-x="320" d="M182 387q-14 -3 -26 -4t-23 -1q-14 0 -28.5 3t-26 8.5t-19 12.5t-7.5 16q0 20 10.5 35t24.5 15q4 0 7.5 -9.5t10.5 -20.5t18 -20.5t29 -9.5q21 0 41.5 19t20.5 57q0 29 -17 43.5t-40 14.5q-5 0 -13.5 -0.5t-14.5 -2.5l-5 25q11 8 33 15q19 11 25 22.5t6 28.5 q0 22 -13.5 34.5t-32.5 12.5q-29 0 -43 -18t-20 -39l-12 -1l-8 69q17 9 34.5 14t32.5 7q18 3 34 3q43 0 68.5 -20.5t25.5 -47.5q0 -17 -11.5 -34t-39.5 -33v-4q34 -4 57 -27.5t23 -52.5q0 -45 -27.5 -72.5t-73.5 -37.5z" />
<glyph unicode="&#xb4;" horiz-adv-x="500" d="M288 662q16 0 31 -4q13 -3 25 -10t20 -21l-127 -145l-25 7z" />
<glyph unicode="&#xb5;" horiz-adv-x="534" d="M549 103q-4 -22 -16 -42.5t-27.5 -37t-32.5 -26.5t-31 -10q-24 0 -42 24t-18 64l-6 2q-91 -88 -169 -88q-20 0 -36 10t-24 24l-8 -2q2 -56 5 -92.5t8 -59.5t11.5 -34.5t14.5 -16.5q0 -11 -8 -21.5t-21 -19t-29 -15.5t-32 -12l-16 7q2 8 5 44.5t5 88t3.5 112.5t1.5 118 q0 45 -0.5 90t-1.5 82t-2.5 62.5t-4.5 30.5q5 6 16 12.5t24 12.5t25 11t19 7l14 -5q-1 -10 -3 -36t-4 -60t-3.5 -72t-1.5 -71q0 -24 1 -44t3 -33q5 -26 25 -42t52 -16q36 0 69.5 19t53.5 41q6 7 7.5 17t3.5 16q-2 49 -2 112v137q5 4 13.5 9t18.5 9.5t19.5 8t16.5 6.5l10 -6 q0 -181 4.5 -270.5t22.5 -89.5q13 0 24.5 15.5t20.5 39.5z" />
<glyph unicode="&#xb6;" horiz-adv-x="660" d="M227 292q15 -4 37 -4q20 0 39.5 2.5t22.5 5.5v72v95t-1 68.5t-2.5 47t-4.5 29.5q-5 17 -12.5 20t-21.5 3q-41 0 -72 -14t-52.5 -37.5t-32.5 -53.5t-11 -62q0 -66 28.5 -111.5t82.5 -60.5zM438 168v181.5t-1 126t-3 80.5t-6 45t-10 19.5t-14 4.5q-7 0 -17 -0.5t-13 -5.5 q-4 -7 -6 -69t-2 -195v-162.5t0.5 -144.5t1.5 -136t2 -137l-16 -13l-46 -2q-20 -1 -43.5 -2.5t-46.5 -3.5l-1 29q46 7 71.5 20.5t29.5 52.5q3 31 5 60.5t2.5 62.5t1 72.5t0.5 92.5v105h-53q-36 0 -80.5 11t-83.5 37t-65.5 68t-26.5 105q0 43 17.5 80.5t51 65.5t82 43.5 t111.5 15.5q33 0 73 -1t82.5 -3t85 -4.5t79.5 -5.5l1 -27q-32 -1 -50.5 -7t-27.5 -13q-11 -8 -14 -18q-1 -6 -2.5 -52t-2.5 -114.5t-1.5 -151t-0.5 -162.5q0 -60 0.5 -113t2 -93.5t3.5 -65.5t5 -29q7 -10 20.5 -18.5t42.5 -12.5l-3 -26q-12 1 -30 2t-37 1.5t-37.5 0.5h-32.5 l-5 11q2 4 3.5 22.5t2 62t1 118.5t0.5 192z" />
<glyph unicode="&#xb7;" horiz-adv-x="244" d="M122 189q-26 0 -44.5 18.5t-18.5 44.5q0 27 18.5 45.5t44.5 18.5q27 0 45.5 -18.5t18.5 -45.5q0 -26 -18.5 -44.5t-45.5 -18.5z" />
<glyph unicode="&#xb8;" horiz-adv-x="500" d="M262 6l-23 -49l3 -5q29 -2 45.5 -11t24.5 -20.5t10 -21.5t2 -13q0 -21 -10 -39t-25.5 -31.5t-35.5 -21t-41 -7.5q-14 0 -28 3q-12 2 -25.5 7t-24.5 15l9 21q16 -9 35.5 -12.5t31.5 -3.5q18 0 37.5 11t19.5 34q0 16 -12.5 26.5t-38.5 10.5q-12 0 -27 -3l-5 7l42 78l-7 19z " />
<glyph unicode="&#xb9;" horiz-adv-x="282" d="M257 390q-29 2 -48.5 2.5t-30.5 1.5q-13 1 -20 1q-7 1 -21 0q-12 -1 -32.5 -1.5t-52.5 -2.5l-3 23q46 7 60.5 18t16.5 26t2 42.5v56.5t-2 46.5t-8 25.5t-23 9t-45 1l-2 24q40 10 66 20t43 18q19 10 30 20l16 -14q-4 -8 -7 -24.5t-4.5 -37t-2 -43.5t-0.5 -46 q0 -45 1.5 -73t3.5 -36q2 -9 17.5 -18t47.5 -14l-2 -25v0z" />
<glyph unicode="&#xba;" horiz-adv-x="361" d="M187 676q68 0 107 -39t39 -103q0 -32 -11 -59.5t-31 -47.5t-47 -31.5t-59 -11.5q-30 0 -57 11t-48 31t-33 47t-12 59t11 58.5t31 45.5t48 29.5t62 10.5zM260 521q0 57 -20 91t-55 34q-32 0 -53 -28.5t-21 -74.5q0 -28 6 -51.5t16.5 -41t25 -27t30.5 -9.5q34 0 52.5 32 t18.5 75z" />
<glyph unicode="&#xbb;" horiz-adv-x="432" d="M224 407l15 21l173 -175v-17l-173 -171l-15 20l98 146zM30 407l15 21l173 -175v-17l-173 -171l-15 20l98 146z" />
<glyph unicode="&#xbc;" horiz-adv-x="794" d="M679 105v-105h-78q2 22 2.5 41t1.5 33q1 17 1 31h-175l-8 52q15 20 31 41.5t30 39.5q16 21 32 40q13 17 31 36q15 17 35.5 39t44.5 46l52 -4v-248q9 0 20 1q19 1 50 3q-3 -25 -6 -36q-2 -6 -3 -10h-61zM608 146q5 47 6 95t1 81l-6 2q-15 -15 -28.5 -29t-23.5 -25 q-11 -13 -21 -24q-12 -14 -24 -29q-11 -13 -24 -29.5t-26 -33.5l1 -6q15 0 32 -1q14 -1 32.5 -1.5t37.5 -0.5h22t21 1zM406 300q-39 -52 -79 -106q-34 -46 -73.5 -100.5t-74.5 -104.5l-54 14l537 713l50 -20q-60 -75 -114.5 -145.5t-97.5 -126.5q-50 -65 -94 -124zM299 313 q-31 4 -66.5 5.5t-72.5 1.5q-31 0 -61.5 -2t-60.5 -6l-3 25q37 8 58 13t32 18q12 14 14 44t2 90v27q0 32 -0.5 57t-2.5 30q-2 3 -7 6q-5 2 -14 3.5t-26 1.5q-19 0 -49 -3l-3 24q52 13 84 24.5t50 19.5q21 10 31 18l25 -17q-6 -13 -9.5 -28t-5.5 -28q-3 -15 -3 -29 q-1 -35 -1.5 -71.5t-0.5 -67.5v-47q0 -23 1.5 -35.5t9.5 -20.5q9 -9 27.5 -14t53.5 -12l-2 -27v0z" />
<glyph unicode="&#xbd;" horiz-adv-x="794" d="M620 163q16 23 26.5 49t10.5 52q0 22 -6.5 37t-17 24t-23 13t-24.5 4q-4 0 -12 -1t-18.5 -5.5t-22.5 -15t-25 -28.5l-25 18q16 26 35 42t38.5 25t39 12t35.5 3q20 0 39.5 -7.5t35 -20.5t25 -30.5t9.5 -38.5q0 -25 -10.5 -49t-30.5 -51t-50.5 -58.5t-70.5 -69.5l1 -6 q22 1 51 2q25 1 59.5 2.5t76.5 4.5q-2 -17 -3.5 -30.5t-3.5 -21.5q-3 -10 -5 -17q-19 1 -38 1.5t-35 0.5h-35q-18 0 -41 -1q-20 -1 -48 -1.5t-64 -2.5l-6 28q33 28 57.5 52.5t41.5 43.5q19 22 34 41zM406 300q-39 -52 -79 -106q-34 -46 -73.5 -100.5t-74.5 -104.5l-54 14 l537 713l50 -20q-60 -75 -114.5 -145.5t-97.5 -126.5q-50 -65 -94 -124zM299 313q-31 4 -66.5 5.5t-72.5 1.5q-31 0 -61.5 -2t-60.5 -6l-3 25q37 8 58 13t32 18q12 14 14 44t2 90v27q0 32 -0.5 57t-2.5 30q-2 3 -7 6q-5 2 -14 3.5t-26 1.5q-19 0 -49 -3l-3 24q52 13 84 24.5 t50 19.5q21 10 31 18l25 -17q-6 -13 -9.5 -28t-5.5 -28q-3 -15 -3 -29q-1 -35 -1.5 -71.5t-0.5 -67.5v-47q0 -23 1.5 -35.5t9.5 -20.5q9 -9 27.5 -14t53.5 -12l-2 -27v0z" />
<glyph unicode="&#xbe;" horiz-adv-x="794" d="M121 531q5 3 16.5 6.5t24.5 4.5q29 15 38.5 33t9.5 38q0 27 -19 42t-43 15q-16 0 -27.5 -5t-19.5 -13.5t-13 -19t-9 -22.5l-11 -1l-11 77q20 8 40 12t37 6q19 3 38 2q55 0 83 -21.5t28 -51.5q0 -20 -14 -43t-50 -42v-5q21 0 39.5 -8t32 -21t21 -30t7.5 -35 q0 -12 -6.5 -36t-26 -47.5t-55.5 -41t-95 -17.5q-18 0 -34.5 4.5t-29.5 11t-20.5 15t-7.5 17.5q0 26 14 41t28 15q5 -17 11.5 -28.5t12.5 -19.5q7 -9 13 -13q7 -5 17.5 -7t19.5 -2q14 0 29 6.5t27 19t19.5 30t7.5 40.5q0 16 -5.5 30t-17.5 25q-13 11 -28 14.5t-29 3.5 q-11 0 -20 -1t-17 -3zM416 300q-39 -52 -79 -106q-34 -46 -73.5 -100.5t-74.5 -104.5l-54 14l537 713l50 -20q-60 -75 -114.5 -145.5t-97.5 -126.5q-50 -65 -94 -124zM689 105v-105h-78q2 22 2.5 41t1.5 33q1 17 1 31h-175l-8 52q18 24 43.5 56.5t53.5 66t56 65t51 54.5 l52 -4v-248q9 0 20 1q19 1 50 3q-3 -25 -6 -36q-2 -6 -3 -10h-61zM618 146q5 47 6 95t1 81l-6 2q-10 -10 -31 -33t-43.5 -49.5t-43 -51t-29.5 -36.5l1 -6q15 0 32 -1q14 -1 32.5 -1.5t37.5 -0.5h22t21 1z" />
<glyph unicode="&#xbf;" horiz-adv-x="340" d="M224 -250q-37 0 -76 14.5t-71.5 41.5t-53.5 64.5t-21 83.5q0 48 16 75.5t40.5 45t55 31t58.5 32.5q4 4 8 9q7 11 7 31q0 15 -6 36l26 5q14 -29 21 -48.5t10 -31.5q4 -14 4 -21q0 -9 -10 -22t-29 -23q-8 -4 -30 -12.5t-46.5 -18.5t-47 -21t-31.5 -21q-7 -8 -7 -28 q0 -25 13 -48.5t35.5 -42t52 -30t61.5 -11.5q20 0 35 4.5t30 13.5q8 -2 11.5 -10.5t3.5 -20.5t-4 -25.5t-11.5 -25t-18.5 -19t-25 -7.5zM193 433q24 0 41.5 -17t17.5 -41q0 -25 -17.5 -42t-41.5 -17t-41.5 17t-17.5 42q0 24 17.5 41t41.5 17z" />
<glyph unicode="&#xc0;" horiz-adv-x="696" d="M322 713l-119 116q13 14 30 21.5t34 11.5q19 4 40 5l58 -144zM236 -3q-28 3 -53 4t-44 2q-22 1 -41 1q-18 0 -36 -1q-15 -1 -31.5 -2t-30.5 -4l-4 29q23 7 38 14q9 4 17 9q14 9 28.5 30t26.5 48q5 12 16.5 43t33 91.5t54.5 156.5t81 239l109 8q36 -103 64.5 -183t51 -141 t39 -105t28.5 -74q28 -70 40 -91q9 -10 20 -20q10 -8 23 -15.5t30 -9.5l-4 -29q-28 3 -53 4t-44 2q-22 1 -41 1t-40 -1q-18 -1 -41 -2t-48 -4l-2 28q27 4 44 9.5t26.5 12t12.5 13.5t3 14q0 8 -3 20.5t-9.5 32.5t-17 49t-25.5 70q-23 2 -59.5 3t-74.5 1q-40 0 -73.5 -1 t-50.5 -3q-15 -41 -25 -70.5t-15.5 -49.5t-8 -32.5t-2.5 -20.5q0 -5 2.5 -12t12.5 -13.5t28.5 -12.5t49.5 -10zM222 304q14 -1 30.5 -1.5t31.5 -0.5h34h37q17 0 36 0.5t39 1.5v1l2 6l-102 265h-11q-20 -48 -37.5 -95t-31.5 -85q-17 -45 -31 -85z" />
<glyph unicode="&#xc1;" horiz-adv-x="696" d="M411 858q20 0 38 -4q15 -3 29.5 -9t19.5 -17l-169 -123l-31 9zM236 -3q-28 3 -53 4t-44 2q-22 1 -41 1q-18 0 -36 -1q-15 -1 -31.5 -2t-30.5 -4l-4 29q23 7 38 14q9 4 17 9q14 9 28.5 30t26.5 48q5 12 16.5 43t33 91.5t54.5 156.5t81 239l109 8q36 -103 64.5 -183 t51 -141t39 -105t28.5 -74q28 -70 40 -91q9 -10 20 -20q10 -8 23 -15.5t30 -9.5l-4 -29q-28 3 -53 4t-44 2q-22 1 -41 1t-40 -1q-18 -1 -41 -2t-48 -4l-2 28q27 4 44 9.5t26.5 12t12.5 13.5t3 14q0 8 -3 20.5t-9.5 32.5t-17 49t-25.5 70q-23 2 -59.5 3t-74.5 1 q-40 0 -73.5 -1t-50.5 -3q-15 -41 -25 -70.5t-15.5 -49.5t-8 -32.5t-2.5 -20.5q0 -5 2.5 -12t12.5 -13.5t28.5 -12.5t49.5 -10zM222 304q14 -1 30.5 -1.5t31.5 -0.5h34h37q17 0 36 0.5t39 1.5v1l2 6l-102 265h-11q-20 -48 -37.5 -95t-31.5 -85q-17 -45 -31 -85z" />
<glyph unicode="&#xc2;" horiz-adv-x="696" d="M326 784l-107 -76l-15 7l129 146h16l129 -146l-17 -9zM236 -3q-28 3 -53 4t-44 2q-22 1 -41 1q-18 0 -36 -1q-15 -1 -31.5 -2t-30.5 -4l-4 29q23 7 38 14q9 4 17 9q14 9 28.5 30t26.5 48q5 12 16.5 43t33 91.5t54.5 156.5t81 239l109 8q36 -103 64.5 -183t51 -141 t39 -105t28.5 -74q28 -70 40 -91q9 -10 20 -20q10 -8 23 -15.5t30 -9.5l-4 -29q-28 3 -53 4t-44 2q-22 1 -41 1t-40 -1q-18 -1 -41 -2t-48 -4l-2 28q27 4 44 9.5t26.5 12t12.5 13.5t3 14q0 8 -3 20.5t-9.5 32.5t-17 49t-25.5 70q-23 2 -59.5 3t-74.5 1q-40 0 -73.5 -1 t-50.5 -3q-15 -41 -25 -70.5t-15.5 -49.5t-8 -32.5t-2.5 -20.5q0 -5 2.5 -12t12.5 -13.5t28.5 -12.5t49.5 -10zM222 304q14 -1 30.5 -1.5t31.5 -0.5h34h37q17 0 36 0.5t39 1.5v1l2 6l-102 265h-11q-20 -48 -37.5 -95t-31.5 -85q-17 -45 -31 -85z" />
<glyph unicode="&#xc3;" horiz-adv-x="696" d="M236 -3q-28 3 -53 4t-44 2q-22 1 -41 1q-18 0 -36 -1q-15 -1 -31.5 -2t-30.5 -4l-4 29q23 7 38 14q9 4 17 9q14 9 28.5 30t26.5 48q5 12 17 43.5t33.5 94t55.5 161.5t84 246l97 13q37 -106 66.5 -189t52.5 -146t40.5 -108.5t29.5 -76.5q29 -73 41 -94q9 -10 20 -20 q10 -8 23 -15.5t30 -9.5l-4 -29q-28 3 -53 4t-44 2q-22 1 -41 1t-40 -1q-18 -1 -41 -2t-48 -4l-2 28q27 4 44 9.5t26.5 12t12.5 13.5t3 14q0 8 -3 20.5t-9.5 32.5t-17 49t-25.5 70q-23 2 -59.5 3t-74.5 1q-40 0 -73.5 -1t-50.5 -3q-15 -41 -25 -70.5t-15.5 -49.5t-8 -32.5 t-2.5 -20.5q0 -5 2.5 -12t12.5 -13.5t28.5 -12.5t49.5 -10zM222 304q14 -1 30.5 -1.5t31.5 -0.5h34h37q17 0 36 0.5t39 1.5v1l2 6l-102 265h-11q-20 -48 -37.5 -95t-31.5 -85q-17 -45 -31 -85zM183 733q33 46 63.5 73.5t50.5 27.5q14 0 33.5 -5t40 -10.5t38.5 -10.5t29 -5 q26 0 45.5 10.5t35.5 33.5l18 -19q-30 -50 -60.5 -72.5t-50.5 -22.5q-17 0 -34 5t-34 10.5t-34.5 10.5t-35.5 5q-52 0 -84 -50z" />
<glyph unicode="&#xc4;" horiz-adv-x="696" d="M236 -3q-28 3 -53 4t-44 2q-22 1 -41 1q-18 0 -36 -1q-15 -1 -31.5 -2t-30.5 -4l-4 29q23 7 38 14q9 4 17 9q14 9 28.5 30t26.5 48q5 12 17 43.5t33.5 94t55.5 161.5t84 246l97 13q37 -106 66.5 -189t52.5 -146t40.5 -108.5t29.5 -76.5q29 -73 41 -94q9 -10 20 -20 q10 -8 23 -15.5t30 -9.5l-4 -29q-28 3 -53 4t-44 2q-22 1 -41 1t-40 -1q-18 -1 -41 -2t-48 -4l-2 28q27 4 44 9.5t26.5 12t12.5 13.5t3 14q0 8 -3 20.5t-9.5 32.5t-17 49t-25.5 70q-23 2 -59.5 3t-74.5 1q-40 0 -73.5 -1t-50.5 -3q-15 -41 -25 -70.5t-15.5 -49.5t-8 -32.5 t-2.5 -20.5q0 -5 2.5 -12t12.5 -13.5t28.5 -12.5t49.5 -10zM222 304q14 -1 30.5 -1.5t31.5 -0.5h34h37q17 0 36 0.5t39 1.5v1l2 6l-102 265h-11q-20 -48 -37.5 -95t-31.5 -85q-17 -45 -31 -85zM219 825q20 0 34.5 -14.5t14.5 -34.5t-14.5 -34.5t-34.5 -14.5t-34.5 14.5 t-14.5 34.5t14.5 34.5t34.5 14.5zM486 825q20 0 34.5 -14.5t14.5 -34.5t-14.5 -34.5t-34.5 -14.5t-34.5 14.5t-14.5 34.5t14.5 34.5t34.5 14.5z" />
<glyph unicode="&#xc5;" horiz-adv-x="696" d="M236 -3q-28 3 -53 4t-44 2q-22 1 -41 1q-18 0 -36 -1q-15 -1 -31.5 -2t-30.5 -4l-4 29q23 7 38 14q9 4 17 9q14 9 28.5 30t26.5 48q5 12 16.5 43t33 91.5t54.5 156.5t81 239l109 8q36 -103 64.5 -183t51 -141t39 -105t28.5 -74q28 -70 40 -91q9 -10 20 -20 q10 -8 23 -15.5t30 -9.5l-4 -29q-28 3 -53 4t-44 2q-22 1 -41 1t-40 -1q-18 -1 -41 -2t-48 -4l-2 28q27 4 44 9.5t26.5 12t12.5 13.5t3 14q0 8 -3 20.5t-9.5 32.5t-17 49t-25.5 70q-23 2 -59.5 3t-74.5 1q-40 0 -73.5 -1t-50.5 -3q-15 -41 -25 -70.5t-15.5 -49.5t-8 -32.5 t-2.5 -20.5q0 -5 2.5 -12t12.5 -13.5t28.5 -12.5t49.5 -10zM222 304q14 -1 30.5 -1.5t31.5 -0.5h34h37q17 0 36 0.5t39 1.5v1l2 6l-102 265h-11q-20 -48 -37.5 -95t-31.5 -85q-17 -45 -31 -85zM339 825q41 0 69.5 -26t28.5 -64q0 -18 -7.5 -34.5t-21 -28.5t-31.5 -19t-38 -7 q-21 0 -39 7t-31.5 19t-21 28.5t-7.5 34.5q0 38 28.5 64t70.5 26zM344 677q21 2 35.5 18t14.5 39q0 27 -17 43t-38 16q-26 0 -40.5 -16.5t-14.5 -39.5q0 -29 17.5 -44.5t42.5 -15.5z" />
<glyph unicode="&#xc6;" horiz-adv-x="951" d="M915 166q-4 -37 -10 -67t-11 -52q-6 -26 -12 -45q-22 -2 -48.5 -3t-63.5 -1q-34 0 -63 0.5t-55 1.5t-50 1.5t-49 0.5q-26 0 -55 -1.5t-63 -3.5l-2 28q48 10 61.5 23.5t13.5 32.5q0 8 -2.5 23.5t-9 41.5t-17 64t-25.5 92q-37 -1 -71.5 -3t-64 -3.5t-51 -3t-32.5 -2.5 q-30 -67 -46.5 -106.5t-24.5 -62t-9.5 -33t-1.5 -21.5q0 -4 3 -10t11 -12t23.5 -11.5t40.5 -8.5l-5 -28q-29 3 -53.5 4t-42.5 2q-21 1 -39 1q-16 0 -33 -1q-14 -1 -30.5 -2t-30.5 -4l-2 28q22 4 41 15t37 37q9 11 27.5 45t41.5 80t48.5 99.5t48.5 103t42 90t28 61.5 q8 19 11.5 31t3.5 27q0 5 -7 11.5t-37 12.5l2 26q28 -2 53 -2.5t44 -1.5q22 -1 41 -1q54 0 108.5 0.5t100 0.5t76.5 0.5t38 0.5h27t27 -2l35 -143l-27 -4q-4 16 -13.5 33t-24 32t-35.5 25.5t-49 13.5q-20 2 -47.5 3t-57.5 1q-21 0 -41.5 -0.5t-37.5 -1t-29 -1.5t-17 -2 q15 -51 35.5 -123t42.5 -147q53 2 88.5 3.5t58.5 4t36 5t20 5.5q9 5 20.5 16.5t14.5 34.5h24q-2 -17 -2 -32v-29q0 -33 3.5 -63.5t12.5 -60.5l-25 -3q-9 29 -18 45t-26.5 24t-46.5 10t-79 2h-17t-24 -1q-14 -1 -29 -1q29 -101 50 -164t34 -76q14 -14 43.5 -17.5t66.5 -3.5 q28 0 48.5 3t37.5 15.5t32.5 38t33.5 70.5zM257 340q23 0 73.5 0.5t112.5 2.5q-10 35 -21 74q-10 33 -22 75.5t-26 87.5h-8q-14 -26 -33 -67.5t-36 -79.5q-20 -45 -40 -93z" />
<glyph unicode="&#xc7;" horiz-adv-x="692" d="M263 602q-41 -27 -70 -69.5t-42 -96.5q-8 -37 -8 -79q0 -18 1.5 -35t3.5 -31q9 -61 32.5 -110t60.5 -83.5t85.5 -53.5t108.5 -19q48 0 89 13t68 41q0 -1 16.5 21t39.5 78l25 -7q-7 -43 -13 -70.5t-9.5 -42.5t-5.5 -20l-2 -5q-34 -23 -85 -38t-115 -17l-14 -32l3 -5 q29 -1 45 -9.5t24 -19.5t10 -21.5t2 -13.5q0 -21 -10 -38t-25.5 -29.5t-35.5 -19.5t-41 -7q-14 0 -28 3q-12 2 -25.5 7t-24.5 15l9 21q16 -9 35.5 -12.5t31.5 -3.5q9 0 19 2.5t18.5 7.5t14 13t5.5 19q0 34 -52 34q-12 0 -27 -3l-5 7l38 72l-5 12q-66 3 -132.5 26t-120 68.5 t-87 113.5t-33.5 161q0 54 17 101.5t46 87.5t67 70t81 48t92 25.5t94 7.5q34 0 72 -4q32 -3 73.5 -10t85.5 -20q5 -39 7.5 -67t4.5 -47q2 -22 2 -37l-27 -5q-2 16 -7 28.5t-10 22.5q-6 11 -13 20q-21 27 -71.5 50.5t-134.5 23.5q-38 0 -75.5 -8t-72.5 -31z" />
<glyph unicode="&#xc8;" horiz-adv-x="644" d="M43 662q25 -2 58.5 -3t71.5 -1q19 0 57 0.5t79.5 1.5t77 1.5t50.5 0.5q58 0 122 -3l17 -156l-27 -3q-4 15 -10.5 34t-17.5 36t-26.5 29.5t-37.5 14.5q-20 2 -48.5 2.5t-57.5 0.5q-21 0 -41.5 -0.5t-37.5 -1t-29 -1t-16 -1.5q-1 -7 -2.5 -26.5t-2.5 -47t-1.5 -62 t-0.5 -70.5v-44h13.5t33.5 0.5t44.5 1t46.5 1.5t39 2.5t22 3.5q9 4 16 7.5t13 10t11.5 18t12.5 30.5l24 -3q-8 -45 -9 -68.5t-1 -24.5t1 -27.5t7 -73.5l-26 -3q-3 26 -12 41.5t-19 24.5q-11 11 -25 15q-9 2 -28 3.5t-42.5 2.5t-47.5 1h-43h-31v-77.5t0.5 -71.5t2 -59 t3.5 -41q1 -6 5 -13t9 -9q9 -3 25 -5t35.5 -3.5t41 -2t42.5 -0.5q32 0 58.5 2t35.5 6q31 14 58 45.5t42 73.5l30 -5v1q-9 -47 -16.5 -78t-13.5 -51q-7 -23 -12 -36q-25 -2 -52.5 -3t-62.5 -1q-20 0 -55 0.5t-74 1.5t-77.5 1.5t-66.5 0.5q-12 0 -30 -0.5t-37 -1.5t-35.5 -1.5 t-27.5 -1.5q0 6 -1 11t-1.5 9.5t-0.5 6.5q20 2 34.5 10t23.5 16q11 10 18 21q3 5 4.5 27.5t2.5 57t1.5 78t0.5 88.5q0 48 -0.5 94t-1 83.5t-1.5 62.5t-3 30q0 1 -3.5 6.5t-12.5 12.5t-25 14t-43 11q0 7 1.5 17t1.5 9zM342 700l-119 116q13 14 30 21.5t34 11.5q19 4 40 5 l58 -144z" />
<glyph unicode="&#xc9;" horiz-adv-x="644" d="M43 662q25 -2 58.5 -3t71.5 -1q19 0 57 0.5t79.5 1.5t77 1.5t50.5 0.5q58 0 122 -3l17 -156l-27 -3q-4 15 -10.5 34t-17.5 36t-26.5 29.5t-37.5 14.5q-20 2 -48.5 2.5t-57.5 0.5q-21 0 -41.5 -0.5t-37.5 -1t-29 -1t-16 -1.5q-1 -7 -2.5 -26.5t-2.5 -47t-1.5 -62 t-0.5 -70.5v-44h13.5t33.5 0.5t44.5 1t46.5 1.5t39 2.5t22 3.5q9 4 16 7.5t13 10t11.5 18t12.5 30.5l24 -3q-8 -45 -9 -68.5t-1 -24.5t1 -27.5t7 -73.5l-26 -3q-3 26 -12 41.5t-19 24.5q-11 11 -25 15q-9 2 -28 3.5t-42.5 2.5t-47.5 1h-43h-31v-77.5t0.5 -71.5t2 -59 t3.5 -41q1 -6 5 -13t9 -9q9 -3 25 -5t35.5 -3.5t41 -2t42.5 -0.5q32 0 58.5 2t35.5 6q31 14 58 45.5t42 73.5l30 -5v1q-9 -47 -16.5 -78t-13.5 -51q-7 -23 -12 -36q-25 -2 -52.5 -3t-62.5 -1q-20 0 -55 0.5t-74 1.5t-77.5 1.5t-66.5 0.5q-12 0 -30 -0.5t-37 -1.5t-35.5 -1.5 t-27.5 -1.5q0 6 -1 11t-1.5 9.5t-0.5 6.5q20 2 34.5 10t23.5 16q11 10 18 21q3 5 4.5 27.5t2.5 57t1.5 78t0.5 88.5q0 48 -0.5 94t-1 83.5t-1.5 62.5t-3 30q0 1 -3.5 6.5t-12.5 12.5t-25 14t-43 11q0 7 1.5 17t1.5 9zM403 858q20 0 38 -4q15 -3 29.5 -9t19.5 -17l-169 -123 l-31 9z" />
<glyph unicode="&#xca;" horiz-adv-x="644" d="M43 662q25 -2 58.5 -3t71.5 -1q19 0 57 0.5t79.5 1.5t77 1.5t50.5 0.5q58 0 122 -3l17 -156l-27 -3q-4 15 -10.5 34t-17.5 36t-26.5 29.5t-37.5 14.5q-20 2 -48.5 2.5t-57.5 0.5q-21 0 -41.5 -0.5t-37.5 -1t-29 -1t-16 -1.5q-1 -7 -2.5 -26.5t-2.5 -47t-1.5 -62 t-0.5 -70.5v-44h13.5t33.5 0.5t44.5 1t46.5 1.5t39 2.5t22 3.5q9 4 16 7.5t13 10t11.5 18t12.5 30.5l24 -3q-8 -45 -9 -68.5t-1 -24.5t1 -27.5t7 -73.5l-26 -3q-3 26 -12 41.5t-19 24.5q-11 11 -25 15q-9 2 -28 3.5t-42.5 2.5t-47.5 1h-43h-31v-77.5t0.5 -71.5t2 -59 t3.5 -41q1 -6 5 -13t9 -9q9 -3 25 -5t35.5 -3.5t41 -2t42.5 -0.5q32 0 58.5 2t35.5 6q31 14 58 45.5t42 73.5l30 -5v1q-9 -47 -16.5 -78t-13.5 -51q-7 -23 -12 -36q-25 -2 -52.5 -3t-62.5 -1q-20 0 -55 0.5t-74 1.5t-77.5 1.5t-66.5 0.5q-12 0 -30 -0.5t-37 -1.5t-35.5 -1.5 t-27.5 -1.5q0 6 -1 11t-1.5 9.5t-0.5 6.5q20 2 34.5 10t23.5 16q11 10 18 21q3 5 4.5 27.5t2.5 57t1.5 78t0.5 88.5q0 48 -0.5 94t-1 83.5t-1.5 62.5t-3 30q0 1 -3.5 6.5t-12.5 12.5t-25 14t-43 11q0 7 1.5 17t1.5 9zM326 784l-107 -76l-15 7l129 146h16l129 -146l-17 -9z " />
<glyph unicode="&#xcb;" horiz-adv-x="644" d="M43 662q25 -2 58.5 -3t71.5 -1q19 0 57 0.5t79.5 1.5t77 1.5t50.5 0.5q58 0 122 -3l17 -156l-27 -3q-4 15 -10.5 34t-17.5 36t-26.5 29.5t-37.5 14.5q-20 2 -48.5 2.5t-57.5 0.5q-21 0 -41.5 -0.5t-37.5 -1t-29 -1t-16 -1.5q-1 -7 -2.5 -26.5t-2.5 -47t-1.5 -62 t-0.5 -70.5v-44h13.5t33.5 0.5t44.5 1t46.5 1.5t39 2.5t22 3.5q9 4 16 7.5t13 10t11.5 18t12.5 30.5l24 -3q-8 -45 -9 -68.5t-1 -24.5t1 -27.5t7 -73.5l-26 -3q-3 26 -12 41.5t-19 24.5q-11 11 -25 15q-9 2 -28 3.5t-42.5 2.5t-47.5 1h-43h-31v-77.5t0.5 -71.5t2 -59 t3.5 -41q1 -6 5 -13t9 -9q9 -3 25 -5t35.5 -3.5t41 -2t42.5 -0.5q32 0 58.5 2t35.5 6q31 14 58 45.5t42 73.5l30 -5v1q-9 -47 -16.5 -78t-13.5 -51q-7 -23 -12 -36q-25 -2 -52.5 -3t-62.5 -1q-20 0 -55 0.5t-74 1.5t-77.5 1.5t-66.5 0.5q-12 0 -30 -0.5t-37 -1.5t-35.5 -1.5 t-27.5 -1.5q0 6 -1 11t-1.5 9.5t-0.5 6.5q20 2 34.5 10t23.5 16q11 10 18 21q3 5 4.5 27.5t2.5 57t1.5 78t0.5 88.5q0 48 -0.5 94t-1 83.5t-1.5 62.5t-3 30q0 1 -3.5 6.5t-12.5 12.5t-25 14t-43 11q0 7 1.5 17t1.5 9zM443 825q20 0 34.5 -14.5t14.5 -34.5t-14.5 -34.5 t-34.5 -14.5t-34.5 14.5t-14.5 34.5t14.5 34.5t34.5 14.5zM248 825q20 0 34.5 -14.5t14.5 -34.5t-14.5 -34.5t-34.5 -14.5t-34.5 14.5t-14.5 34.5t14.5 34.5t34.5 14.5z" />
<glyph unicode="&#xcc;" horiz-adv-x="354" d="M309 -1q-32 2 -57.5 2.5t-42.5 1.5q-20 1 -36 1t-36 -1q-17 -1 -40.5 -1.5t-52.5 -2.5l-3 27q21 2 36 8t24 14q11 9 17 19q3 5 4.5 30t3 62.5t2 84.5t0.5 95t-0.5 93t-1.5 81t-3 59.5t-5 28.5q-5 8 -21 19.5t-57 18.5l3 26q62 -4 100 -6q21 -1 38 -1q16 0 36 1 q17 1 40.5 2.5t49.5 3.5l3 -27q-26 -4 -41.5 -11.5t-24 -15t-11 -13l-2.5 -5.5q-3 -6 -4.5 -33t-3 -67t-2 -88.5t-0.5 -97.5q0 -43 0.5 -84t1.5 -74t2.5 -55t3.5 -28q4 -9 15 -17q9 -7 25.5 -12.5t42.5 -7.5zM176 704l-119 116q13 14 30 21.5t34 11.5q19 4 40 5l58 -144z " />
<glyph unicode="&#xcd;" horiz-adv-x="354" d="M309 -1q-32 2 -57.5 2.5t-42.5 1.5q-20 1 -36 1t-36 -1q-17 -1 -40.5 -1.5t-52.5 -2.5l-3 27q21 2 36 8t24 14q11 9 17 19q3 5 4.5 30t3 62.5t2 84.5t0.5 95t-0.5 93t-1.5 81t-3 59.5t-5 28.5q-5 8 -21 19.5t-57 18.5l3 26q62 -4 100 -6q21 -1 38 -1q16 0 36 1 q17 1 40.5 2.5t49.5 3.5l3 -27q-26 -4 -41.5 -11.5t-24 -15t-11 -13l-2.5 -5.5q-3 -6 -4.5 -33t-3 -67t-2 -88.5t-0.5 -97.5q0 -43 0.5 -84t1.5 -74t2.5 -55t3.5 -28q4 -9 15 -17q9 -7 25.5 -12.5t42.5 -7.5zM255 858q20 0 38 -4q15 -3 29.5 -9t19.5 -17l-169 -123l-31 9z " />
<glyph unicode="&#xce;" horiz-adv-x="354" d="M309 -1q-32 2 -57.5 2.5t-42.5 1.5q-20 1 -36 1t-36 -1q-17 -1 -40.5 -1.5t-52.5 -2.5l-3 27q21 2 36 8t24 14q11 9 17 19q3 5 4.5 30t3 62.5t2 84.5t0.5 95t-0.5 93t-1.5 81t-3 59.5t-5 28.5q-5 8 -21 19.5t-57 18.5l3 26q62 -4 100 -6q21 -1 38 -1q16 0 36 1 q17 1 40.5 2.5t49.5 3.5l3 -27q-26 -4 -41.5 -11.5t-24 -15t-11 -13l-2.5 -5.5q-3 -6 -4.5 -33t-3 -67t-2 -88.5t-0.5 -97.5q0 -43 0.5 -84t1.5 -74t2.5 -55t3.5 -28q4 -9 15 -17q9 -7 25.5 -12.5t42.5 -7.5zM154 784l-107 -76l-15 7l129 146h16l129 -146l-17 -9z" />
<glyph unicode="&#xcf;" horiz-adv-x="354" d="M309 -1q-32 2 -57.5 2.5t-42.5 1.5q-20 1 -36 1t-36 -1q-17 -1 -40.5 -1.5t-52.5 -2.5l-3 27q21 2 36 8t24 14q11 9 17 19q3 5 4.5 30t3 62.5t2 84.5t0.5 95t-0.5 93t-1.5 81t-3 59.5t-5 28.5q-5 8 -21 19.5t-57 18.5l3 26q62 -4 100 -6q21 -1 38 -1q16 0 36 1 q17 1 40.5 2.5t49.5 3.5l3 -27q-26 -4 -41.5 -11.5t-24 -15t-11 -13l-2.5 -5.5q-3 -6 -4.5 -33t-3 -67t-2 -88.5t-0.5 -97.5q0 -43 0.5 -84t1.5 -74t2.5 -55t3.5 -28q4 -9 15 -17q9 -7 25.5 -12.5t42.5 -7.5zM288 825q20 0 34.5 -14.5t14.5 -34.5t-14.5 -34.5t-34.5 -14.5 t-34.5 14.5t-14.5 34.5t14.5 34.5t34.5 14.5zM58 825q20 0 34.5 -14.5t14.5 -34.5t-14.5 -34.5t-34.5 -14.5t-34.5 14.5t-14.5 34.5t14.5 34.5t34.5 14.5z" />
<glyph unicode="&#xd0;" horiz-adv-x="842" d="M413 -5q-43 0 -94.5 3.5t-97.5 3.5q-13 0 -33.5 -0.5t-41.5 -1.5t-39 -1.5t-27 -1.5l-3 27q20 2 34.5 10t24.5 16q11 10 18 21q2 4 3.5 21.5t2.5 45t1.5 62.5t0.5 73v50q-27 0 -55.5 -1t-53.5 -2.5t-44.5 -3.5t-28.5 -4l-8 15l62 61h14q4 -9 21 -17q5 -2 15 -3.5t23 -2 t27 -0.5h27q0 41 -1 79.5t-2 69.5t-2 51t-2 25q0 1 -3.5 7t-13.5 13t-28.5 13.5t-48.5 8.5l1 26q37 3 77.5 5t80 4t77.5 3t69 1q42 0 81 -3.5t68 -9.5q66 -13 116.5 -45.5t85 -76.5t52.5 -95.5t18 -103.5q0 -85 -30 -149t-81.5 -107t-119 -64.5t-142.5 -21.5zM376 299 q-4 10 -20 19q-3 1 -12.5 2t-24 1.5t-32 1t-35.5 0.5q0 -89 2 -151.5t7 -81.5q5 -17 15.5 -27t23.5 -15q14 -5 41 -7.5t55 -2.5q79 0 133.5 22.5t88.5 60.5t49 88.5t15 106.5q0 64 -15 121.5t-63 103.5q-41 39 -99 62.5t-131 23.5q-16 0 -48.5 -1.5t-66.5 -8.5q-1 -6 -1 -12 t-1 -11t-1 -11q-2 -33 -3 -90.5t-1 -126.5q29 1 59.5 2t56.5 2t45 2.5t26 2.5l9 -15l-62 -61h-10z" />
<glyph unicode="&#xd1;" horiz-adv-x="848" d="M37 662q25 -2 52 -3.5t54 -1.5q42 0 76 3l441 -512l8 2v193v118.5t-1.5 75t-3.5 42.5t-7 21q-5 8 -25.5 18.5t-62.5 13.5l3 30q29 -2 60 -3.5t63 -1.5t62 1.5t57 3.5l3 -27q-30 -5 -48.5 -16.5t-24.5 -19.5q-2 -2 -4 -8t-4 -25t-4 -57t-3.5 -104t-2.5 -166.5t-2 -244.5 l-48 -8l-479 555l-7 -3q-1 -48 -1 -87.5v-74.5q0 -73 0.5 -124t1.5 -85t2.5 -53.5t3 -30t3 -14.5t3.5 -7q4 -7 24 -18t63 -15l-3 -30q-31 2 -61 3t-60 1q-32 0 -63 -1t-59 -3l-3 27q31 5 48 16t25 19q6 6 9.5 35.5t5.5 73.5t2.5 97t0.5 106q0 38 -0.5 73t-1.5 63.5 t-2.5 48.5t-3.5 28q-6 24 -31.5 34t-57.5 15zM264 733q33 46 63.5 73.5t50.5 27.5q14 0 33.5 -5t40 -10.5t38.5 -10.5t29 -5q26 0 45.5 10.5t35.5 33.5l18 -19q-30 -50 -60.5 -72.5t-50.5 -22.5q-17 0 -34 5t-34 10.5t-34.5 10.5t-35.5 5q-52 0 -84 -50z" />
<glyph unicode="&#xd2;" horiz-adv-x="791" d="M32 336q0 78 27.5 143t76 111t116.5 71.5t149 25.5q79 0 144 -25t111.5 -70.5t72.5 -109.5t26 -141q0 -79 -28 -146t-76.5 -116t-114.5 -76.5t-142 -27.5q-71 0 -136.5 27t-115.5 75t-80 114t-30 145zM240 594q-47 -37 -73.5 -97.5t-26.5 -140.5q0 -76 21.5 -138 t58.5 -105.5t86 -67t104 -23.5q53 0 98 21.5t77.5 61t50.5 94.5t18 122q0 95 -35 166.5t-93 110.5q-32 21 -68 32.5t-75 11.5q-83 0 -143 -48zM382 714l-119 116q13 14 30 21.5t34 11.5q19 4 40 5l58 -144z" />
<glyph unicode="&#xd3;" horiz-adv-x="791" d="M32 336q0 78 27.5 143t76 111t116.5 71.5t149 25.5q79 0 144 -25t111.5 -70.5t72.5 -109.5t26 -141q0 -79 -28 -146t-76.5 -116t-114.5 -76.5t-142 -27.5q-71 0 -136.5 27t-115.5 75t-80 114t-30 145zM240 594q-47 -37 -73.5 -97.5t-26.5 -140.5q0 -76 21.5 -138 t58.5 -105.5t86 -67t104 -23.5q53 0 98 21.5t77.5 61t50.5 94.5t18 122q0 95 -35 166.5t-93 110.5q-32 21 -68 32.5t-75 11.5q-83 0 -143 -48zM467 868q20 0 38 -4q15 -3 29.5 -9t19.5 -17l-169 -123l-31 9z" />
<glyph unicode="&#xd4;" horiz-adv-x="791" d="M32 336q0 78 27.5 143t76 111t116.5 71.5t149 25.5q79 0 144 -25t111.5 -70.5t72.5 -109.5t26 -141q0 -79 -28 -146t-76.5 -116t-114.5 -76.5t-142 -27.5q-71 0 -136.5 27t-115.5 75t-80 114t-30 145zM240 594q-47 -37 -73.5 -97.5t-26.5 -140.5q0 -76 21.5 -138 t58.5 -105.5t86 -67t104 -23.5q53 0 98 21.5t77.5 61t50.5 94.5t18 122q0 95 -35 166.5t-93 110.5q-32 21 -68 32.5t-75 11.5q-83 0 -143 -48zM388 794l-107 -76l-15 7l129 146h16l129 -146l-17 -9z" />
<glyph unicode="&#xd5;" horiz-adv-x="791" d="M32 336q0 78 27.5 143t76 111t116.5 71.5t149 25.5q79 0 144 -25t111.5 -70.5t72.5 -109.5t26 -141q0 -79 -28 -146t-76.5 -116t-114.5 -76.5t-142 -27.5q-71 0 -136.5 27t-115.5 75t-80 114t-30 145zM240 594q-47 -37 -73.5 -97.5t-26.5 -140.5q0 -76 21.5 -138 t58.5 -105.5t86 -67t104 -23.5q53 0 98 21.5t77.5 61t50.5 94.5t18 122q0 95 -35 166.5t-93 110.5q-32 21 -68 32.5t-75 11.5q-83 0 -143 -48zM234 743q33 46 63.5 73.5t50.5 27.5q14 0 33.5 -5t40 -10.5t38.5 -10.5t29 -5q26 0 45.5 10.5t35.5 33.5l18 -19 q-30 -50 -60.5 -72.5t-50.5 -22.5q-17 0 -34 5t-34 10.5t-34.5 10.5t-35.5 5q-52 0 -84 -50z" />
<glyph unicode="&#xd6;" horiz-adv-x="791" d="M32 336q0 78 27.5 143t76 111t116.5 71.5t149 25.5q79 0 144 -25t111.5 -70.5t72.5 -109.5t26 -141q0 -79 -28 -146t-76.5 -116t-114.5 -76.5t-142 -27.5q-71 0 -136.5 27t-115.5 75t-80 114t-30 145zM240 594q-47 -37 -73.5 -97.5t-26.5 -140.5q0 -76 21.5 -138 t58.5 -105.5t86 -67t104 -23.5q53 0 98 21.5t77.5 61t50.5 94.5t18 122q0 95 -35 166.5t-93 110.5q-32 21 -68 32.5t-75 11.5q-83 0 -143 -48zM535 825q20 0 34.5 -14.5t14.5 -34.5t-14.5 -34.5t-34.5 -14.5t-34.5 14.5t-14.5 34.5t14.5 34.5t34.5 14.5zM268 825 q20 0 34.5 -14.5t14.5 -34.5t-14.5 -34.5t-34.5 -14.5t-34.5 14.5t-14.5 34.5t14.5 34.5t34.5 14.5z" />
<glyph unicode="&#xd7;" horiz-adv-x="650" d="M98 -1l192 221q-29 33 -62 71q-29 32 -65 72.5t-75 84.5l77 30l172 -204l172 195l52 -16q-35 -39 -69.5 -77.5t-61.5 -68.5q-32 -35 -60 -68l200 -229l-80 -26q-62 76 -96 116.5t-50 59.5q-18 22 -21 26q-29 -34 -59 -68q-26 -29 -55.5 -64t-55.5 -67z" />
<glyph unicode="&#xd8;" horiz-adv-x="788" d="M262 81q32 -23 66.5 -35t76.5 -12q109 0 175 77q34 38 52.5 91t18.5 119q0 85 -28.5 148.5t-77.5 105.5zM507 597q-28 16 -59.5 24.5t-65.5 8.5q-69 0 -123.5 -31t-86.5 -91q-18 -34 -26.5 -74.5t-8.5 -78.5q0 -73 24 -139t66 -109zM581 630q81 -42 126 -117t45 -172 q0 -76 -28.5 -140.5t-78 -111.5t-116 -73.5t-141.5 -26.5q-89 0 -162 39q-17 -31 -36 -72t-33 -78h-61l-6 12q20 26 38 54t32 52q8 14 15.5 27.5t14.5 27.5q-34 23 -63 53t-50 66.5t-33 78t-12 87.5q0 74 27.5 136t76 107t116 70t147.5 25q79 0 145 -25q14 27 30 63t28 68 h60l7 -13q-14 -19 -29.5 -43t-28.5 -45z" />
<glyph unicode="&#xd9;" horiz-adv-x="788" d="M109 212q-1 12 -1 24.5v26.5q0 39 1.5 86.5t1.5 92.5q0 29 -0.5 56t-2 48t-3 35t-4.5 18q-5 8 -21.5 19t-55.5 18l3 26q28 -3 63 -4.5t72 -1.5q35 0 69.5 1.5t63.5 4.5l3 -26q-40 -7 -58 -19.5t-23 -20.5q-4 -7 -6.5 -32t-3.5 -61.5t-1.5 -80.5t-0.5 -89q0 -27 0.5 -54 t2.5 -57q2 -35 12.5 -69t33 -60.5t59 -42.5t91.5 -16q89 0 142 38q35 25 53 61t24 74q5 35 6 75t1 72q0 29 -1 68.5t-3.5 77t-7.5 66.5t-13 37t-26.5 17.5t-57.5 11.5l3 30q29 -2 61 -3.5t65 -1.5q31 0 61 2t56 4l1 -27q-28 -3 -45.5 -13.5t-25.5 -22.5q-5 -9 -8.5 -34 t-5 -58.5t-2 -73.5t-1 -79t-1 -74.5t-2.5 -61.5q-2 -23 -5.5 -47.5t-14.5 -47.5q-20 -42 -57.5 -79.5t-99.5 -56.5q-22 -7 -49 -10.5t-54 -3.5q-45 0 -78.5 6t-59.5 15q-44 16 -72.5 41.5t-45 55.5t-23.5 61t-9 59zM402 704l-119 116q13 14 30 21.5t34 11.5q19 4 40 5 l58 -144z" />
<glyph unicode="&#xda;" horiz-adv-x="788" d="M109 212q-1 12 -1 24.5v26.5q0 39 1.5 86.5t1.5 92.5q0 29 -0.5 56t-2 48t-3 35t-4.5 18q-5 8 -21.5 19t-55.5 18l3 26q28 -3 63 -4.5t72 -1.5q35 0 69.5 1.5t63.5 4.5l3 -26q-40 -7 -58 -19.5t-23 -20.5q-4 -7 -6.5 -32t-3.5 -61.5t-1.5 -80.5t-0.5 -89q0 -27 0.5 -54 t2.5 -57q2 -35 12.5 -69t33 -60.5t59 -42.5t91.5 -16q89 0 142 38q35 25 53 61t24 74q5 35 6 75t1 72q0 29 -1 68.5t-3.5 77t-7.5 66.5t-13 37t-26.5 17.5t-57.5 11.5l3 30q29 -2 61 -3.5t65 -1.5q31 0 61 2t56 4l1 -27q-28 -3 -45.5 -13.5t-25.5 -22.5q-5 -9 -8.5 -34 t-5 -58.5t-2 -73.5t-1 -79t-1 -74.5t-2.5 -61.5q-2 -23 -5.5 -47.5t-14.5 -47.5q-20 -42 -57.5 -79.5t-99.5 -56.5q-22 -7 -49 -10.5t-54 -3.5q-45 0 -78.5 6t-59.5 15q-44 16 -72.5 41.5t-45 55.5t-23.5 61t-9 59zM487 858q20 0 38 -4q15 -3 29.5 -9t19.5 -17l-169 -123 l-31 9z" />
<glyph unicode="&#xdb;" horiz-adv-x="788" d="M109 212q-1 12 -1 24.5v26.5q0 39 1.5 86.5t1.5 92.5q0 29 -0.5 56t-2 48t-3 35t-4.5 18q-5 8 -21.5 19t-55.5 18l3 26q28 -3 63 -4.5t72 -1.5q35 0 69.5 1.5t63.5 4.5l3 -26q-40 -7 -58 -19.5t-23 -20.5q-4 -7 -6.5 -32t-3.5 -61.5t-1.5 -80.5t-0.5 -89q0 -27 0.5 -54 t2.5 -57q2 -35 12.5 -69t33 -60.5t59 -42.5t91.5 -16q89 0 142 38q35 25 53 61t24 74q5 35 6 75t1 72q0 29 -1 68.5t-3.5 77t-7.5 66.5t-13 37t-26.5 17.5t-57.5 11.5l3 30q29 -2 61 -3.5t65 -1.5q31 0 61 2t56 4l1 -27q-28 -3 -45.5 -13.5t-25.5 -22.5q-5 -9 -8.5 -34 t-5 -58.5t-2 -73.5t-1 -79t-1 -74.5t-2.5 -61.5q-2 -23 -5.5 -47.5t-14.5 -47.5q-20 -42 -57.5 -79.5t-99.5 -56.5q-22 -7 -49 -10.5t-54 -3.5q-45 0 -78.5 6t-59.5 15q-44 16 -72.5 41.5t-45 55.5t-23.5 61t-9 59zM386 784l-107 -76l-15 7l129 146h16l129 -146l-17 -9z" />
<glyph unicode="&#xdc;" horiz-adv-x="788" d="M109 212q-1 12 -1 24.5v26.5q0 39 1.5 86.5t1.5 92.5q0 29 -0.5 56t-2 48t-3 35t-4.5 18q-5 8 -21.5 19t-55.5 18l3 26q28 -3 63 -4.5t72 -1.5q35 0 69.5 1.5t63.5 4.5l3 -26q-40 -7 -58 -19.5t-23 -20.5q-4 -7 -6.5 -32t-3.5 -61.5t-1.5 -80.5t-0.5 -89q0 -27 0.5 -54 t2.5 -57q2 -35 12.5 -69t33 -60.5t59 -42.5t91.5 -16q89 0 142 38q35 25 53 61t24 74q5 35 6 75t1 72q0 29 -1 68.5t-3.5 77t-7.5 66.5t-13 37t-26.5 17.5t-57.5 11.5l3 30q29 -2 61 -3.5t65 -1.5q31 0 61 2t56 4l1 -27q-28 -3 -45.5 -13.5t-25.5 -22.5q-5 -9 -8.5 -34 t-5 -58.5t-2 -73.5t-1 -79t-1 -74.5t-2.5 -61.5q-2 -23 -5.5 -47.5t-14.5 -47.5q-20 -42 -57.5 -79.5t-99.5 -56.5q-22 -7 -49 -10.5t-54 -3.5q-45 0 -78.5 6t-59.5 15q-44 16 -72.5 41.5t-45 55.5t-23.5 61t-9 59zM517 825q20 0 34.5 -14.5t14.5 -34.5t-14.5 -34.5 t-34.5 -14.5t-34.5 14.5t-14.5 34.5t14.5 34.5t34.5 14.5zM298 825q20 0 34.5 -14.5t14.5 -34.5t-14.5 -34.5t-34.5 -14.5t-34.5 14.5t-14.5 34.5t14.5 34.5t34.5 14.5z" />
<glyph unicode="&#xdd;" horiz-adv-x="713" d="M611 657q19 0 37 1q16 1 34.5 2.5t35.5 3.5l3 -28q-19 -3 -35 -11.5t-28 -18.5q-14 -11 -25 -24q-17 -21 -46 -62t-61 -87.5t-62.5 -93t-51.5 -78.5q0 -86 1 -138.5t6 -61.5q7 -11 29.5 -20t57.5 -12l-3 -30q-33 2 -59 2.5t-44 1.5q-21 1 -37 1t-36 -1q-17 -1 -41.5 -1.5 t-54.5 -2.5l-3 27q38 2 57 13.5t26 21.5q3 4 4.5 19.5t2.5 39.5t1 54.5v63.5q-10 16 -27.5 43t-39 60t-45 69t-46 69.5t-41.5 61.5t-31 44q-10 13 -24 24q-12 9 -28.5 17t-36.5 10l4 28q62 -4 103 -6q23 -1 41 -1t41 1q20 1 46.5 2.5t57.5 3.5l2 -28q-36 -5 -58.5 -15 t-22.5 -22q0 -28 43 -100q19 -33 49.5 -80.5t76.5 -115.5h8q32 49 56.5 87.5t42.5 68t30 51t19 36.5q8 17 13 29t5 21q0 13 -19.5 23t-61.5 17l3 28q26 -2 50 -3.5t42 -2.5q21 -1 40 -1zM477 858q20 0 38 -4q15 -3 29.5 -9t19.5 -17l-169 -123l-31 9z" />
<glyph unicode="&#xde;" horiz-adv-x="605" d="M320 531q59 0 103.5 -15t74.5 -40t45 -57t15 -66q0 -39 -17 -75.5t-49 -65t-77 -46t-100 -17.5q-49 0 -95 8q1 -32 3 -55t10 -39t24.5 -25t46.5 -12l-3 -28q-26 3 -56 4t-62 1q-36 0 -72 -1.5t-67 -3.5l-3 27q24 6 38.5 11.5t23.5 13t13 19t7 28.5q2 9 3 35.5t2 63 t1 79.5v86q0 38 -0.5 73.5t-1 64t-1.5 48t-2 26.5q-3 15 -6.5 24.5t-11.5 16.5t-22.5 12t-39.5 11l3 27q58 -6 131 -6q33 0 65.5 1.5t60.5 4.5l3 -27q-30 -5 -47 -11t-25.5 -18t-11 -31.5t-2.5 -50.5q21 2 50 3.5t49 1.5zM424 243q14 18 22 44.5t8 55.5q0 42 -14 70.5 t-38 45.5t-56 24.5t-68 7.5h-58q-1 -35 -1 -79.5v-90.5v-67t1 -61q23 -4 63 -4q20 0 39 1.5t36.5 7t34 16.5t31.5 29z" />
<glyph unicode="&#xdf;" horiz-adv-x="540" d="M178 281q0 -37 0.5 -71t1.5 -61.5t2 -47.5t2 -29q0 -10 11 -25.5t39 -22.5l-3 -25q-23 2 -41 3t-30 2q-14 1 -25 1t-25 -1q-12 -1 -29.5 -2.5t-40.5 -3.5l-2 26q38 8 50 17.5t14 29.5q2 16 2.5 42.5t0.5 56.5q0 39 -1 76.5t-3 59.5q-1 11 -3.5 19.5t-9.5 16t-20 13.5 t-34 12v20q27 6 47 13q11 4 20 7q2 54 9 99t30 88q17 32 39 53.5t45.5 35t46.5 19t42 5.5q33 0 60 -10t46.5 -27.5t30.5 -41.5t11 -51q0 -30 -16.5 -54t-37 -45.5t-37 -41t-16.5 -40.5q0 -17 8.5 -32.5t26.5 -35.5l62 -66q32 -35 46 -67.5t14 -70.5q0 -56 -33 -92 q-24 -26 -52.5 -37t-55.5 -11q-19 0 -36 4t-30 10.5t-20.5 14.5t-7.5 15q0 10 3.5 20.5t9.5 18.5t13.5 13.5t14.5 5.5q4 0 10 -10.5t15 -23t21 -23t29 -10.5q25 0 40 19.5t15 48.5q0 39 -30 85q-6 9 -16 22t-21 27t-22 29t-20 27q-19 26 -31 49.5t-12 46.5q0 27 22 52 q10 12 22.5 25t23 29t17.5 36t7 47q0 46 -27.5 76.5t-72.5 30.5q-34 0 -55.5 -19t-32.5 -51q-14 -37 -17.5 -92t-3.5 -114v-112z" />
<glyph unicode="&#xe0;" horiz-adv-x="412" d="M254 213q0 1 -1 2t-5 1q-12 -10 -29 -19t-34.5 -18t-33 -18t-24.5 -21q-7 -9 -9 -17.5t-2 -17.5q0 -27 13 -45t41 -18q14 0 27 5.5t23.5 14.5t19 19.5t13.5 20.5q1 11 1.5 27t0.5 32v37q0 9 -1 15zM317 375q9 -14 11 -31t2 -37q0 -35 -1 -72t-1 -84q0 -31 1.5 -55.5 t4.5 -32.5q7 -20 26 -20q18 0 37 22l13 -23q-23 -28 -50 -39t-44 -11q-20 0 -37 18t-25 47h-5q-8 -9 -22.5 -21t-31.5 -22t-34.5 -17t-32.5 -7t-31 6.5t-29 19.5t-21.5 31.5t-8.5 42.5q0 17 6 37t30 38q12 9 32.5 17t43.5 16.5t47.5 18.5t45.5 24q10 8 10 18q0 15 -1 30.5 t-3 31.5q-3 26 -24 45.5t-56 19.5q-29 0 -42 -13q-7 -7 -11 -16.5t-7 -18.5t-6.5 -15t-11.5 -6q-20 0 -35 14t-15 28q0 9 21 21t50 22.5t59 17.5t48 7q28 0 56 -14.5t42 -37.5zM205 479l-128 142q13 16 29 23.5t31 11.5q18 4 35 5l71 -172z" />
<glyph unicode="&#xe1;" horiz-adv-x="412" d="M254 213q0 1 -1 2t-5 1q-12 -10 -29 -19t-34.5 -18t-33 -18t-24.5 -21q-7 -9 -9 -17.5t-2 -17.5q0 -27 13 -45t41 -18q14 0 27 5.5t23.5 14.5t19 19.5t13.5 20.5q1 11 1.5 27t0.5 32v37q0 9 -1 15zM317 375q9 -14 11 -31t2 -37q0 -35 -1 -72t-1 -84q0 -31 1.5 -55.5 t4.5 -32.5q7 -20 26 -20q18 0 37 22l13 -23q-23 -28 -50 -39t-44 -11q-20 0 -37 18t-25 47h-5q-8 -9 -22.5 -21t-31.5 -22t-34.5 -17t-32.5 -7t-31 6.5t-29 19.5t-21.5 31.5t-8.5 42.5q0 17 6 37t30 38q12 9 32.5 17t43.5 16.5t47.5 18.5t45.5 24q10 8 10 18q0 15 -1 30.5 t-3 31.5q-3 26 -24 45.5t-56 19.5q-29 0 -42 -13q-7 -7 -11 -16.5t-7 -18.5t-6.5 -15t-11.5 -6q-20 0 -35 14t-15 28q0 9 21 21t50 22.5t59 17.5t48 7q28 0 56 -14.5t42 -37.5zM248 662q16 0 31 -4q13 -3 25 -10t20 -21l-127 -145l-25 7z" />
<glyph unicode="&#xe2;" horiz-adv-x="412" d="M185 580l-100 -98l-15 8l121 183h15l117 -184l-20 -12zM254 213q0 1 -1 2t-5 1q-12 -10 -29 -19t-34.5 -18t-33 -18t-24.5 -21q-7 -9 -9 -17.5t-2 -17.5q0 -27 13 -45t41 -18q14 0 27 5.5t23.5 14.5t19 19.5t13.5 20.5q1 11 1.5 27t0.5 32v37q0 9 -1 15zM317 375 q9 -14 11 -31t2 -37q0 -35 -1 -72t-1 -84q0 -31 1.5 -55.5t4.5 -32.5q7 -20 26 -20q18 0 37 22l13 -23q-23 -28 -50 -39t-44 -11q-20 0 -37 18t-25 47h-5q-8 -9 -22.5 -21t-31.5 -22t-34.5 -17t-32.5 -7t-31 6.5t-29 19.5t-21.5 31.5t-8.5 42.5q0 17 6 37t30 38 q12 9 32.5 17t43.5 16.5t47.5 18.5t45.5 24q10 8 10 18q0 15 -1 30.5t-3 31.5q-3 26 -24 45.5t-56 19.5q-29 0 -42 -13q-7 -7 -11 -16.5t-7 -18.5t-6.5 -15t-11.5 -6q-20 0 -35 14t-15 28q0 9 21 21t50 22.5t59 17.5t48 7q28 0 56 -14.5t42 -37.5z" />
<glyph unicode="&#xe3;" horiz-adv-x="412" d="M254 213q0 1 -1 2t-5 1q-12 -10 -29 -19t-34.5 -18t-33 -18t-24.5 -21q-7 -9 -9 -17.5t-2 -17.5q0 -27 13 -45t41 -18q14 0 27 5.5t23.5 14.5t19 19.5t13.5 20.5q1 11 1.5 27t0.5 32v37q0 9 -1 15zM317 375q9 -14 11 -31t2 -37q0 -35 -1 -72t-1 -84q0 -31 1.5 -55.5 t4.5 -32.5q7 -20 26 -20q18 0 37 22l13 -23q-23 -28 -50 -39t-44 -11q-20 0 -37 18t-25 47h-5q-8 -9 -22.5 -21t-31.5 -22t-34.5 -17t-32.5 -7t-31 6.5t-29 19.5t-21.5 31.5t-8.5 42.5q0 17 6 37t30 38q12 9 32.5 17t43.5 16.5t47.5 18.5t45.5 24q10 8 10 18q0 15 -1 30.5 t-3 31.5q-3 26 -24 45.5t-56 19.5q-29 0 -42 -13q-7 -7 -11 -16.5t-7 -18.5t-6.5 -15t-11.5 -6q-20 0 -35 14t-15 28q0 9 21 21t50 22.5t59 17.5t48 7q28 0 56 -14.5t42 -37.5zM28 528q33 46 63.5 73.5t50.5 27.5q14 0 33.5 -5t39.5 -11t38.5 -11t31.5 -5q50 0 79 45l18 -19 q-30 -51 -60.5 -73t-50.5 -22q-17 0 -33.5 5t-33.5 10.5t-34 10.5t-35 5q-52 0 -86 -50z" />
<glyph unicode="&#xe4;" horiz-adv-x="412" d="M254 213q0 1 -1 2t-5 1q-12 -10 -29 -19t-34.5 -18t-33 -18t-24.5 -21q-7 -9 -9 -17.5t-2 -17.5q0 -27 13 -45t41 -18q14 0 27 5.5t23.5 14.5t19 19.5t13.5 20.5q1 11 1.5 27t0.5 32v37q0 9 -1 15zM317 375q9 -14 11 -31t2 -37q0 -35 -1 -72t-1 -84q0 -31 1.5 -55.5 t4.5 -32.5q7 -20 26 -20q18 0 37 22l13 -23q-23 -28 -50 -39t-44 -11q-20 0 -37 18t-25 47h-5q-8 -9 -22.5 -21t-31.5 -22t-34.5 -17t-32.5 -7t-31 6.5t-29 19.5t-21.5 31.5t-8.5 42.5q0 17 6 37t30 38q12 9 32.5 17t43.5 16.5t47.5 18.5t45.5 24q10 8 10 18q0 15 -1 30.5 t-3 31.5q-3 26 -24 45.5t-56 19.5q-29 0 -42 -13q-7 -7 -11 -16.5t-7 -18.5t-6.5 -15t-11.5 -6q-20 0 -35 14t-15 28q0 9 21 21t50 22.5t59 17.5t48 7q28 0 56 -14.5t42 -37.5zM104 615q21 0 35.5 -14.5t14.5 -35.5q0 -20 -14.5 -34.5t-35.5 -14.5q-22 0 -36.5 14.5 t-14.5 34.5q0 21 14.5 35.5t36.5 14.5zM287 615q21 0 35.5 -14.5t14.5 -35.5q0 -20 -14.5 -34.5t-35.5 -14.5q-22 0 -36.5 14.5t-14.5 34.5q0 21 14.5 35.5t36.5 14.5z" />
<glyph unicode="&#xe5;" horiz-adv-x="412" d="M254 213q0 1 -1 2t-5 1q-12 -10 -29 -19t-34.5 -18t-33 -18t-24.5 -21q-7 -9 -9 -17.5t-2 -17.5q0 -27 13 -45t41 -18q14 0 27 5.5t23.5 14.5t19 19.5t13.5 20.5q1 11 1.5 27t0.5 32v37q0 9 -1 15zM317 375q9 -14 11 -31t2 -37q0 -35 -1 -72t-1 -84q0 -31 1.5 -55.5 t4.5 -32.5q7 -20 26 -20q18 0 37 22l13 -23q-23 -28 -50 -39t-44 -11q-20 0 -37 18t-25 47h-5q-8 -9 -22.5 -21t-31.5 -22t-34.5 -17t-32.5 -7t-31 6.5t-29 19.5t-21.5 31.5t-8.5 42.5q0 17 6 37t30 38q12 9 32.5 17t43.5 16.5t47.5 18.5t45.5 24q10 8 10 18q0 15 -1 30.5 t-3 31.5q-3 26 -24 45.5t-56 19.5q-29 0 -42 -13q-7 -7 -11 -16.5t-7 -18.5t-6.5 -15t-11.5 -6q-20 0 -35 14t-15 28q0 9 21 21t50 22.5t59 17.5t48 7q28 0 56 -14.5t42 -37.5zM194 666q41 0 69.5 -26t28.5 -64q0 -18 -7.5 -34.5t-21 -28.5t-31.5 -19t-38 -7q-21 0 -39 7 t-31.5 19t-21 28.5t-7.5 34.5q0 38 28.5 64t70.5 26zM199 518q21 2 35.5 18t14.5 39q0 27 -17 43t-38 16q-26 0 -40.5 -16.5t-14.5 -39.5q0 -29 17.5 -44.5t42.5 -15.5z" />
<glyph unicode="&#xe6;" horiz-adv-x="637" d="M256 122q3 18 4 35t1 31q0 9 -0.5 16.5t-0.5 13.5q-67 -17 -105 -44.5t-38 -76.5q0 -22 12.5 -38.5t38.5 -16.5q19 0 34.5 7t26.5 18.5t18 25.5t9 29zM333 254q24 3 51.5 5t53 4t46.5 4.5t30 6.5q4 1 6 8q1 2 1 6q-5 43 -26 71.5t-53 28.5q-46 0 -75.5 -32t-32.5 -86z M607 259l-9 -19q-26 -4 -60 -5t-70 -2t-71.5 -2t-63.5 -5l1 -22q2 -21 5 -39.5t10 -35.5q17 -37 46 -57.5t65 -20.5q21 1 42 6q18 5 39 15.5t40 29.5l14 -25q-25 -33 -53.5 -51t-52.5 -26q-14 -5 -28 -7.5t-28 -3.5q-38 0 -77.5 20t-70.5 65h-8q-32 -40 -70.5 -62t-76.5 -22 q-15 0 -31.5 4.5t-30 15t-22 27.5t-8.5 43q0 61 52 101q31 23 70 38.5t81 22.5q3 0 5 1l13 3q0 14 -0.5 30.5t-5.5 45.5q-2 26 -24.5 44.5t-57.5 18.5q-12 0 -25.5 -3.5t-20.5 -12.5q-6 -8 -9 -17l-5.5 -16.5t-6 -13t-10.5 -5.5q-19 0 -35 13.5t-16 32.5q0 9 20.5 20.5 t48.5 21t58 16t49 6.5q28 0 55 -14.5t42 -37.5q2 -2 5 -11q33 32 68.5 47t68.5 15q28 0 50 -14t39 -34t28.5 -43.5t18.5 -41.5z" />
<glyph unicode="&#xe7;" horiz-adv-x="396" d="M276 424q20 -1 37.5 -4t31.5 -9q20 -9 24.5 -13.5t4.5 -17.5q0 -17 -13 -32t-27 -15q-9 0 -16 4.5t-13.5 11l-14.5 14.5t-19 14q-13 7 -32 7q-23 0 -48 -12t-45 -39q-17 -23 -24.5 -51t-7.5 -57q0 -44 15 -83.5t40 -60.5q21 -18 43 -25.5t42 -7.5q35 0 59.5 17t46.5 42 l16 -24q-29 -32 -57 -55.5t-63 -32.5l-17 -38l3 -5q29 -2 45.5 -11t24.5 -20.5t10 -21.5t2 -13q0 -21 -10 -39t-25.5 -31.5t-35.5 -21t-41 -7.5q-14 0 -28 3q-12 2 -25.5 7t-24.5 15l9 21q16 -9 35.5 -12.5t31.5 -3.5q18 0 37.5 11t19.5 34q0 16 -12.5 26.5t-38.5 10.5 q-12 0 -27 -3l-5 7l42 78l-3 8h-10q-38 0 -75.5 19t-65.5 59q-14 21 -24 52t-10 67q0 27 6 55t20 55.5t37.5 53t57.5 46.5q25 15 56 21.5t61 6.5z" />
<glyph unicode="&#xe8;" horiz-adv-x="426" d="M388 251q-25 -5 -55 -6t-56 -1q-36 0 -71.5 1t-85.5 2q-4 -1 -5.5 -4t-1.5 -14q0 -8 0.5 -16t1.5 -16q4 -34 17 -61t32.5 -45.5t43.5 -28.5t49 -10q21 1 42 7q18 5 39.5 17t40.5 33l12 -29q-19 -25 -43 -42.5t-48 -28.5t-46 -16t-37 -5q-33 0 -66 15t-59 41 q-13 14 -23.5 32t-17 37.5t-10 39t-3.5 37.5q0 29 4 56.5t15 52.5q24 57 72 92.5t109 35.5q30 0 54.5 -14t42 -33t29 -39.5t15.5 -34.5l17 -36zM217 390q-21 0 -38.5 -9t-30 -25t-21 -36t-11.5 -43q15 0 45 0.5t60 2.5q35 2 74 3q11 3 11 15q0 5 -2.5 14t-5.5 16 q-11 24 -31 43t-50 19zM211 479l-128 142q13 16 29 23.5t31 11.5q18 4 35 5l71 -172z" />
<glyph unicode="&#xe9;" horiz-adv-x="426" d="M388 251q-25 -5 -55 -6t-56 -1q-36 0 -71.5 1t-85.5 2q-4 -1 -5.5 -4t-1.5 -14q0 -8 0.5 -16t1.5 -16q4 -34 17 -61t32.5 -45.5t43.5 -28.5t49 -10q21 1 42 7q18 5 39.5 17t40.5 33l12 -29q-19 -25 -43 -42.5t-48 -28.5t-46 -16t-37 -5q-33 0 -66 15t-59 41 q-13 14 -23.5 32t-17 37.5t-10 39t-3.5 37.5q0 29 4 56.5t15 52.5q24 57 72 92.5t109 35.5q30 0 54.5 -14t42 -33t29 -39.5t15.5 -34.5l17 -36zM217 390q-21 0 -38.5 -9t-30 -25t-21 -36t-11.5 -43q15 0 45 0.5t60 2.5q35 2 74 3q11 3 11 15q0 5 -2.5 14t-5.5 16 q-11 24 -31 43t-50 19zM275 662q16 0 31 -4q13 -3 25 -10t20 -21l-127 -145l-25 7z" />
<glyph unicode="&#xea;" horiz-adv-x="426" d="M216 580l-100 -98l-15 8l121 183h15l117 -184l-20 -12zM388 251q-25 -5 -55 -6t-56 -1q-36 0 -71.5 1t-85.5 2q-4 -1 -5.5 -4t-1.5 -14q0 -8 0.5 -16t1.5 -16q4 -34 17 -61t32.5 -45.5t43.5 -28.5t49 -10q21 1 42 7q18 5 39.5 17t40.5 33l12 -29q-19 -25 -43 -42.5 t-48 -28.5t-46 -16t-37 -5q-33 0 -66 15t-59 41q-13 14 -23.5 32t-17 37.5t-10 39t-3.5 37.5q0 29 4 56.5t15 52.5q24 57 72 92.5t109 35.5q30 0 54.5 -14t42 -33t29 -39.5t15.5 -34.5l17 -36zM217 390q-21 0 -38.5 -9t-30 -25t-21 -36t-11.5 -43q15 0 45 0.5t60 2.5 q35 2 74 3q11 3 11 15q0 5 -2.5 14t-5.5 16q-11 24 -31 43t-50 19z" />
<glyph unicode="&#xeb;" horiz-adv-x="426" d="M388 251q-25 -5 -55 -6t-56 -1q-36 0 -71.5 1t-85.5 2q-4 -1 -5.5 -4t-1.5 -14q0 -8 0.5 -16t1.5 -16q4 -34 17 -61t32.5 -45.5t43.5 -28.5t49 -10q21 1 42 7q18 5 39.5 17t40.5 33l12 -29q-19 -25 -43 -42.5t-48 -28.5t-46 -16t-37 -5q-33 0 -66 15t-59 41 q-13 14 -23.5 32t-17 37.5t-10 39t-3.5 37.5q0 29 4 56.5t15 52.5q24 57 72 92.5t109 35.5q30 0 54.5 -14t42 -33t29 -39.5t15.5 -34.5l17 -36zM217 390q-21 0 -38.5 -9t-30 -25t-21 -36t-11.5 -43q15 0 45 0.5t60 2.5q35 2 74 3q11 3 11 15q0 5 -2.5 14t-5.5 16 q-11 24 -31 43t-50 19zM130 615q21 0 35.5 -14.5t14.5 -35.5q0 -20 -14.5 -34.5t-35.5 -14.5q-22 0 -36.5 14.5t-14.5 34.5q0 21 14.5 35.5t36.5 14.5zM323 615q21 0 35.5 -14.5t14.5 -35.5q0 -20 -14.5 -34.5t-35.5 -14.5q-22 0 -36.5 14.5t-14.5 34.5q0 21 14.5 35.5 t36.5 14.5z" />
<glyph unicode="&#xec;" horiz-adv-x="314" d="M185 427q-2 -81 -3.5 -140t-1.5 -100q0 -57 1.5 -90.5t7.5 -41.5q9 -12 27 -18.5t42 -11.5l-3 -28q-24 3 -54 5t-56 2q-27 0 -58.5 -2t-56.5 -5l-3 27q26 5 44 12t26 18t9 38.5t1 72.5q0 24 -0.5 48.5t-1.5 45t-2 35t-2 18.5q-2 7 -10 15q-7 7 -19.5 14t-35.5 13v21 q76 26 104.5 41.5t28.5 14.5zM118 479l-128 142q13 16 29 23.5t31 11.5q18 4 35 5l71 -172z" />
<glyph unicode="&#xed;" horiz-adv-x="314" d="M185 427q-2 -81 -3.5 -140t-1.5 -100q0 -57 1.5 -90.5t7.5 -41.5q9 -12 27 -18.5t42 -11.5l-3 -28q-24 3 -54 5t-56 2q-27 0 -58.5 -2t-56.5 -5l-3 27q26 5 44 12t26 18t9 38.5t1 72.5q0 24 -0.5 48.5t-1.5 45t-2 35t-2 18.5q-2 7 -10 15q-7 7 -19.5 14t-35.5 13v21 q76 26 104.5 41.5t28.5 14.5zM178 662q16 0 31 -4q13 -3 25 -10t20 -21l-127 -145l-25 7z" />
<glyph unicode="&#xee;" horiz-adv-x="314" d="M185 427q-2 -81 -3.5 -140t-1.5 -100q0 -57 1.5 -90.5t7.5 -41.5q9 -12 27 -18.5t42 -11.5l-3 -28q-24 3 -54 5t-56 2q-27 0 -58.5 -2t-56.5 -5l-3 27q26 5 44 12t26 18t9 38.5t1 72.5q0 24 -0.5 48.5t-1.5 45t-2 35t-2 18.5q-2 7 -10 15q-7 7 -19.5 14t-35.5 13v21 q76 26 104.5 41.5t28.5 14.5zM113 583l-92 -102l-15 8l114 193h13l106 -193l-19 -9z" />
<glyph unicode="&#xef;" horiz-adv-x="314" d="M185 427q-2 -81 -3.5 -140t-1.5 -100q0 -57 1.5 -90.5t7.5 -41.5q9 -12 27 -18.5t42 -11.5l-3 -28q-24 3 -54 5t-56 2q-27 0 -58.5 -2t-56.5 -5l-3 27q26 5 44 12t26 18t9 38.5t1 72.5q0 24 -0.5 48.5t-1.5 45t-2 35t-2 18.5q-2 7 -10 15q-7 7 -19.5 14t-35.5 13v21 q76 26 104.5 41.5t28.5 14.5zM38 615q21 0 35.5 -14.5t14.5 -35.5q0 -20 -14.5 -34.5t-35.5 -14.5q-22 0 -36.5 14.5t-14.5 34.5q0 21 14.5 35.5t36.5 14.5zM222 615q21 0 35.5 -14.5t14.5 -35.5q0 -20 -14.5 -34.5t-35.5 -14.5q-22 0 -36.5 14.5t-14.5 34.5q0 21 14.5 35.5 t36.5 14.5z" />
<glyph unicode="&#xf0;" horiz-adv-x="475" d="M262 390q-27 0 -52.5 -9.5t-46 -31t-32.5 -56t-12 -83.5q0 -41 11.5 -74.5t30 -57t42 -36.5t47.5 -13q35 0 57.5 18.5t35 47t17.5 63.5t5 69q0 43 -7 76t-15 52q-7 16 -26.5 25.5t-54.5 9.5zM325 423q-16 40 -42.5 76.5t-57.5 68.5q-8 -5 -26 -17t-38 -26.5t-38 -29.5 t-26 -26h-13v55l115 69q-27 25 -47 39t-38 21t-36 9t-41 2l-1 24l125 17h17q16 -12 41.5 -34t47.5 -42q5 3 20 13t33 23t34.5 27t25.5 26h11v-55l-102 -57q55 -57 85 -108.5t44 -96t16.5 -81t2.5 -63.5q0 -55 -14.5 -104t-41.5 -86t-66.5 -58.5t-89.5 -21.5q-42 0 -76.5 15 t-59.5 42t-39 63.5t-14 80.5q0 68 24 113.5t58 72.5t71 38.5t64 11.5q14 0 26 -0.5t21 -1.5l20 -3z" />
<glyph unicode="&#xf1;" horiz-adv-x="527" d="M455 50q4 -7 12 -12q7 -5 18.5 -8.5t31.5 -4.5l-3 -28q-54 5 -81 5.5t-27 1.5q0 -1 -25 -1.5t-70 -5.5l-3 27q17 3 28 8t18 10q8 6 11 12q3 7 6 22.5t4.5 35.5t2.5 43.5t1 47.5q0 43 -3 76q-5 44 -26.5 66.5t-56.5 22.5q-26 0 -53.5 -11t-53.5 -31q-8 -6 -10 -13t-2 -17 q-1 -26 -1 -63v-67q0 -45 0.5 -78t3.5 -39t12 -11q8 -5 20.5 -9t32.5 -6l-3 -26q-25 3 -44 4t-32 2q-15 1 -26 1q-10 0 -25 -1q-13 -1 -31 -2t-42 -4l-3 25q17 5 28 10t17 10q7 5 11 11q3 6 4.5 38.5t1.5 72.5q0 24 -0.5 48.5t-1.5 45t-2 35.5t-2 19q-2 8 -9 15q-6 6 -17 13 t-30 12v20q37 14 61 24.5t38 18t19.5 11l5.5 3.5l12 -2v-71l5 -3q35 26 60.5 40.5t43 21t28.5 7.5t17 1q50 0 84 -30t42 -81q2 -11 2 -22.5v-22.5q0 -42 -1.5 -83t-1.5 -77q0 -21 1 -36t3 -21zM100 528q33 46 63.5 73.5t50.5 27.5q14 0 33.5 -5t39.5 -11t38.5 -11t31.5 -5 q50 0 79 45l18 -19q-30 -51 -60.5 -73t-50.5 -22q-17 0 -33.5 5t-33.5 10.5t-34 10.5t-35 5q-52 0 -86 -50z" />
<glyph unicode="&#xf2;" horiz-adv-x="500" d="M462 218q0 -49 -16.5 -91t-45.5 -73t-67.5 -49t-83.5 -18q-42 0 -80 16.5t-67.5 46t-46.5 70t-17 89.5q0 48 16.5 88.5t46 70t69.5 45.5t88 16q44 0 81.5 -15t64.5 -42.5t42.5 -66.5t15.5 -87zM378 204q0 88 -36 138.5t-97 50.5q-54 0 -87.5 -46.5t-33.5 -122.5 q0 -51 15.5 -96.5t41.5 -71.5q35 -33 79 -33q26 0 48 13.5t37.5 37.5t24 57.5t8.5 72.5zM238 479l-128 142q13 16 29 23.5t31 11.5q18 4 35 5l71 -172z" />
<glyph unicode="&#xf3;" horiz-adv-x="500" d="M462 218q0 -49 -16.5 -91t-45.5 -73t-67.5 -49t-83.5 -18q-42 0 -80 16.5t-67.5 46t-46.5 70t-17 89.5q0 48 16.5 88.5t46 70t69.5 45.5t88 16q44 0 81.5 -15t64.5 -42.5t42.5 -66.5t15.5 -87zM378 204q0 88 -36 138.5t-97 50.5q-54 0 -87.5 -46.5t-33.5 -122.5 q0 -51 15.5 -96.5t41.5 -71.5q35 -33 79 -33q26 0 48 13.5t37.5 37.5t24 57.5t8.5 72.5zM298 662q16 0 31 -4q13 -3 25 -10t20 -21l-127 -145l-25 7z" />
<glyph unicode="&#xf4;" horiz-adv-x="500" d="M239 580l-100 -98l-15 8l121 183h15l117 -184l-20 -12zM462 218q0 -49 -16.5 -91t-45.5 -73t-67.5 -49t-83.5 -18q-42 0 -80 16.5t-67.5 46t-46.5 70t-17 89.5q0 48 16.5 88.5t46 70t69.5 45.5t88 16q44 0 81.5 -15t64.5 -42.5t42.5 -66.5t15.5 -87zM378 204 q0 88 -36 138.5t-97 50.5q-54 0 -87.5 -46.5t-33.5 -122.5q0 -51 15.5 -96.5t41.5 -71.5q35 -33 79 -33q26 0 48 13.5t37.5 37.5t24 57.5t8.5 72.5z" />
<glyph unicode="&#xf5;" horiz-adv-x="500" d="M82 528q33 46 63.5 73.5t50.5 27.5q14 0 33.5 -5t39.5 -11t38.5 -11t31.5 -5q50 0 79 45l18 -19q-30 -51 -60.5 -73t-50.5 -22q-17 0 -33.5 5t-33.5 10.5t-34 10.5t-35 5q-52 0 -86 -50zM462 218q0 -49 -16.5 -91t-45.5 -73t-67.5 -49t-83.5 -18q-42 0 -80 16.5t-67.5 46 t-46.5 70t-17 89.5q0 48 16.5 88.5t46 70t69.5 45.5t88 16q44 0 81.5 -15t64.5 -42.5t42.5 -66.5t15.5 -87zM378 204q0 88 -36 138.5t-97 50.5q-54 0 -87.5 -46.5t-33.5 -122.5q0 -51 15.5 -96.5t41.5 -71.5q35 -33 79 -33q26 0 48 13.5t37.5 37.5t24 57.5t8.5 72.5z" />
<glyph unicode="&#xf6;" horiz-adv-x="500" d="M462 218q0 -49 -16.5 -91t-45.5 -73t-67.5 -49t-83.5 -18q-42 0 -80 16.5t-67.5 46t-46.5 70t-17 89.5q0 48 16.5 88.5t46 70t69.5 45.5t88 16q44 0 81.5 -15t64.5 -42.5t42.5 -66.5t15.5 -87zM378 204q0 88 -36 138.5t-97 50.5q-54 0 -87.5 -46.5t-33.5 -122.5 q0 -51 15.5 -96.5t41.5 -71.5q35 -33 79 -33q26 0 48 13.5t37.5 37.5t24 57.5t8.5 72.5zM347 615q21 0 35.5 -14.5t14.5 -35.5q0 -20 -14.5 -34.5t-35.5 -14.5q-22 0 -36.5 14.5t-14.5 34.5q0 21 14.5 35.5t36.5 14.5zM154 615q21 0 35.5 -14.5t14.5 -35.5 q0 -20 -14.5 -34.5t-35.5 -14.5q-22 0 -36.5 14.5t-14.5 34.5q0 21 14.5 35.5t36.5 14.5z" />
<glyph unicode="&#xf7;" horiz-adv-x="642" d="M599 279l-6 -58q-42 2 -99 2.5t-122 0.5q-81 0 -166 -1.5t-158 -4.5l-5 14l19 48zM324 -12q-25 0 -42 17t-17 41q0 25 17 42t42 17t42 -17t17 -42q0 -24 -17 -41t-42 -17zM324 386q-25 0 -42 17t-17 42q0 24 17 41t42 17t42 -17t17 -41q0 -25 -17 -42t-42 -17z" />
<glyph unicode="&#xf8;" horiz-adv-x="500" d="M266 25q25 1 46.5 15t36.5 38.5t23.5 57.5t8.5 72q0 74 -25 120l-171 -272q34 -31 81 -31zM240 393q-26 -1 -47.5 -14t-37 -35.5t-24 -54t-8.5 -68.5q0 -42 9 -76t25 -60l172 274q-33 34 -89 34zM387 386q35 -27 55 -70t20 -100q0 -48 -16 -89.5t-44.5 -71.5t-67 -47.5 t-82.5 -17.5q-49 0 -91 21q-14 -23 -26.5 -47t-25.5 -52h-50l-5 8l73 110q-39 29 -63 74.5t-24 103.5q0 48 16.5 88t45.5 69t69 45t87 16q26 0 50 -5.5t45 -15.5q12 21 24 44t24 49h50l4 -9z" />
<glyph unicode="&#xf9;" horiz-adv-x="516" d="M166 415q-1 -10 -3 -34.5t-3.5 -56.5t-3 -68t-1.5 -69q0 -24 1 -46t3 -35q5 -26 24 -43t53 -17q21 0 39.5 7t33.5 18t25.5 25t16.5 29q4 8 4.5 16t0.5 16v66.5t-0.5 56t-1.5 40.5t-2 22q-2 7 -10 14q-7 6 -20.5 11.5t-37.5 10.5v22q38 3 64 7t43 7q19 4 31 7l14 -6 q-1 -9 -2.5 -32t-2.5 -53t-1.5 -63.5t-0.5 -64.5q0 -51 1.5 -79.5t9.5 -36.5q7 -7 19 -13.5t35 -11.5v-19q-29 -7 -52 -16t-40 -17q-19 -10 -33 -19l-14 6v69l-8 3q-85 -79 -152 -79q-39 0 -72 23.5t-41 65.5q-3 14 -4 30.5t-1 33.5q0 14 0.5 34.5t1.5 44t1.5 46.5t0.5 42 q0 18 -1 29t-6.5 17.5t-17 10.5t-32.5 9v22q35 5 59 9.5l40 7.5q18 4 30 7zM252 479l-128 142q13 16 29 23.5t31 11.5q18 4 35 5l71 -172z" />
<glyph unicode="&#xfa;" horiz-adv-x="516" d="M166 415q-1 -10 -3 -34.5t-3.5 -56.5t-3 -68t-1.5 -69q0 -24 1 -46t3 -35q5 -26 24 -43t53 -17q21 0 39.5 7t33.5 18t25.5 25t16.5 29q4 8 4.5 16t0.5 16v66.5t-0.5 56t-1.5 40.5t-2 22q-2 7 -10 14q-7 6 -20.5 11.5t-37.5 10.5v22q38 3 64 7t43 7q19 4 31 7l14 -6 q-1 -9 -2.5 -32t-2.5 -53t-1.5 -63.5t-0.5 -64.5q0 -51 1.5 -79.5t9.5 -36.5q7 -7 19 -13.5t35 -11.5v-19q-29 -7 -52 -16t-40 -17q-19 -10 -33 -19l-14 6v69l-8 3q-85 -79 -152 -79q-39 0 -72 23.5t-41 65.5q-3 14 -4 30.5t-1 33.5q0 14 0.5 34.5t1.5 44t1.5 46.5t0.5 42 q0 18 -1 29t-6.5 17.5t-17 10.5t-32.5 9v22q35 5 59 9.5l40 7.5q18 4 30 7zM302 662q16 0 31 -4q13 -3 25 -10t20 -21l-127 -145l-25 7z" />
<glyph unicode="&#xfb;" horiz-adv-x="516" d="M241 580l-100 -98l-15 8l121 183h15l117 -184l-20 -12zM166 415q-1 -10 -3 -34.5t-3.5 -56.5t-3 -68t-1.5 -69q0 -24 1 -46t3 -35q5 -26 24 -43t53 -17q21 0 39.5 7t33.5 18t25.5 25t16.5 29q4 8 4.5 16t0.5 16v66.5t-0.5 56t-1.5 40.5t-2 22q-2 7 -10 14 q-7 6 -20.5 11.5t-37.5 10.5v22q38 3 64 7t43 7q19 4 31 7l14 -6q-1 -9 -2.5 -32t-2.5 -53t-1.5 -63.5t-0.5 -64.5q0 -51 1.5 -79.5t9.5 -36.5q7 -7 19 -13.5t35 -11.5v-19q-29 -7 -52 -16t-40 -17q-19 -10 -33 -19l-14 6v69l-8 3q-85 -79 -152 -79q-39 0 -72 23.5t-41 65.5 q-3 14 -4 30.5t-1 33.5q0 14 0.5 34.5t1.5 44t1.5 46.5t0.5 42q0 18 -1 29t-6.5 17.5t-17 10.5t-32.5 9v22q35 5 59 9.5l40 7.5q18 4 30 7z" />
<glyph unicode="&#xfc;" horiz-adv-x="516" d="M166 415q-1 -10 -3 -34.5t-3.5 -56.5t-3 -68t-1.5 -69q0 -24 1 -46t3 -35q5 -26 24 -43t53 -17q21 0 39.5 7t33.5 18t25.5 25t16.5 29q4 8 4.5 16t0.5 16v66.5t-0.5 56t-1.5 40.5t-2 22q-2 7 -10 14q-7 6 -20.5 11.5t-37.5 10.5v22q38 3 64 7t43 7q19 4 31 7l14 -6 q-1 -9 -2.5 -32t-2.5 -53t-1.5 -63.5t-0.5 -64.5q0 -51 1.5 -79.5t9.5 -36.5q7 -7 19 -13.5t35 -11.5v-19q-29 -7 -52 -16t-40 -17q-19 -10 -33 -19l-14 6v69l-8 3q-85 -79 -152 -79q-39 0 -72 23.5t-41 65.5q-3 14 -4 30.5t-1 33.5q0 14 0.5 34.5t1.5 44t1.5 46.5t0.5 42 q0 18 -1 29t-6.5 17.5t-17 10.5t-32.5 9v22q35 5 59 9.5l40 7.5q18 4 30 7zM162 615q21 0 35.5 -14.5t14.5 -35.5q0 -20 -14.5 -34.5t-35.5 -14.5q-22 0 -36.5 14.5t-14.5 34.5q0 21 14.5 35.5t36.5 14.5zM355 615q21 0 35.5 -14.5t14.5 -35.5q0 -20 -14.5 -34.5 t-35.5 -14.5q-22 0 -36.5 14.5t-14.5 34.5q0 21 14.5 35.5t36.5 14.5z" />
<glyph unicode="&#xfd;" horiz-adv-x="477" d="M210 -11q-29 77 -52 134t-40 98t-29.5 67.5t-21.5 42.5q-8 15 -14.5 24t-14.5 14.5t-18.5 9.5t-27.5 9l6 29q20 -3 38.5 -4.5t33.5 -2.5q18 -1 34 -1t34 1q15 1 34.5 1.5t39.5 2.5l1 -26q-19 -3 -29.5 -7.5t-16 -9.5t-6.5 -9t-1 -7q0 -4 2 -17.5t11 -43.5t27 -80.5 t49 -128.5h7q12 27 24 58t23.5 61t20.5 56.5t15 44.5q2 7 4 16.5t2 19.5q0 9 -2.5 16t-9.5 12t-20 9.5t-34 8.5l2 27q18 -2 36.5 -2.5t33.5 -1.5q18 -1 33 -1q14 0 30 1q14 1 32 2.5t38 3.5l3 -28q-18 -4 -30 -8t-20.5 -10.5t-15.5 -16.5t-16 -26q-14 -27 -33 -68t-40 -87.5 t-42 -94.5t-39 -89.5t-31 -71.5t-18 -41q-19 -41 -40 -66t-39 -38t-32.5 -17t-20.5 -4q-19 0 -33 10.5t-14 32.5q0 5 2 11q3 11 15 23q42 0 68 14t37 25q6 6 12.5 14t14 22t17 35t21.5 52zM317 662q16 0 31 -4q13 -3 25 -10t20 -21l-127 -145l-25 7z" />
<glyph unicode="&#xfe;" horiz-adv-x="510" d="M226 -252q-29 3 -50 4.5l-35 2.5q-17 1 -27 1t-24 -1q-24 -2 -69 -6l-3 27q17 5 28 10t17 9q7 4 11 9q3 6 5 20t2.5 33.5t1 43.5t0.5 48v466q0 21 -0.5 52.5t-1 62t-2.5 54.5t-5 30q-4 5 -11 10q-6 5 -17 10t-29 10v19q35 9 59 16.5t39 13.5q18 7 29 13l17 -5 q-2 -33 -2.5 -62.5t-0.5 -65.5v-84t-1 -117l9 -1q49 36 85 45t49 9q32 0 63 -11.5t55 -35t39 -58.5t15 -83q0 -61 -20 -107t-52 -76.5t-71 -45.5t-76 -15q-26 0 -51.5 4t-44.5 11q0 -34 0.5 -68t1 -62.5t2.5 -48.5t5 -25q4 -6 12 -11q7 -5 19 -9.5t32 -7.5zM363 79 q16 23 24 57t8 71q0 72 -35.5 116t-92.5 44q-28 0 -56 -8t-54 -28v-236q8 -29 36 -48.5t69 -19.5q29 0 56 13t45 39z" />
<glyph unicode="&#xff;" horiz-adv-x="477" d="M210 -11q-29 77 -52 134t-40 98t-29.5 67.5t-21.5 42.5q-8 15 -14.5 24t-14.5 14.5t-18.5 9.5t-27.5 9l6 29q20 -3 38.5 -4.5t33.5 -2.5q18 -1 34 -1t34 1q15 1 34.5 1.5t39.5 2.5l1 -26q-19 -3 -29.5 -7.5t-16 -9.5t-6.5 -9t-1 -7q0 -4 2 -17.5t11 -43.5t27 -80.5 t49 -128.5h7q12 27 24 58t23.5 61t20.5 56.5t15 44.5q2 7 4 16.5t2 19.5q0 9 -2.5 16t-9.5 12t-20 9.5t-34 8.5l2 27q18 -2 36.5 -2.5t33.5 -1.5q18 -1 33 -1q14 0 30 1q14 1 32 2.5t38 3.5l3 -28q-18 -4 -30 -8t-20.5 -10.5t-15.5 -16.5t-16 -26q-14 -27 -33 -68t-40 -87.5 t-42 -94.5t-39 -89.5t-31 -71.5t-18 -41q-19 -41 -40 -66t-39 -38t-32.5 -17t-20.5 -4q-19 0 -33 10.5t-14 32.5q0 5 2 11q3 11 15 23q42 0 68 14t37 25q6 6 12.5 14t14 22t17 35t21.5 52zM150 615q21 0 35.5 -14.5t14.5 -35.5q0 -20 -14.5 -34.5t-35.5 -14.5 q-22 0 -36.5 14.5t-14.5 34.5q0 21 14.5 35.5t36.5 14.5zM344 615q21 0 35.5 -14.5t14.5 -35.5q0 -20 -14.5 -34.5t-35.5 -14.5q-22 0 -36.5 14.5t-14.5 34.5q0 21 14.5 35.5t36.5 14.5z" />
<glyph unicode="&#x100;" horiz-adv-x="696" d="M514 785l-4 -42l-322 -9l-6 14l19 37h313zM236 -3q-28 3 -53 4t-44 2q-22 1 -41 1q-18 0 -36 -1q-15 -1 -31.5 -2t-30.5 -4l-4 29q23 7 38 14q9 4 17 9q14 9 28.5 30t26.5 48q5 12 16.5 43t33 91.5t54.5 156.5t81 239l109 8q36 -103 64.5 -183t51 -141t39 -105t28.5 -74 q28 -70 40 -91q9 -10 20 -20q10 -8 23 -15.5t30 -9.5l-4 -29q-28 3 -53 4t-44 2q-22 1 -41 1t-40 -1q-18 -1 -41 -2t-48 -4l-2 28q27 4 44 9.5t26.5 12t12.5 13.5t3 14q0 8 -3 20.5t-9.5 32.5t-17 49t-25.5 70q-23 2 -59.5 3t-74.5 1q-40 0 -73.5 -1t-50.5 -3 q-15 -41 -25 -70.5t-15.5 -49.5t-8 -32.5t-2.5 -20.5q0 -5 2.5 -12t12.5 -13.5t28.5 -12.5t49.5 -10zM222 304q14 -1 30.5 -1.5t31.5 -0.5h34h37q17 0 36 0.5t39 1.5v1l2 6l-102 265h-11q-20 -48 -37.5 -95t-31.5 -85q-17 -45 -31 -85z" />
<glyph unicode="&#x101;" horiz-adv-x="412" d="M254 213q0 1 -1 2t-5 1q-12 -10 -29 -19t-34.5 -18t-33 -18t-24.5 -21q-7 -9 -9 -17.5t-2 -17.5q0 -27 13 -45t41 -18q14 0 27 5.5t23.5 14.5t19 19.5t13.5 20.5q1 11 1.5 27t0.5 32v37q0 9 -1 15zM317 375q9 -14 11 -31t2 -37q0 -35 -1 -72t-1 -84q0 -31 1.5 -55.5 t4.5 -32.5q7 -20 26 -20q18 0 37 22l13 -23q-23 -28 -50 -39t-44 -11q-20 0 -37 18t-25 47h-5q-8 -9 -22.5 -21t-31.5 -22t-34.5 -17t-32.5 -7t-31 6.5t-29 19.5t-21.5 31.5t-8.5 42.5q0 17 6 37t30 38q12 9 32.5 17t43.5 16.5t47.5 18.5t45.5 24q10 8 10 18q0 15 -1 30.5 t-3 31.5q-3 26 -24 45.5t-56 19.5q-29 0 -42 -13q-7 -7 -11 -16.5t-7 -18.5t-6.5 -15t-11.5 -6q-20 0 -35 14t-15 28q0 9 21 21t50 22.5t59 17.5t48 7q28 0 56 -14.5t42 -37.5zM363 601l-5 -49l-321 -11l-6 14l29 46h303z" />
<glyph unicode="&#x102;" horiz-adv-x="696" d="M236 -3q-28 3 -53 4t-44 2q-22 1 -41 1q-18 0 -36 -1q-15 -1 -31.5 -2t-30.5 -4l-4 29q23 7 38 14q9 4 17 9q14 9 28.5 30t26.5 48q5 12 16.5 43t33 91.5t54.5 156.5t81 239l109 8q36 -103 64.5 -183t51 -141t39 -105t28.5 -74q28 -70 40 -91q9 -10 20 -20 q10 -8 23 -15.5t30 -9.5l-4 -29q-28 3 -53 4t-44 2q-22 1 -41 1t-40 -1q-18 -1 -41 -2t-48 -4l-2 28q27 4 44 9.5t26.5 12t12.5 13.5t3 14q0 8 -3 20.5t-9.5 32.5t-17 49t-25.5 70q-23 2 -59.5 3t-74.5 1q-40 0 -73.5 -1t-50.5 -3q-15 -41 -25 -70.5t-15.5 -49.5t-8 -32.5 t-2.5 -20.5q0 -5 2.5 -12t12.5 -13.5t28.5 -12.5t49.5 -10zM222 304q14 -1 30.5 -1.5t31.5 -0.5h34h37q17 0 36 0.5t39 1.5v1l2 6l-102 265h-11q-20 -48 -37.5 -95t-31.5 -85q-17 -45 -31 -85zM240 845q8 -14 17.5 -25t22.5 -18.5t30.5 -11.5t42.5 -4t42.5 6.5t30 15.5 t20 18.5t12.5 16.5l20 -9q-4 -20 -15 -40.5t-28 -37.5t-40 -28t-52 -11t-51.5 11t-38.5 28t-25 37.5t-12 39.5z" />
<glyph unicode="&#x103;" horiz-adv-x="412" d="M254 213q0 1 -1 2t-5 1q-12 -10 -29 -19t-34.5 -18t-33 -18t-24.5 -21q-7 -9 -9 -17.5t-2 -17.5q0 -27 13 -45t41 -18q14 0 27 5.5t23.5 14.5t19 19.5t13.5 20.5q1 11 1.5 27t0.5 32v37q0 9 -1 15zM317 375q9 -14 11 -31t2 -37q0 -35 -1 -72t-1 -84q0 -31 1.5 -55.5 t4.5 -32.5q7 -20 26 -20q18 0 37 22l13 -23q-23 -28 -50 -39t-44 -11q-20 0 -37 18t-25 47h-5q-8 -9 -22.5 -21t-31.5 -22t-34.5 -17t-32.5 -7t-31 6.5t-29 19.5t-21.5 31.5t-8.5 42.5q0 17 6 37t30 38q12 9 32.5 17t43.5 16.5t47.5 18.5t45.5 24q10 8 10 18q0 15 -1 30.5 t-3 31.5q-3 26 -24 45.5t-56 19.5q-29 0 -42 -13q-7 -7 -11 -16.5t-7 -18.5t-6.5 -15t-11.5 -6q-20 0 -35 14t-15 28q0 9 21 21t50 22.5t59 17.5t48 7q28 0 56 -14.5t42 -37.5zM85 643q8 -14 17.5 -25t22.5 -18.5t30.5 -11.5t42.5 -4t42.5 6.5t30 15.5t20 18.5t12.5 16.5 l20 -9q-4 -20 -15 -40.5t-28 -37.5t-40 -28t-52 -11t-51.5 11t-38.5 28t-25 37.5t-12 39.5z" />
<glyph unicode="&#x104;" horiz-adv-x="696" d="M244 -3q-28 3 -53 4t-44 2q-22 1 -41 1q-18 0 -36 -1q-15 -1 -31.5 -2t-30.5 -4l-4 29q23 7 38 14q9 4 17 9q14 9 28.5 30t26.5 48q5 12 17 43.5t33.5 94t55.5 161.5t84 246l97 13q37 -106 66.5 -189t52.5 -146t40.5 -108.5t29.5 -76.5q29 -73 41 -94q9 -10 20 -20 q10 -8 23 -15.5t30 -9.5l-4 -29q-25 3 -47 3q-12 -10 -26 -23t-26 -28t-20 -30t-8 -29q0 -20 15.5 -35.5t43.5 -15.5q8 0 17 1t20 4l7 -22q-18 -11 -33 -17t-26 -9q-13 -4 -23 -5q-13 0 -29 3t-29 11t-22 21t-9 33q0 23 24.5 58.5t93.5 84.5q-14 1 -25 1.5t-19 0.5h-17 q-19 0 -40 -1q-18 -1 -41 -2t-48 -4l-2 28q27 4 44 9.5t26.5 12t12.5 13.5t3 14q0 8 -3 20.5t-9.5 32.5t-17 49t-25.5 70q-23 2 -59.5 3t-74.5 1q-40 0 -73.5 -1t-50.5 -3q-15 -41 -25 -70.5t-15.5 -49.5t-8 -32.5t-2.5 -20.5q0 -5 2.5 -12t12.5 -13.5t28.5 -12.5t49.5 -10z M230 304q14 -1 30.5 -1.5t31.5 -0.5h34h37q17 0 36 0.5t39 1.5v1l2 6l-102 265h-11q-20 -48 -37.5 -95t-31.5 -85q-17 -45 -31 -85z" />
<glyph unicode="&#x105;" horiz-adv-x="412" d="M317 375q9 -14 11 -31t2 -37q0 -35 -1 -71.5t-1 -84.5q0 -31 1.5 -55.5t4.5 -32.5q8 -20 26 -20t37 22l13 -23q-23 -28 -50 -39t-44 -11q-20 0 -37 18t-25 47h-5q-8 -9 -22.5 -21t-31.5 -22t-34.5 -17t-32.5 -7t-31 6.5t-29 19.5t-21.5 31.5t-8.5 42.5q0 17 6 37t30 38 q12 9 32.5 17t43.5 16.5t47.5 18.5t45.5 24q10 7 10 18q0 15 -1 30.5t-3 31.5q-3 26 -24 45.5t-56 19.5q-29 0 -42 -13q-7 -7 -11 -16.5t-7 -18.5t-7 -15t-11 -6q-20 0 -35 14t-15 28q0 9 21 21t50 22.5t59 17.5t48 7q28 0 56 -14.5t42 -37.5zM254 213q0 1 -1 2t-5 1 q-12 -10 -29 -19t-34.5 -17.5t-33 -18t-24.5 -21.5q-7 -9 -9 -17.5t-2 -17.5q0 -27 13 -45t41 -18q14 0 27 5.5t23.5 14.5t19 19.5t13.5 20.5q1 11 1.5 27t0.5 32v37q0 11 -1 15zM320 17q-16 -13 -33.5 -29t-31.5 -33t-23.5 -33.5t-9.5 -31.5q0 -20 15.5 -35.5t43.5 -15.5 q8 0 17 1t20 4l7 -22q-18 -11 -33 -17t-26 -9q-7 -2 -12.5 -3t-10.5 -2q-14 0 -29.5 3t-28.5 11t-22 21t-9 33q0 9 4 22.5t14 29.5t27.5 35.5t44.5 40.5l37 30h39z" />
<glyph unicode="&#x106;" horiz-adv-x="738" d="M447 858q20 0 38 -4q15 -3 29.5 -9t19.5 -17l-169 -123l-31 9zM647 485q-12 71 -76 107.5t-160 36.5q-40 0 -78 -10t-70 -29.5t-57.5 -49t-41.5 -69.5q-11 -29 -16 -60t-5 -63q0 -69 19.5 -128t56.5 -102.5t91.5 -68t124.5 -24.5q33 0 64 5.5t58.5 22t51 46.5t39.5 79 l25 -7q-7 -43 -13 -70.5t-9.5 -42.5t-5.5 -20l-2 -5q-48 -28 -103.5 -42t-114.5 -14q-78 0 -149.5 23.5t-125.5 69t-86 113t-32 154.5q0 54 17 101.5t46 86.5t67 68.5t81 47.5t92 25.5t94 7.5q34 0 72 -4q32 -3 73.5 -10t85.5 -20q5 -39 7.5 -67t4.5 -47q2 -22 2 -37z" />
<glyph unicode="&#x107;" horiz-adv-x="396" d="M274 424q42 -2 69 -13q20 -9 24.5 -13.5t4.5 -17.5q0 -17 -13 -32t-27 -15q-9 0 -16 4.5t-13.5 11l-14.5 14.5t-19 14q-13 7 -32 7q-23 0 -48 -12t-45 -39q-17 -23 -24.5 -51t-7.5 -57q0 -45 15 -84t40 -60q21 -18 43 -25.5t42 -7.5q35 0 59.5 17t46.5 42l16 -24 q-18 -20 -36 -37.5t-37 -30t-41 -19.5t-49 -7q-38 0 -75.5 19t-65.5 59q-14 21 -24 52t-10 67q0 27 6 55t20 55.5t37 53t58 46.5q25 15 56 21.5t61 6.5zM298 662q16 0 31 -4q13 -3 25 -10t20 -21l-127 -145l-25 7z" />
<glyph unicode="&#x10a;" horiz-adv-x="738" d="M647 497q-12 71 -76 107.5t-160 36.5q-40 0 -78 -10t-70 -30.5t-57.5 -50.5t-41.5 -70q-11 -29 -16 -60t-5 -63q0 -78 27.5 -150.5t79.5 -117.5q36 -31 82 -47.5t103 -16.5q33 0 64 5.5t58.5 22t51 46.5t39.5 79l25 -7q-7 -43 -13 -70.5t-9.5 -42.5t-5.5 -20l-2 -5 q-48 -28 -103.5 -42t-114.5 -14q-74 0 -145.5 23t-128.5 73q-54 46 -86.5 113t-32.5 160q0 54 17 101.5t46 87.5t67 70t81 48t92 25.5t94 7.5q34 0 72 -4q32 -3 73.5 -10t85.5 -20q5 -39 7.5 -67t4.5 -47q2 -22 2 -37zM358 791q0 23 16 39t39 16t39 -16.5t16 -39.5t-16 -39 t-39 -16t-39 16.5t-16 39.5z" />
<glyph unicode="&#x10b;" horiz-adv-x="396" d="M276 424q20 -1 37.5 -4t31.5 -9q20 -9 24.5 -13.5t4.5 -17.5q0 -17 -13 -32t-27 -15q-9 0 -16 4.5t-13.5 11l-14.5 14.5t-19 14q-13 7 -32 7q-23 0 -48 -12t-45 -39q-17 -23 -24.5 -51t-7.5 -57q0 -44 15 -83.5t40 -60.5q21 -18 43 -25.5t42 -7.5q35 0 59.5 17t46.5 42 l16 -24q-18 -20 -35.5 -37.5t-37 -30t-41.5 -19.5t-49 -7q-38 0 -75.5 19t-65.5 59q-14 21 -24 52t-10 67q0 27 6 55t20 55.5t37.5 53t57.5 46.5q25 15 56 21.5t61 6.5zM186 585q0 24 16 40.5t39 16.5q25 0 41.5 -16.5t16.5 -40.5q0 -23 -16.5 -39t-41.5 -16q-23 0 -39 16 t-16 39z" />
<glyph unicode="&#x110;" horiz-adv-x="802" d="M393 -5q-43 0 -94.5 3.5t-97.5 3.5q-13 0 -33.5 -0.5t-41.5 -1t-39 -1.5t-27 -2l-3 27q20 2 34.5 10t24.5 16q10 10 18 21q2 4 3.5 21.5t2.5 45t1.5 62.5t0.5 73q0 52 -0.5 106t-1.5 99t-2.5 75.5t-3.5 36.5q0 1 -3.5 7t-13.5 13t-28.5 13.5t-48.5 8.5l1 26 q37 3 77.5 5.5t80 4t77 2.5t69.5 1q42 0 81 -3.5t68 -9.5q66 -13 116.5 -45t85 -76.5t52.5 -96t18 -103.5q0 -85 -30 -149t-81.5 -107t-119 -64.5t-142.5 -21.5zM237 583q-2 -33 -3.5 -89.5t-1.5 -119.5v-40q0 -93 2 -158.5t7 -85.5q5 -17 15.5 -27t23.5 -15q14 -5 41 -7.5 t55 -2.5q79 0 133.5 22.5t88.5 60.5t49 88.5t15 106.5q0 64 -15 121.5t-63 103.5q-42 39 -99.5 62.5t-130.5 23.5q-16 0 -48 -1.5t-66 -8.5l-2 -23q-1 -3 -1 -11zM26 370q22 -2 51 -3t60.5 -1.5t64.5 -0.5h63h49t43 0.5t42.5 2t47.5 4.5l2 -13l-43 -44q-50 4 -99.5 5.5 t-113.5 1.5h-51q-54 0 -96 -2.5t-60 -7.5l-4 17z" />
<glyph unicode="&#x111;" horiz-adv-x="502" d="M428 92q3 -9 10 -17q6 -7 18 -13.5t32 -10.5v-19q-29 -5 -52.5 -12t-40.5 -15q-19 -9 -33 -19l-12 5v79h-6q-10 -14 -26 -28.5t-35.5 -26t-40.5 -19t-41 -7.5q-24 0 -52 10.5t-53 34t-41.5 60.5t-16.5 91q0 63 22 108.5t55 74.5t72 43t73 14q23 0 45.5 -4.5t41.5 -11.5h5 v104l-184 -8l-4 13l34 42q18 -2 35 -3.5t34.5 -2.5t38 -1.5t45.5 -0.5q-1 26 -2.5 43.5t-5.5 22.5q-6 6 -21.5 14.5t-44.5 15.5v19q39 8 65.5 15.5t43.5 13.5q19 7 32 13l12 -5q-1 -8 -1.5 -49t-1.5 -101l151 5l3 -13l-34 -40q-28 4 -56.5 5.5t-63.5 2.5q-1 -66 -1.5 -137.5 t-0.5 -132.5q0 -60 0.5 -102t2.5 -50zM352 176q0 5 0.5 17t0.5 27v32.5t-0.5 34t-0.5 30.5v23q-16 25 -46 37t-60 12q-57 0 -95 -44t-38 -123q0 -41 10.5 -73.5t27.5 -55t40.5 -34t48.5 -11.5q26 0 44 8.5t32 22.5q23 23 28.5 45t7.5 52z" />
<glyph unicode="&#x112;" horiz-adv-x="644" d="M43 662q25 -2 58.5 -3t71.5 -1q19 0 57 0.5t79.5 1.5t77 1.5t50.5 0.5q58 0 122 -3l17 -156l-27 -3q-4 15 -10.5 34t-17.5 36t-26.5 29.5t-37.5 14.5q-20 2 -48.5 2.5t-57.5 0.5q-21 0 -41.5 -0.5t-37.5 -1t-29 -1t-16 -1.5q-1 -7 -2.5 -26.5t-2.5 -47t-1.5 -62 t-0.5 -70.5v-44h13.5t33.5 0.5t44.5 1t46.5 1.5t39 2.5t22 3.5q9 4 16 7.5t13 10t11.5 18t12.5 30.5l24 -3q-8 -45 -9 -68.5t-1 -24.5t1 -27.5t7 -73.5l-26 -3q-3 26 -12 41.5t-19 24.5q-11 11 -25 15q-9 2 -28 3.5t-42.5 2.5t-47.5 1h-43h-31v-77.5t0.5 -71.5t2 -59 t3.5 -41q1 -6 5 -13t9 -9q9 -3 25 -5t35.5 -3.5t41 -2t42.5 -0.5q32 0 58.5 2t35.5 6q31 14 58 45.5t42 73.5l30 -5v1q-9 -47 -16.5 -78t-13.5 -51q-7 -23 -12 -36q-25 -2 -52.5 -3t-62.5 -1q-20 0 -55 0.5t-74 1.5t-77.5 1.5t-66.5 0.5q-12 0 -30 -0.5t-37 -1.5t-35.5 -1.5 t-27.5 -1.5q0 6 -1 11t-1.5 9.5t-0.5 6.5q20 2 34.5 10t23.5 16q11 10 18 21q3 5 4.5 27.5t2.5 57t1.5 78t0.5 88.5q0 48 -0.5 94t-1 83.5t-1.5 62.5t-3 30q0 1 -3.5 6.5t-12.5 12.5t-25 14t-43 11q0 7 1.5 17t1.5 9zM504 784l-4 -42l-322 -9l-6 14l19 37h313z" />
<glyph unicode="&#x113;" horiz-adv-x="426" d="M384 251q-25 -5 -55 -6t-56 -1q-36 0 -71.5 1t-85.5 2q-4 -1 -5.5 -4t-1.5 -14q0 -8 0.5 -16t1.5 -16q4 -34 17 -61t32.5 -45.5t43.5 -28.5t49 -10q21 1 42 7q18 5 39.5 17t40.5 33l12 -29q-19 -25 -43 -42.5t-48 -28.5t-46 -16t-37 -5q-33 0 -66 15t-59 41 q-13 14 -23.5 32t-17 37.5t-10 39t-3.5 37.5q0 29 4 56.5t15 52.5q24 57 72 92.5t109 35.5q30 0 54.5 -14t42 -33t29 -39.5t15.5 -34.5l17 -36zM213 390q-21 0 -38.5 -9t-30 -25t-21 -36t-11.5 -43q15 0 45 0.5t60 2.5q35 2 74 3q11 3 11 15q0 5 -2.5 14t-5.5 16 q-11 24 -31 43t-50 19zM383 601l-5 -49l-321 -11l-6 14l29 46h303z" />
<glyph unicode="&#x114;" horiz-adv-x="644" d="M43 662q25 -2 58.5 -3t71.5 -1q19 0 57 0.5t79.5 1.5t77 1.5t50.5 0.5q58 0 122 -3l17 -156l-27 -3q-4 15 -10.5 34t-17.5 36t-26.5 29.5t-37.5 14.5q-20 2 -48.5 2.5t-57.5 0.5q-21 0 -41.5 -0.5t-37.5 -1t-29 -1t-16 -1.5q-1 -7 -2.5 -26.5t-2.5 -47t-1.5 -62 t-0.5 -70.5v-44h13.5t33.5 0.5t44.5 1t46.5 1.5t39 2.5t22 3.5q9 4 16 7.5t13 10t11.5 18t12.5 30.5l24 -3q-8 -45 -9 -68.5t-1 -24.5t1 -27.5t7 -73.5l-26 -3q-3 26 -12 41.5t-19 24.5q-11 11 -25 15q-9 2 -28 3.5t-42.5 2.5t-47.5 1h-43h-31v-77.5t0.5 -71.5t2 -59 t3.5 -41q1 -6 5 -13t9 -9q9 -3 25 -5t35.5 -3.5t41 -2t42.5 -0.5q32 0 58.5 2t35.5 6q31 14 58 45.5t42 73.5l30 -5v1q-9 -47 -16.5 -78t-13.5 -51q-7 -23 -12 -36q-25 -2 -52.5 -3t-62.5 -1q-20 0 -55 0.5t-74 1.5t-77.5 1.5t-66.5 0.5q-12 0 -30 -0.5t-37 -1.5t-35.5 -1.5 t-27.5 -1.5q0 6 -1 11t-1.5 9.5t-0.5 6.5q20 2 34.5 10t23.5 16q11 10 18 21q3 5 4.5 27.5t2.5 57t1.5 78t0.5 88.5q0 48 -0.5 94t-1 83.5t-1.5 62.5t-3 30q0 1 -3.5 6.5t-12.5 12.5t-25 14t-43 11q0 7 1.5 17t1.5 9zM234 847q8 -14 17.5 -25t22.5 -18.5t30.5 -11.5t42.5 -4 t42.5 6.5t30 15.5t20 18.5t12.5 16.5l20 -9q-4 -20 -15 -40.5t-28 -37.5t-40 -28t-52 -11t-51.5 11t-38.5 28t-25 37.5t-12 39.5z" />
<glyph unicode="&#x115;" horiz-adv-x="426" d="M388 251q-25 -5 -55 -6t-56 -1q-36 0 -71.5 1t-85.5 2q-4 -1 -5.5 -4t-1.5 -14q0 -8 0.5 -16t1.5 -16q4 -34 17 -61t32.5 -45.5t43.5 -28.5t49 -10q21 1 42 7q18 5 39.5 17t40.5 33l12 -29q-19 -25 -43 -42.5t-48 -28.5t-46 -16t-37 -5q-33 0 -66 15t-59 41 q-13 14 -23.5 32t-17 37.5t-10 39t-3.5 37.5q0 29 4 56.5t15 52.5q24 57 72 92.5t109 35.5q30 0 54.5 -14t42 -33t29 -39.5t15.5 -34.5l17 -36zM217 390q-21 0 -38.5 -9t-30 -25t-21 -36t-11.5 -43q15 0 45 0.5t60 2.5q35 2 74 3q11 3 11 15q0 5 -2.5 14t-5.5 16 q-11 24 -31 43t-50 19zM115 643q8 -14 17.5 -25t22.5 -18.5t30.5 -11.5t42.5 -4t42.5 6.5t30 15.5t20 18.5t12.5 16.5l20 -9q-4 -20 -15 -40.5t-28 -37.5t-40 -28t-52 -11t-51.5 11t-38.5 28t-25 37.5t-12 39.5z" />
<glyph unicode="&#x116;" horiz-adv-x="644" d="M43 662q25 -2 58.5 -3t71.5 -1q19 0 57 0.5t79.5 1.5t77 1.5t50.5 0.5q58 0 122 -3l17 -156l-27 -3q-4 15 -10.5 34t-17.5 36t-26.5 29.5t-37.5 14.5q-20 2 -48.5 2.5t-57.5 0.5q-21 0 -41.5 -0.5t-37.5 -1t-29 -1t-16 -1.5q-1 -7 -2.5 -26.5t-2.5 -47t-1.5 -62 t-0.5 -70.5v-44h13.5t33.5 0.5t44.5 1t46.5 1.5t39 2.5t22 3.5q9 4 16 7.5t13 10t11.5 18t12.5 30.5l24 -3q-8 -45 -9 -68.5t-1 -24.5t1 -27.5t7 -73.5l-26 -3q-3 26 -12 41.5t-19 24.5q-11 11 -25 15q-9 2 -28 3.5t-42.5 2.5t-47.5 1h-43h-31v-77.5t0.5 -71.5t2 -59 t3.5 -41q1 -6 5 -13t9 -9q9 -3 25 -5t35.5 -3.5t41 -2t42.5 -0.5q32 0 58.5 2t35.5 6q31 14 58 45.5t42 73.5l30 -5v1q-9 -47 -16.5 -78t-13.5 -51q-7 -23 -12 -36q-25 -2 -52.5 -3t-62.5 -1q-20 0 -55 0.5t-74 1.5t-77.5 1.5t-66.5 0.5q-12 0 -30 -0.5t-37 -1.5t-35.5 -1.5 t-27.5 -1.5q0 6 -1 11t-1.5 9.5t-0.5 6.5q20 2 34.5 10t23.5 16q11 10 18 21q3 5 4.5 27.5t2.5 57t1.5 78t0.5 88.5q0 48 -0.5 94t-1 83.5t-1.5 62.5t-3 30q0 1 -3.5 6.5t-12.5 12.5t-25 14t-43 11q0 7 1.5 17t1.5 9zM287 777q0 23 16 39t39 16t39 -16.5t16 -39.5t-16 -39 t-39 -16t-39 16.5t-16 39.5z" />
<glyph unicode="&#x117;" horiz-adv-x="426" d="M384 251q-25 -5 -55 -6t-56 -1q-36 0 -71.5 1t-85.5 2q-4 -1 -5.5 -4t-1.5 -14q0 -8 0.5 -16t1.5 -16q4 -34 17 -61t32.5 -45.5t43.5 -28.5t49 -10q21 1 42 7q18 5 39.5 17t40.5 33l12 -29q-19 -25 -43 -42.5t-48 -28.5t-46 -16t-37 -5q-33 0 -66 15t-59 41 q-13 14 -23.5 32t-17 37.5t-10 39t-3.5 37.5q0 29 4 56.5t15 52.5q24 57 72 92.5t109 35.5q30 0 54.5 -14t42 -33t29 -39.5t15.5 -34.5l17 -36zM213 390q-21 0 -38.5 -9t-30 -25t-21 -36t-11.5 -43q15 0 45 0.5t60 2.5q35 2 74 3q11 3 11 15q0 5 -2.5 14t-5.5 16 q-11 24 -31 43t-50 19zM161 585q0 24 16 40.5t39 16.5q25 0 41.5 -16.5t16.5 -40.5q0 -23 -16.5 -39t-41.5 -16q-23 0 -39 16t-16 39z" />
<glyph unicode="&#x118;" horiz-adv-x="644" d="M43 662q25 -2 58.5 -3t71.5 -1q19 0 57 0.5t79 1.5t77 1.5t51 0.5q57 0 122 -3l17 -156l-27 -3q-4 15 -10.5 34t-17.5 36t-26.5 29.5t-37.5 14.5q-20 2 -48.5 2.5t-57.5 0.5h-41.5t-37.5 -0.5t-29 -1.5t-16 -2q-1 -7 -2.5 -26.5t-2.5 -47.5t-1.5 -62t-0.5 -70v-44 q51 0 92 1q35 1 67 3t40 5q9 4 16 7.5t13 10t11.5 17.5t12.5 31l24 -3q-8 -45 -9 -68.5t-1 -24.5t1 -27t7 -74l-26 -3q-3 26 -12 41.5t-19 24.5q-10 10 -25 15q-9 2 -28.5 3.5t-42.5 2t-47 1t-43 0.5h-31v-77.5t1 -71.5t2 -59t3 -41q1 -6 5 -13t9 -9q9 -3 25 -5t35.5 -3.5 t41 -2t42.5 -0.5q32 0 58.5 2t35.5 6q31 14 58 45.5t42 73.5l30 -5v1q-9 -48 -16.5 -78.5t-13.5 -50.5l-12 -36q-25 -2 -52.5 -3t-62.5 -1q-20 0 -55 0.5t-74 1.5t-77.5 1.5t-66.5 0.5q-12 0 -30 -0.5t-37 -1.5t-36 -1.5t-27 -1.5q0 8 -1 11q-1 5 -1.5 9.5t-0.5 6.5 q20 2 34.5 10t23.5 16q10 10 18 21q3 4 4.5 27t2.5 57.5t1.5 78t0.5 88.5v94t-1 83.5t-2 62.5t-3 30q0 1 -3.5 6.5t-12.5 12.5t-25.5 14t-42.5 11q0 7 1.5 17t1.5 9zM435 17q-16 -13 -33.5 -29t-31.5 -33t-23.5 -33.5t-9.5 -31.5q0 -20 15.5 -35.5t43.5 -15.5q8 0 17 1t20 4 l7 -22q-18 -11 -33 -17t-26 -9q-7 -2 -12.5 -3t-10.5 -2q-14 0 -29.5 3t-28.5 11t-22 21t-9 33t20 51.5t75 74.5l-6 25z" />
<glyph unicode="&#x119;" horiz-adv-x="426" d="M217 390q-21 0 -38.5 -9t-30 -25t-21 -36.5t-11.5 -42.5q15 0 45 0.5t60 2.5l74 3q11 3 11 15q0 5 -2.5 14t-5.5 16q-11 24 -31 43t-50 19zM388 251q-25 -5 -55 -6t-56 -1q-36 0 -71.5 1t-85.5 2q-4 -1 -5.5 -4t-1.5 -14q0 -8 0.5 -16t1.5 -16q4 -34 17 -61t32.5 -45.5 t43 -28.5t49.5 -10q23 2 42 7q18 5 39.5 17t40.5 33l12 -29q-18 -24 -40 -41t-45 -28q-16 -13 -32.5 -28t-29.5 -31t-21 -31.5t-8 -30.5q0 -20 15.5 -35.5t43.5 -15.5q8 0 17 1t20 4l7 -22q-18 -11 -33 -17t-26 -9q-7 -2 -12.5 -3t-10.5 -2q-14 0 -29.5 3t-28.5 11t-22 21 t-9 33t20 51.5t75 74.5l-1 5q-7 -1 -13 -1.5t-11 -0.5q-33 0 -66 15t-59 41q-27 29 -40.5 69.5t-13.5 76.5q0 29 4 56.5t15 52.5q24 57 72 92.5t109 35.5q30 0 54.5 -13.5t42.5 -33t29 -40t15 -34.5l17 -36z" />
<glyph unicode="&#x120;" horiz-adv-x="746" d="M652 19q-11 -1 -27.5 -5t-33.5 -8q-19 -4 -40 -10q-27 -7 -59.5 -13t-75.5 -6q-67 0 -135.5 22t-124 67.5t-90 115t-34.5 164.5q0 54 17 101.5t45.5 87.5t66.5 70t80 48t90.5 25.5t93.5 7.5q36 0 75 -4q33 -3 74 -10t82 -20q5 -39 7.5 -67t4.5 -47q2 -22 3 -37l-27 -5 q-2 16 -7 28.5t-10 22.5q-6 11 -13 20q-21 27 -68.5 50.5t-131.5 23.5q-52 0 -101 -17.5t-87 -52.5t-60.5 -89t-22.5 -127q0 -76 21 -137t60 -104t93.5 -66t121.5 -23q13 0 31.5 3t36.5 8.5t32 12.5t18 14q5 11 6.5 27t1.5 33q0 18 -1.5 35.5t-4 32.5t-5 26t-5.5 14 q-6 8 -28 20t-72 20l3 27q82 -5 121 -6q24 -1 41 -1q16 0 34 1q15 1 34 2.5t39 3.5v-29q-18 -2 -30 -8.5t-20 -13.5q-9 -8 -13 -18q-2 -5 -3 -29.5t-1 -55.5t1 -62t4 -50zM372 786q0 23 16 39t39 16t39 -16.5t16 -39.5t-16 -39t-39 -16t-39 16.5t-16 39.5z" />
<glyph unicode="&#x121;" horiz-adv-x="465" d="M463 413l-6 -57l-88 14q-2 -1 -4 -5q-1 -2 -2 -3q5 -8 11 -26t6 -41q0 -28 -13 -54t-35 -46t-51.5 -31.5t-63.5 -11.5q-5 0 -10 0.5t-10 1.5q-29 -18 -46 -36t-17 -32q0 -15 17.5 -21t45.5 -8t62.5 -2.5t68.5 -3.5q55 -5 85.5 -27.5t30.5 -76.5q0 -31 -17.5 -66.5 t-49.5 -66t-78 -50.5t-102 -20q-37 0 -70.5 10.5t-58.5 29.5t-39.5 45.5t-14.5 58.5q0 15 8 31t22 31.5t32 29t37 21.5v6q-26 12 -46.5 30.5t-23.5 38.5q4 6 16 16t27.5 21t32.5 21.5t30 18.5q3 2 5 3.5t2 4.5q0 2 -5 4q-43 17 -70 52.5t-27 77.5q0 29 13 54t35 43.5 t51.5 29t63.5 10.5q61 0 100 -23zM384 -80q0 25 -14 44t-41 22q-10 1 -37 1.5t-56.5 1t-54.5 1.5t-32 4q-30 -8 -47.5 -33.5t-17.5 -50.5q0 -56 39.5 -89.5t102.5 -33.5q45 0 75.5 15t49 36t26 44t7.5 38zM303 286q0 51 -22 82t-63 31q-36 0 -59 -26.5t-23 -71.5 q0 -25 7 -46t19 -36.5t27.5 -24t33.5 -8.5q28 0 45 16q35 27 35 84zM171 585q0 24 16 40.5t39 16.5q25 0 41.5 -16.5t16.5 -40.5q0 -23 -16.5 -39t-41.5 -16q-23 0 -39 16t-16 39z" />
<glyph unicode="&#x127;" horiz-adv-x="513" d="M500 -3q-54 5 -81 5.5t-27 1.5q0 -1 -25 -1.5t-70 -5.5l-3 27q26 3 37.5 11t16.5 13q6 6 9 22.5t5 38.5t2.5 47t0.5 48q0 43 -3 74q-4 40 -24 66t-59 26q-20 0 -40.5 -7.5t-37.5 -17t-28 -20t-13 -16.5v-33q0 -36 0.5 -75t1 -71.5t2.5 -55t5 -26.5q5 -7 18 -14.5t38 -9.5 l-3 -27q-29 3 -49.5 4t-34.5 2q-16 1 -27 1q-10 0 -23 -1q-11 -1 -27.5 -2t-38.5 -4l-3 25q24 5 38.5 12.5t19.5 12.5q3 3 5 30.5t2.5 63t1 71.5t0.5 55v136v49.5t-1 58.5l-137 -6l-4 13l34 42q27 -4 51 -5.5t54 -2.5q-1 19 -2.5 32.5t-3.5 18.5q-4 6 -12 12q-7 5 -18 11 t-30 11v20q40 11 65.5 20t40.5 16q18 8 28 14l13 -2q-3 -87 -3 -153l197 7l3 -13l-34 -40q-37 5 -75.5 6.5t-91.5 1.5v-87v-71l5 -2q35 26 60.5 40t42.5 21t27.5 8t16.5 1q48 0 81.5 -28.5t42.5 -76.5q2 -12 3 -25t1 -27q0 -41 -1.5 -82t-1.5 -77q0 -20 1.5 -38t6.5 -25 t18.5 -13t39.5 -7z" />
<glyph unicode="&#x12a;" horiz-adv-x="354" d="M342 783l-4 -42q-18 0 -42 -0.5t-50 -1t-53 -1t-53 -1.5q-60 -2 -124 -5l-6 14l19 37h313zM309 -1q-38 2 -73.5 3t-70.5 1q-32 0 -62 -1t-59 -3l-3 27q26 5 41.5 11t24 14.5t11.5 18t4 20.5q2 17 3 44t1.5 60t1 70t0.5 75q0 72 -1 134t-4 97q-1 16 -4.5 26t-12.5 17 t-24.5 12.5t-41.5 11.5l3 26q38 -4 68.5 -5.5t60.5 -1.5t61.5 1.5t73.5 5.5l3 -27q-26 -5 -42 -11t-24.5 -14.5t-12 -18.5t-4.5 -23q-1 -18 -2.5 -46t-2 -63t-1 -74t-0.5 -79q0 -69 1.5 -128t3.5 -90q1 -15 4.5 -24.5t12.5 -16t25.5 -11t43.5 -8.5z" />
<glyph unicode="&#x12b;" horiz-adv-x="314" d="M185 427q-2 -81 -3.5 -140t-1.5 -100q0 -57 1.5 -90.5t7.5 -41.5q9 -12 27 -18.5t42 -11.5l-3 -28q-24 3 -54 5t-56 2q-27 0 -58.5 -2t-56.5 -5l-3 27q26 5 44 12t26 18t9 38.5t1 72.5q0 24 -0.5 48.5t-1.5 45t-2 35t-2 18.5q-2 7 -10 15q-7 7 -19.5 14t-35.5 13v21 q76 26 104.5 41.5t28.5 14.5zM293 601l-5 -49l-321 -11l-6 14l29 46h303z" />
<glyph unicode="&#x12c;" horiz-adv-x="354" d="M70 847q8 -14 17.5 -25t22.5 -18.5t30.5 -11.5t42.5 -4t42.5 6.5t30 15.5t20 18.5t12.5 16.5l20 -9q-4 -20 -15 -40.5t-28 -37.5t-40 -28t-52 -11t-51.5 11t-38.5 28t-25 37.5t-12 39.5zM309 -1q-38 2 -73.5 3t-70.5 1q-32 0 -62 -1t-59 -3l-3 27q26 5 41.5 11.5t24 14.5 t11.5 17.5t4 20.5q2 17 3 44t2 60t1 70v75q0 72 -1 134t-4 97q-1 16 -4.5 26t-12.5 17t-25 12.5t-41 11.5l3 26q38 -4 68.5 -5.5t60.5 -1.5t61.5 1.5t73.5 5.5l3 -27q-26 -5 -41.5 -11t-24.5 -14t-12.5 -18.5t-4.5 -23.5q-1 -18 -2 -46t-2 -63t-1.5 -74t-0.5 -79 q0 -69 1.5 -128t3.5 -90q1 -15 4.5 -24.5t12.5 -16t25.5 -11t43.5 -8.5z" />
<glyph unicode="&#x12d;" horiz-adv-x="267" d="M185 427q-2 -81 -3.5 -140t-1.5 -100q0 -57 1.5 -90.5t7.5 -41.5q9 -12 27 -18.5t42 -11.5l-3 -28q-24 3 -54 5t-56 2q-27 0 -58.5 -2t-56.5 -5l-3 27q26 5 44 12t26 18t9 38.5t1 72.5q0 24 -0.5 48.5t-1.5 45t-2 35t-2 18.5q-2 7 -10 15q-7 7 -19.5 14t-35.5 13v21 q76 26 104.5 41.5t28.5 14.5zM21 643q8 -14 17.5 -25t22.5 -18.5t30.5 -11.5t42.5 -4t42.5 6.5t30 15.5t20 18.5t12.5 16.5l20 -9q-4 -20 -15 -40.5t-28 -37.5t-40 -28t-52 -11t-51.5 11t-38.5 28t-25 37.5t-12 39.5z" />
<glyph unicode="&#x12e;" horiz-adv-x="354" d="M309 -1q-15 1 -28 1.5t-25 1.5q-27 -25 -49 -53t-22 -52q0 -20 15.5 -35.5t43.5 -15.5q8 0 17 1t20 4l7 -22q-18 -11 -33 -17t-26 -9q-13 -4 -23 -5q-13 0 -29 3t-29 11t-22 21t-9 33t20 51.5t75 74.5l-3 11q-8 1 -15 1h-12h-9q-16 0 -36 -1q-17 -1 -40.5 -1.5 t-52.5 -2.5l-3 27q21 2 36 8t24 14q11 9 17 19q3 5 4.5 30t3 62.5t2 84.5t0.5 95t-0.5 93t-1.5 81t-3 59.5t-5 28.5q-5 8 -21 19.5t-57 18.5l3 26q62 -4 100 -6q21 -1 38 -1q16 0 36 1q17 1 40.5 2.5t49.5 3.5l3 -27q-26 -4 -41.5 -11.5t-24 -15t-11 -13l-2.5 -5.5 q-3 -6 -4.5 -33t-3 -67t-2 -88.5t-0.5 -97.5q0 -43 0.5 -84t1.5 -74t2.5 -55t3.5 -28q4 -9 15 -17q9 -7 25.5 -12.5t42.5 -7.5z" />
<glyph unicode="&#x12f;" horiz-adv-x="267" d="M185 427q-2 -81 -3.5 -140t-1.5 -100q0 -57 1.5 -90.5t7.5 -41.5q9 -12 27 -18.5t42 -11.5l-3 -28q-16 3 -35 3q-15 -12 -29 -26t-25 -28.5t-17.5 -28.5t-6.5 -27q0 -20 15.5 -35.5t43.5 -15.5q8 0 17 1t20 4l7 -22q-18 -11 -33 -17t-26 -9q-13 -4 -23 -5q-13 0 -29 3 t-29 11t-22 21t-9 33t20 51.5t75 74.5l-5 19h-19q-27 0 -58.5 -2t-56.5 -5l-3 27q26 5 44 12t26 18t9 38.5t1 72.5q0 24 -0.5 48.5t-1.5 45t-2 35t-2 18.5q-2 7 -10 15q-7 7 -19.5 14t-35.5 13v21q76 26 104.5 41.5t28.5 14.5zM85 592q0 24 16 40.5t39 16.5q25 0 41.5 -16.5 t16.5 -40.5q0 -23 -16.5 -39t-41.5 -16q-23 0 -39 16t-16 39z" />
<glyph unicode="&#x130;" horiz-adv-x="354" d="M309 -1q-38 2 -73.5 3t-70.5 1q-32 0 -62 -1t-59 -3l-3 27q26 5 41.5 11.5t24 14.5t11.5 17.5t4 20.5q2 17 3 44t2 60t1 70v75q0 72 -1 134t-4 97q-1 16 -4.5 26t-12.5 17t-25 12.5t-41 11.5l3 26q38 -4 68.5 -5.5t60.5 -1.5t61.5 1.5t73.5 5.5l3 -27q-26 -5 -41.5 -11 t-24.5 -14t-12.5 -18.5t-4.5 -23.5q-1 -18 -2 -46t-2 -63t-1.5 -74t-0.5 -79q0 -69 1.5 -128t3.5 -90q1 -15 4.5 -24.5t12.5 -16t25.5 -11t43.5 -8.5zM121 783q0 23 16 39t39 16t39 -16.5t16 -39.5t-16 -39t-39 -16t-39 16.5t-16 39.5z" />
<glyph unicode="&#x131;" horiz-adv-x="267" d="M185 427q-2 -81 -3.5 -139.5t-1.5 -100.5q0 -57 1.5 -90.5t7.5 -41.5q9 -12 27 -18.5t42 -11.5l-3 -28q-24 3 -54 5t-56 2q-27 0 -58.5 -2t-56.5 -5l-3 27q26 5 44 12t26 18t9 38.5t1 72.5q0 24 -0.5 48.5t-1.5 45t-2 35t-2 18.5q-1 6 -10 15q-7 7 -19.5 14t-35.5 13v21 q76 26 104.5 41.5t28.5 14.5z" />
<glyph unicode="&#x132;" horiz-adv-x="707" d="M309 -1q-38 2 -73.5 3t-70.5 1q-32 0 -62 -1t-59 -3l-3 27q26 5 41.5 11.5t24 14.5t11.5 17.5t4 20.5q2 17 3 44t2 60t1 70v75q0 72 -1 134t-4 97q-1 16 -4.5 26t-12.5 17t-25 12.5t-41 11.5l3 26q38 -4 68.5 -5.5t60.5 -1.5t61.5 1.5t73.5 5.5l3 -27q-26 -5 -41.5 -11 t-24.5 -14t-12.5 -18.5t-4.5 -23.5q-1 -18 -2 -46t-2 -63t-1.5 -74t-0.5 -79q0 -69 1.5 -128t3.5 -90q1 -15 4.5 -24.5t12.5 -16t25.5 -11t43.5 -8.5zM655 637q-27 -8 -42 -14.5t-22.5 -16t-10 -24t-3.5 -38.5q-1 -20 -1 -44v-51q0 -91 3 -186t3 -175q0 -52 -17 -98.5 t-48.5 -85t-75.5 -69t-98 -52.5l-16 28q41 19 68 43.5t44.5 53.5t26.5 62.5t12 70.5q5 53 5.5 109.5t0.5 114.5v74.5t-1 75.5t-2 69.5t-3 56.5q-2 26 -6 41t-14 25t-28 16t-49 14l3 26q39 -4 74 -5.5t68 -1.5t63.5 1.5t62.5 5.5z" />
<glyph unicode="&#x133;" horiz-adv-x="538" d="M185 427q-2 -81 -3.5 -140t-1.5 -100q0 -57 1.5 -90.5t7.5 -41.5q9 -12 27 -18.5t42 -11.5l-3 -28q-24 3 -54 5t-56 2q-27 0 -58.5 -2t-56.5 -5l-3 27q26 5 44 12t26 18t9 38.5t1 72.5q0 24 -0.5 48.5t-1.5 45t-2 35t-2 18.5q-2 7 -10 15q-7 7 -19.5 14t-35.5 13v21 q76 26 104.5 41.5t28.5 14.5zM85 592q0 24 16 40.5t39 16.5q25 0 41.5 -16.5t16.5 -40.5q0 -23 -16.5 -39t-41.5 -16q-23 0 -39 16t-16 39zM290 383q26 8 51.5 16.5t45 15.5t31.5 11.5l12 4.5l13 -3q-1 -17 -1.5 -57t-0.5 -91q0 -86 1.5 -148t1.5 -83q0 -37 -6 -74.5 t-24 -75.5t-50.5 -75.5t-85.5 -73.5l-17 25q30 22 48.5 44.5t29 46t15 49t7.5 52.5t5 74.5t2 99.5q0 29 -1 61.5t-3 61t-5 49t-7 24.5q-11 11 -62 24v22zM348 595q0 21 15 36t36 15t36 -15t15 -36q0 -22 -15 -37t-36 -15t-36 15t-15 37z" />
<glyph unicode="&#x138;" horiz-adv-x="494" d="M481 389q-19 -2 -35.5 -6t-35.5 -14q-24 -13 -57 -39.5t-86 -76.5v-7q13 -9 22 -22l10 -14q13 -17 29 -38.5t32 -42.5t31.5 -39.5t27.5 -30.5q11 -11 27.5 -20.5t47.5 -13.5l-2 -30q-34 3 -58 4t-40 1q-8 0 -14.5 -0.5t-10.5 -0.5h-8q-48 71 -77.5 110.5t-45.5 59.5 q-18 24 -27 30l-4 2q-2 1 -11 1q-12 0 -22 -6q1 -60 2 -97.5t3 -42.5q4 -7 12 -13q7 -5 18.5 -10.5t30.5 -9.5l-3 -25q-59 6 -105 6q-44 0 -93 -6l-3 27q18 3 29 8t18 10q8 7 11 12q2 4 3.5 21.5t2.5 42t1.5 54t0.5 56.5q0 35 -0.5 61t-2.5 32q-1 6 -10 15q-7 6 -19.5 13.5 t-35.5 12.5v19q35 11 58.5 19t39.5 15q9 4 16.5 7.5t13.5 6.5l16 -5q-2 -23 -2 -54.5t-1 -60.5q-1 -17 -1 -34v-35q0 -1 1 -2l5 -4q13 2 19 5q2 1 3.5 2t3.5 2q5 3 20 15.5t33 28.5t34 33t23 30q4 7 4 12q0 8 -8.5 14.5t-33.5 10.5l3 27q21 -2 42.5 -3t43.5 -1q30 0 58.5 2 t53.5 4z" />
<glyph unicode="&#x139;" horiz-adv-x="643" d="M592 2q-32 -2 -72.5 -3t-92.5 -1q-21 0 -51.5 0.5t-64 1.5t-67.5 1.5t-61 0.5q-36 0 -69 -1.5t-67 -3.5l-3 27q25 6 40.5 13t24 16.5t12 21.5t4.5 28q1 18 2 45t1.5 58.5t1 66.5t0.5 71v60.5t-1 59.5t-2 54.5t-3 44.5q-1 19 -4.5 30.5t-12.5 19t-25 13t-42 11.5l3 26 q29 -4 66 -5.5t75 -1.5t75 1.5t68 5.5l3 -26q-34 -8 -53.5 -14t-30 -13.5t-14.5 -18t-6 -27.5q-3 -34 -4.5 -94t-1.5 -127q0 -38 0.5 -75.5t1.5 -70.5t2 -59.5t2 -41.5q3 -30 26 -38q14 -5 44.5 -7t66.5 -2q61 0 97.5 3t59.5 18t45.5 43.5t56.5 84.5l29 -9zM313 859 q20 0 38 -4q15 -3 29.5 -9t19.5 -17l-169 -123l-31 9z" />
<glyph unicode="&#x13a;" horiz-adv-x="249" d="M211 834q13 -4 24 -9q10 -5 20.5 -12t18.5 -18l-202 -82l-13 12zM170 692q-1 -16 -2 -48.5t-1.5 -75.5t-0.5 -94v-105q0 -86 0.5 -145.5t1.5 -97.5t3 -56.5t5 -21.5q8 -9 20 -14t41 -10l-5 -28q-22 3 -52 5.5t-53 2.5t-55 -2t-53 -5l-3 27q21 4 38.5 10t26.5 18 q3 5 5 29.5t3 65.5t1.5 96.5t0.5 121.5q0 67 -1 114t-3 74q-2 18 -4.5 29.5t-9 20.5t-18.5 16.5t-32 18.5v20q62 9 97.5 23.5t36.5 14.5z" />
<glyph unicode="&#x141;" horiz-adv-x="643" d="M592 2q-32 -2 -72.5 -3t-92.5 -1q-21 0 -51.5 0.5t-64 1.5t-67.5 1.5t-61 0.5q-36 0 -69 -1.5t-67 -3.5l-3 27q25 6 40.5 13t24 16.5t12 21.5t4.5 28q1 18 2 45t1.5 58.5t1 66.5t0.5 71v60.5t-1 59.5t-2 54.5t-3 44.5q-1 19 -4.5 30.5t-12.5 19t-25 13t-42 11.5l3 26 q29 -4 66 -5.5t75 -1.5t75 1.5t68 5.5l3 -26q-34 -8 -53.5 -14t-30 -13.5t-14.5 -18t-6 -27.5q-3 -34 -4.5 -94t-1.5 -127q0 -38 0.5 -75.5t1.5 -70.5t2 -59.5t2 -41.5q3 -30 26 -38q14 -5 44.5 -7t66.5 -2q61 0 97.5 3t59.5 18t45.5 43.5t56.5 84.5l29 -9zM152 313 q-9 -5 -27.5 -17t-38.5 -26t-38 -29t-27 -25h-14v63l144 76zM211 362q5 3 21.5 13t36 23.5t37.5 28.5t27 27h12v-64l-134 -70v42z" />
<glyph unicode="&#x142;" horiz-adv-x="249" d="M102 339q-21 -15 -39 -30q-16 -13 -32 -27.5t-26 -27.5h-11v55l108 67v-37zM152 379q21 15 39 30q16 13 32.5 27.5t25.5 27.5h11v-55l-108 -67v37zM170 705q-1 -16 -2 -50.5t-1.5 -80t-0.5 -98.5v-107q0 -86 0.5 -145.5t1.5 -97.5t3 -56.5t5 -21.5q8 -9 20 -14t41 -10 l-5 -28q-22 3 -52 5.5t-53 2.5t-55 -2t-53 -5l-3 27q21 4 38.5 10t26.5 18q3 5 5 29.5t3 65.5t1.5 96.5t0.5 121.5q0 106 -2.5 167.5t-7.5 69.5q-6 9 -17.5 18.5t-40.5 17.5v20q21 5 44.5 14t43.5 17l46 20z" />
<glyph unicode="&#x143;" horiz-adv-x="848" d="M37 662q25 -2 52 -3.5t54 -1.5q42 0 76 3l441 -512l8 2v193q0 89 -0.5 140t-2.5 77q-1 20 -6 32.5t-15.5 20t-28.5 11.5t-47 8l3 30q29 -2 60 -3.5t63 -1.5t62 1.5t57 3.5l3 -27q-24 -6 -39.5 -12t-24.5 -14t-13 -20.5t-6 -30.5q-2 -21 -3.5 -60.5t-3 -105.5t-2.5 -163.5 t-1 -234.5l-48 -8l-479 555l-7 -3q-1 -48 -1 -87.5v-74.5q0 -69 0.5 -118.5t1.5 -83t2.5 -54t2.5 -32.5q2 -16 7.5 -25.5t16.5 -16t28 -10t42 -7.5l-3 -30q-31 2 -61 3t-60 1q-32 0 -63 -1t-59 -3l-3 27q23 6 38 11t24 11.5t13 16.5t6 25q3 20 5 51.5t3 69t1.5 79.5t0.5 83 q0 38 -0.5 73t-1.5 63.5t-2.5 48.5t-3.5 28q-6 24 -31.5 34t-57.5 15zM488.186 850.673q20.501 0 38.9512 -4.88965q15.375 -3.66602 30.2383 -11q14.8633 -7.33301 19.9883 -20.7773l-173.229 -150.334l-31.7754 11z" />
<glyph unicode="&#x144;" horiz-adv-x="527" d="M455 50q4 -8 12 -12q7 -5 18.5 -8.5t31.5 -4.5l-3 -28q-54 5 -81 5.5t-27 1.5q0 -1 -25 -1.5t-70 -5.5l-3 27q17 3 28 8t18 10q8 7 11 12q3 7 6 22.5t4.5 35.5t2.5 43.5t1 47.5q0 43 -3 76q-11 89 -83 89q-53 0 -107 -42q-8 -6 -10 -13t-2 -17q-1 -26 -1 -63v-67 q0 -45 0.5 -78t3.5 -39q3 -7 12 -11q8 -5 20.5 -9t32.5 -6l-3 -26q-25 3 -44 4t-32 2q-8 1 -14.5 1h-11.5h-11t-14 -1q-13 -1 -31 -2t-42 -4l-3 25q34 10 45 20q4 2 6.5 5t4.5 6q3 6 4.5 38.5t1.5 72.5q0 24 -0.5 48.5t-1.5 45t-2 35t-2 19.5q-2 7 -9 15q-6 6 -17 13t-30 12 v20q37 14 61 24.5t38 18t19.5 11l5.5 3.5l12 -2v-71l5 -3q35 26 60.5 40.5t43 21t28.5 7.5t17 1q51 0 84.5 -30t41.5 -81q2 -11 2 -22.5v-22.5q0 -42 -1.5 -83t-1.5 -77q0 -21 1 -36t3 -21zM308 662q16 0 31 -4q13 -3 25 -10t20 -21l-127 -145l-25 7z" />
<glyph unicode="&#x14a;" horiz-adv-x="838" d="M814 637q-21 -2 -36 -9t-24 -15q-11 -9 -17 -19q-3 -4 -5.5 -31t-4.5 -71t-3 -102.5t-1 -126.5v-12.5v-30t0.5 -65.5t0.5 -119q0 -44 -1.5 -84.5t-5.5 -69.5q-2 -20 -8.5 -42.5t-20 -41.5t-35 -31.5t-54.5 -12.5q-15 0 -27.5 8.5t-22.5 20.5t-15.5 25.5t-5.5 24.5 q0 17 4.5 27.5t15.5 10.5q5 0 11 -3q11 -5 21 -7.5t22 -2.5q21 0 34 7t19.5 22.5t9 41.5t2.5 64l-473 550l-7 -3q-1 -48 -1 -88.5v-75.5q0 -106 1.5 -167.5t3.5 -92.5q2 -36 4 -47q5 -9 16 -17q10 -7 28 -13.5t48 -9.5l-3 -30q-26 2 -48 2.5t-39 1.5q-19 1 -35 1 q-15 0 -34 -1q-17 -1 -39 -1.5t-48 -2.5l-3 26q21 3 36 10.5t24 15.5q11 9 17 19q3 6 6 35t4.5 72t2.5 94t1 102q0 38 -0.5 73.5t-1.5 64t-2.5 49t-3.5 27.5q-6 25 -31.5 34.5t-57.5 14.5l3 28q26 -2 47.5 -3t38.5 -2q19 -1 34 -1q6 0 15 1q8 1 19.5 1t27.5 2l441 -514l7 4 q1 54 1 98.5v82.5q0 91 -1 143t-3 78q-2 31 -4 41q-5 9 -16 17q-10 7 -28 13.5t-48 8.5l3 30q29 -2 52 -2.5t40 -1.5q19 -1 35 -1t34 1q16 1 37 1.5t44 2.5z" />
<glyph unicode="&#x14b;" horiz-adv-x="512" d="M84 -196q0 15 5.5 27.5t13 21.5t16 14t13.5 5q6 0 12.5 -10.5t17 -22.5t28.5 -22.5t46 -10.5q35 0 61 23.5t43 66.5t26 103t9 133q0 46 -3 85t-8 62q-9 45 -28 67t-52 22q-29 0 -56.5 -14.5t-41.5 -27.5q-8 -8 -10.5 -14t-2.5 -16v-130q0 -34 0.5 -60.5t2.5 -41.5 t15 -24.5t54 -15.5l-3 -26q-26 3 -53 4t-53 1t-50 -1t-47 -4l-3 23q35 11 45.5 19.5t12.5 19.5q2 12 3 40.5t1 63.5q0 24 -0.5 48.5t-1.5 45t-2 35.5t-2 19q-2 8 -9 15q-6 6 -17 13t-30 12v20q37 14 61 24.5t38.5 18t20.5 11.5l6 4l14 -5q-1 -11 -1 -22.5t-1 -22.5 q-1 -12 -1 -25l6 -1q31 26 55.5 39.5t42.5 20.5q21 8 37 9q51 0 87 -31t48 -103q4 -24 5.5 -54.5t1.5 -64.5q0 -24 -3.5 -60t-12.5 -77.5t-25 -84.5t-41 -80.5t-60.5 -66t-83.5 -40.5q-19 -5 -31.5 -6.5t-26.5 -1.5q-17 0 -33 4.5t-28 12t-19.5 16.5t-7.5 18z" />
<glyph unicode="&#x14c;" horiz-adv-x="791" d="M32 336q0 78 27.5 143t76 111t116.5 71.5t149 25.5q79 0 144 -25t111.5 -70.5t72.5 -109.5t26 -141q0 -79 -28 -146t-76.5 -116t-114.5 -76.5t-142 -27.5q-71 0 -136.5 27t-115.5 75t-80 114t-30 145zM240 594q-47 -37 -73.5 -97.5t-26.5 -140.5q0 -76 21.5 -138 t58.5 -105.5t86 -67t104 -23.5q53 0 98 21.5t77.5 61t50.5 94.5t18 122q0 95 -35 166.5t-93 110.5q-32 21 -68 32.5t-75 11.5q-83 0 -143 -48zM568 795l-4 -42q-9 0 -27.5 -0.5t-43 -1t-52.5 -1t-56 -1.5q-65 -2 -143 -5l-6 14l19 37h313z" />
<glyph unicode="&#x14d;" horiz-adv-x="500" d="M462 218q0 -49 -16.5 -91t-45.5 -73t-67.5 -49t-83.5 -18q-42 0 -80 16.5t-67.5 46t-46.5 70t-17 89.5q0 48 16.5 88.5t46 70t69.5 45.5t88 16q44 0 81.5 -15t64.5 -42.5t42.5 -66.5t15.5 -87zM378 204q0 88 -36 138.5t-97 50.5q-54 0 -87.5 -46.5t-33.5 -122.5 q0 -51 15.5 -96.5t41.5 -71.5q35 -33 79 -33q26 0 48 13.5t37.5 37.5t24 57.5t8.5 72.5zM409 601l-5 -49l-321 -11l-6 14l29 46h303z" />
<glyph unicode="&#x14e;" horiz-adv-x="791" d="M32 336q0 78 27.5 143t76 111t116.5 71.5t149 25.5q79 0 144 -25t111.5 -70.5t72.5 -109.5t26 -141q0 -79 -28 -146t-76.5 -116t-114.5 -76.5t-142 -27.5q-71 0 -136.5 27t-115.5 75t-80 114t-30 145zM240 594q-47 -37 -73.5 -97.5t-26.5 -140.5q0 -76 21.5 -138 t58.5 -105.5t86 -67t104 -23.5q53 0 98 21.5t77.5 61t50.5 94.5t18 122q0 95 -35 166.5t-93 110.5q-32 21 -68 32.5t-75 11.5q-83 0 -143 -48zM289 859q8 -14 17.5 -25t22.5 -18.5t30.5 -11.5t42.5 -4t42.5 6.5t30 15.5t20 18.5t12.5 16.5l20 -9q-4 -20 -15 -40.5t-28 -37.5 t-40 -28t-52 -11t-51.5 11t-38.5 28t-25 37.5t-12 39.5z" />
<glyph unicode="&#x14f;" horiz-adv-x="500" d="M462 218q0 -49 -16.5 -91t-45.5 -73t-67.5 -49t-83.5 -18q-42 0 -80 16.5t-67.5 46t-46.5 70t-17 89.5q0 48 16.5 88.5t46 70t69.5 45.5t88 16q44 0 81.5 -15t64.5 -42.5t42.5 -66.5t15.5 -87zM378 204q0 88 -36 138.5t-97 50.5q-54 0 -87.5 -46.5t-33.5 -122.5 q0 -51 15.5 -96.5t41.5 -71.5q35 -33 79 -33q26 0 48 13.5t37.5 37.5t24 57.5t8.5 72.5zM145 643q8 -14 17.5 -25t22.5 -18.5t30.5 -11.5t42.5 -4t42.5 6.5t30 15.5t20 18.5t12.5 16.5l20 -9q-4 -20 -15 -40.5t-28 -37.5t-40 -28t-52 -11t-51.5 11t-38.5 28t-25 37.5 t-12 39.5z" />
<glyph unicode="&#x150;" horiz-adv-x="791" d="M32 336q0 78 27.5 143t76 111t116.5 71.5t149 25.5q79 0 144 -25t111.5 -70.5t72.5 -109.5t26 -141q0 -79 -28 -146t-76.5 -116t-114.5 -76.5t-142 -27.5q-71 0 -136.5 27t-115.5 75t-80 114t-30 145zM240 594q-47 -37 -73.5 -97.5t-26.5 -140.5q0 -76 21.5 -138 t58.5 -105.5t86 -67t104 -23.5q53 0 98 21.5t77.5 61t50.5 94.5t18 122q0 95 -35 166.5t-93 110.5q-32 21 -68 32.5t-75 11.5q-83 0 -143 -48zM429 878q11 0 21 -4q8 -3 16.5 -8t12.5 -13l-157 -133l-19 7zM579 873q9 0 19 -4q8 -3 17 -8t14 -13l-173 -130l-18 7z" />
<glyph unicode="&#x151;" horiz-adv-x="500" d="M462 218q0 -49 -16.5 -91t-45.5 -73t-67.5 -49t-83.5 -18q-42 0 -80 16.5t-67.5 46t-46.5 70t-17 89.5q0 48 16.5 88.5t46 70t69.5 45.5t88 16q44 0 81.5 -15t64.5 -42.5t42.5 -66.5t15.5 -87zM378 204q0 88 -36 138.5t-97 50.5q-54 0 -87.5 -46.5t-33.5 -122.5 q0 -51 15.5 -96.5t41.5 -71.5q35 -33 79 -33q26 0 48 13.5t37.5 37.5t24 57.5t8.5 72.5zM271 667q12 -1 23 -5q9 -3 18 -9.5t14 -17.5l-156 -152l-19 7zM421 662q11 0 22 -4q9 -3 18.5 -9.5t14.5 -18.5l-172 -149l-18 7z" />
<glyph unicode="&#x152;" horiz-adv-x="1038" d="M544 332q0 93 -2 158.5t-7 85.5q-5 17 -15.5 27t-23.5 15q-14 5 -33 7.5t-47 2.5q-79 0 -131.5 -22.5t-83.5 -60.5t-44 -88.5t-13 -106.5q0 -68 17 -125t52.5 -98.5t90 -64.5t129.5 -23q11 0 27 1t36 4q25 4 33 10.5t10 28.5q2 33 3.5 89.5t1.5 119.5v40zM662 660 q59 0 106 1t83 1q58 0 122 -3l17 -156l-27 -3q-12 45 -33.5 77.5t-58.5 36.5q-20 2 -48.5 2.5t-57.5 0.5q-21 0 -41.5 -0.5t-37.5 -1t-29 -1t-16 -1.5q-1 -7 -2.5 -26.5t-2.5 -47t-1.5 -62t-0.5 -70.5v-44h13.5t33.5 0.5t44.5 1t46.5 1.5t39 2.5t22 3.5q9 3 16 7t13 10.5 t11.5 18t12.5 30.5l24 -3q-5 -27 -7.5 -52.5t-2.5 -50.5q0 -22 2 -44.5t6 -46.5l-26 -3q-7 45 -28 62.5t-44 21.5q-23 3 -58 3.5t-67 0.5h-51v-77.5t1 -71.5t2 -59t3 -41q2 -17 14.5 -21t29.5 -6q23 -3 43.5 -4.5t50.5 -1.5q32 0 58.5 2t35.5 6q31 14 58 45.5t42 73.5l30 -5 v1q-9 -47 -16.5 -78t-13.5 -51q-7 -23 -12 -36q-25 -2 -52.5 -3t-62.5 -1q-41 0 -98 2t-113 2q-44 0 -88 -3.5t-102 -3.5q-42 0 -79.5 2.5t-66.5 8.5q-66 13 -115.5 46t-83 77t-50.5 96t-17 104q0 85 29 149t79.5 106.5t117 63.5t141.5 21q21 0 52 -1.5t66.5 -3t73 -3 t71.5 -1.5z" />
<glyph unicode="&#x153;" horiz-adv-x="739" d="M704 80q-28 -35 -58 -53.5t-55 -27.5q-29 -11 -57 -11q-40 0 -76 21t-58 60h-7q-26 -38 -62.5 -59t-81.5 -21q-42 0 -80 16t-67.5 45t-46.5 69.5t-17 89.5q0 48 16.5 88.5t46 70t69.5 45.5t88 16t85.5 -21.5t60.5 -60.5h7q25 35 61 57.5t80 22.5q30 0 54.5 -14t42 -33 t28.5 -39.5t15 -34.5l17 -36l-8 -19q-13 -2 -31 -3.5t-34 -2.5q-18 -1 -38 -1h-38q-19 0 -47 1t-64 2q-4 -1 -6 -3l-1 -1q0 -91 33.5 -143.5t95.5 -52.5q20 1 41 8q18 6 39 18.5t41 35.5l12 -29v0zM608 283q12 3 12 15t-6.5 27.5t-18 30t-27.5 24.5t-36 10q-27 0 -48 -18 q-32 -28 -40 -95zM243 393q-26 0 -48 -12t-37.5 -33.5t-24.5 -52t-9 -67.5q0 -45 11 -82.5t29 -64t42 -41.5t51 -15q48 0 73 43q14 23 21.5 57t7.5 76q0 90 -31.5 141t-84.5 51z" />
<glyph unicode="&#x154;" horiz-adv-x="744" d="M449 488q0 34 -13 66t-42 52q-16 11 -37.5 16t-44.5 5t-47.5 -2t-35.5 -4q-2 -6 -4 -34.5t-3.5 -70.5t-2 -93.5t-0.5 -102.5h28t36 0.5t37 1.5t31 2q40 21 68.5 63.5t29.5 100.5zM759 -1q-11 -4 -26.5 -6t-29.5 -3q-16 -1 -32 -1q-21 0 -44 3t-48.5 13.5t-52 30 t-55.5 51.5q-13 15 -35 41t-44.5 52t-40 47.5t-22.5 26.5q-17 20 -35 24.5t-35 4.5q-11 0 -22 -0.5t-18 -2.5q0 -39 0.5 -75.5t1.5 -66t3 -50t6 -27.5q5 -8 23.5 -20t60.5 -14l-4 -30q-31 2 -64 3.5t-66 1.5q-35 0 -69 -1.5t-66 -3.5l-3 27q35 5 52.5 16t22.5 19 q3 5 5.5 34.5t3.5 73t1.5 96t0.5 103.5q0 63 -1.5 118.5t-3.5 86.5q-1 16 -4.5 25.5t-12 15.5t-24.5 10t-42 10l1 26q72 4 121.5 6t82.5 3t52 1h29q35 0 73 -5.5t64 -19.5q86 -47 86 -139q0 -30 -14.5 -58.5t-37 -54t-49.5 -46t-52 -34.5v-6q20 -14 33 -25.5t26 -26.5 q4 -4 19.5 -22.5t34 -40.5t35 -41.5t23.5 -27.5q29 -33 53 -52t46 -29t44 -13t49 -3v-25zM375 859q20 0 38 -4q15 -3 29.5 -9t19.5 -17l-169 -123l-31 9z" />
<glyph unicode="&#x155;" horiz-adv-x="360" d="M180 322q7 13 15.5 27.5t18 27.5t19 24t17.5 17q6 5 9.5 6t10.5 1q13 0 28.5 -3t29 -7.5t23 -9t9.5 -7.5q0 -9 -4.5 -20t-10.5 -21.5t-13.5 -17.5t-13.5 -7q-14 0 -32.5 11t-37.5 11q-9 0 -18.5 -7t-18 -18.5t-15.5 -25t-12 -26.5q-3 -8 -4.5 -17t-2.5 -18 q-2 -6 -2 -25.5v-43.5q0 -19 0.5 -39t1.5 -37t2.5 -28.5t3.5 -13.5q5 -6 23.5 -17.5t59.5 -13.5l-3 -27q-32 3 -55.5 4t-38.5 2q-18 1 -28 1q-11 0 -26 -1q-13 -1 -31.5 -2t-44.5 -4l-3 27q20 3 31.5 8t18.5 10q8 5 11 11q2 3 3.5 16t2 32t1 41.5t0.5 46.5q0 44 -1.5 81 t-3.5 45q-3 8 -10 15q-6 6 -18 12.5t-32 10.5v22q36 13 59 22.5t37 16.5q16 8 25 15l13 -3v-103l7 -1v0zM264 664q16 0 31 -4q13 -3 25 -10t20 -21l-127 -145l-25 7z" />
<glyph unicode="&#x156;" horiz-adv-x="744" d="M362 -93q0 17 14.5 30.5t31.5 13.5q24 0 45 -18.5t21 -43.5q-2 -22 -14 -44q-11 -19 -32 -39.5t-60 -37.5l-17 17q64 33 64 74q0 17 -12.5 22t-38.5 9zM449 488q0 34 -13 66t-42 52q-16 11 -37.5 16t-44.5 5t-47.5 -2t-35.5 -4q-2 -6 -4 -34.5t-3.5 -70.5t-2 -93.5 t-0.5 -102.5h28t36 0.5t37 1.5t31 2q40 21 68.5 63.5t29.5 100.5zM759 -1q-11 -4 -26.5 -6t-29.5 -3q-16 -1 -32 -1q-21 0 -44 3t-48.5 13.5t-52 30t-55.5 51.5q-13 15 -35 41t-44.5 52t-40 47.5t-22.5 26.5q-17 20 -35 24.5t-35 4.5q-11 0 -22 -0.5t-18 -2.5 q0 -39 0.5 -75.5t1.5 -66t3 -50t6 -27.5q5 -8 23.5 -20t60.5 -14l-4 -30q-31 2 -64 3.5t-66 1.5q-35 0 -69 -1.5t-66 -3.5l-3 27q35 5 52.5 16t22.5 19q3 5 5.5 34.5t3.5 73t1.5 96t0.5 103.5q0 63 -1.5 118.5t-3.5 86.5q-1 16 -4.5 25.5t-12 15.5t-24.5 10t-42 10l1 26 q72 4 121.5 6t82.5 3t52 1h29q35 0 73 -5.5t64 -19.5q86 -47 86 -139q0 -30 -14.5 -58.5t-37 -54t-49.5 -46t-52 -34.5v-6q20 -14 33 -25.5t26 -26.5q4 -4 19.5 -22.5t34 -40.5t35 -41.5t23.5 -27.5q29 -33 53 -52t46 -29t44 -13t49 -3v-25z" />
<glyph unicode="&#x157;" horiz-adv-x="360" d="M112 -93q0 17 14.5 30.5t31.5 13.5q24 0 45 -18.5t21 -43.5q-2 -22 -14 -44q-11 -19 -32 -39.5t-60 -37.5l-17 17q64 33 64 74q0 17 -12.5 22t-38.5 9zM180 322q7 13 15.5 27.5t18 27.5t19 24t17.5 17q6 5 9.5 6t10.5 1q13 0 28.5 -3t29 -7.5t23 -9t9.5 -7.5 q0 -9 -4.5 -20t-10.5 -21.5t-13.5 -17.5t-13.5 -7q-14 0 -32.5 11t-37.5 11q-9 0 -18.5 -7t-18 -18.5t-15.5 -25t-12 -26.5q-3 -8 -4.5 -17t-2.5 -18q-2 -6 -2 -25.5v-43.5q0 -19 0.5 -39t1.5 -37t2.5 -28.5t3.5 -13.5q5 -6 23.5 -17.5t59.5 -13.5l-3 -27q-32 3 -55.5 4 t-38.5 2q-18 1 -28 1q-11 0 -26 -1q-13 -1 -31.5 -2t-44.5 -4l-3 27q20 3 31.5 8t18.5 10q8 5 11 11q2 3 3.5 16t2 32t1 41.5t0.5 46.5q0 44 -1.5 81t-3.5 45q-3 8 -10 15q-6 6 -18 12.5t-32 10.5v22q36 13 59 22.5t37 16.5q16 8 25 15l13 -3v-103l7 -1v0z" />
<glyph unicode="&#x15a;" horiz-adv-x="501" d="M434 518l-29 -3q-6 33 -19 57t-32 39t-42.5 22t-49.5 7q-51 0 -85 -27t-34 -75q0 -56 44 -90q35 -27 82 -52t89 -55q33 -23 53 -45.5t31.5 -45t15 -44t3.5 -43.5q0 -28 -13.5 -60.5t-40.5 -60t-68.5 -45.5t-97.5 -18q-24 0 -52 4q-24 3 -55 10t-66 21q-5 14 -10 36 q-5 19 -10 48t-10 70l32 7q8 -28 22.5 -55t36.5 -48.5t53 -35t73 -13.5q26 0 48.5 8t39 22.5t26 33.5t9.5 41q0 31 -14.5 61.5t-57.5 62.5q-17 13 -37 26t-40.5 25.5t-39.5 24t-34 21.5q-47 33 -65.5 74.5t-18.5 81.5q0 29 11 60.5t35 57t63 42t94 16.5q45 0 81.5 -7 t65.5 -15zM322 868q20 0 38 -4q15 -3 29.5 -9t19.5 -17l-169 -123l-31 9z" />
<glyph unicode="&#x15b;" horiz-adv-x="374" d="M252 229q39 -23 57.5 -53t18.5 -61q0 -20 -8.5 -43t-26.5 -42t-45.5 -31.5t-66.5 -12.5q-26 0 -44 5t-33 10q-12 5 -25 5q-4 0 -7 -0.5t-8 -1.5q-4 16 -8 35q-8 35 -14 92l29 5q6 -22 16 -42.5t24.5 -36t33 -24.5t39.5 -9q31 0 53 17t22 49q0 17 -12 34.5t-34 31.5 l-82 49q-43 26 -57 55.5t-14 55.5q0 20 7.5 40.5t24 36.5t41.5 26t60 10q11 0 23 -1q11 -1 25 -3t31 -6l28 -2l15 -113l-29 -5q-4 16 -11.5 33t-19.5 31t-28.5 23t-37.5 9q-29 0 -46 -16t-17 -42q0 -35 40 -58l86 -50v0zM226 662q16 0 31 -4q13 -3 25 -10t20 -21l-127 -145 l-25 7z" />
<glyph unicode="&#x160;" horiz-adv-x="501" d="M134 828q9 11 27 16.5t39 5.5h7.5t7.5 -1l61 -96h6l68 97l8 1q28 0 38 -10l-102 -122l-39 -8l-13 3zM434 518l-29 -3q-12 67 -51 96t-92 29q-51 0 -85 -27t-34 -75q0 -55 44 -90q35 -27 82 -52t89 -55q33 -23 53 -45.5t31.5 -45t15 -44.5t3.5 -43q0 -29 -13.5 -61 t-40.5 -59.5t-68.5 -45.5t-97.5 -18q-12 0 -25 1t-27 3q-24 3 -55 10t-66 21q-2 7 -5 16t-5 20q-5 19 -10 47.5t-10 70.5l32 7q8 -28 22 -55t36.5 -48.5t53.5 -35t73 -13.5q26 0 48.5 8t39 22.5t26 33.5t9.5 41q0 31 -14.5 61.5t-57.5 62.5q-17 13 -37 26t-40.5 25.5 t-39.5 24t-34 21.5q-47 33 -65.5 74.5t-18.5 81.5q0 29 11 60.5t35 57t62.5 42t94.5 16.5q45 0 81.5 -7t65.5 -15z" />
<glyph unicode="&#x161;" horiz-adv-x="374" d="M58 634q9 14 25.5 20.5t37.5 6.5h8t8 -1l63 -117h6l70 118l8 1q26 0 35 -12l-105 -148l-31 -10l-14 4zM252 229q39 -23 57.5 -53t18.5 -61q0 -20 -8.5 -43t-26.5 -42t-45.5 -31.5t-66.5 -12.5q-26 0 -44 5t-33 10q-13 5 -25 5q-4 0 -7 -0.5t-8 -1.5l-8 35q-4 17 -7.5 40 t-6.5 52l29 5q6 -22 16 -42.5t24.5 -36t32.5 -24.5t40 -9q31 0 53 17t22 49q0 17 -12 34.5t-34 31.5l-82 49q-43 26 -57 55.5t-14 55.5q0 20 7.5 40.5t24 36.5t41.5 26t60 10h11t12 -1q21 -1 56 -9l28 -2l15 -113l-29 -5q-4 16 -11.5 33t-19.5 31t-28.5 23t-37.5 9 q-29 0 -45.5 -15.5t-17.5 -38.5q0 -17 10.5 -34t29.5 -28z" />
<glyph unicode="&#x16a;" horiz-adv-x="788" d="M109 212q-1 12 -1 24.5v26.5q0 39 1.5 86.5t1.5 92.5q0 29 -0.5 56t-2 48t-3 35t-4.5 18q-5 8 -21.5 19t-55.5 18l3 26q28 -3 63 -4.5t72 -1.5q35 0 69.5 1.5t63.5 4.5l3 -26q-40 -7 -58 -19.5t-23 -20.5q-4 -7 -6.5 -32t-3.5 -61.5t-1.5 -80.5t-0.5 -89q0 -27 0.5 -54 t2.5 -57q2 -35 12.5 -69t33 -60.5t59 -42.5t91.5 -16q89 0 142 38q35 25 53 61t24 74q5 35 6 75t1 72q0 29 -1 68.5t-3.5 77t-7.5 66.5t-13 37t-26.5 17.5t-57.5 11.5l3 30q29 -2 61 -3.5t65 -1.5q31 0 61 2t56 4l1 -27q-28 -3 -45.5 -13.5t-25.5 -22.5q-5 -9 -8.5 -34 t-5 -58.5t-2 -73.5t-1 -79t-1 -74.5t-2.5 -61.5q-2 -23 -5.5 -47.5t-14.5 -47.5q-20 -42 -57.5 -79.5t-99.5 -56.5q-22 -7 -49 -10.5t-54 -3.5q-45 0 -78.5 6t-59.5 15q-44 16 -72.5 41.5t-45 55.5t-23.5 61t-9 59zM577 783l-4 -42l-322 -9l-6 14l19 37h313z" />
<glyph unicode="&#x16b;" horiz-adv-x="516" d="M166 415q-1 -10 -3 -34.5t-3.5 -56.5t-3 -68t-1.5 -69q0 -24 1 -46t3 -35q5 -26 24 -43t53 -17q21 0 39.5 7t33.5 18t25.5 25t16.5 29q4 8 4.5 16t0.5 16v66.5t-0.5 56t-1.5 40.5t-2 22q-2 7 -10 14q-7 6 -20.5 11.5t-37.5 10.5v22q38 3 64 7t43 7q19 4 31 7l14 -6 q-1 -9 -2.5 -32t-2.5 -53t-1.5 -63.5t-0.5 -64.5q0 -51 1.5 -79.5t9.5 -36.5q7 -7 19 -13.5t35 -11.5v-19q-29 -7 -52 -16t-40 -17q-19 -10 -33 -19l-14 6v69l-8 3q-85 -79 -152 -79q-39 0 -72 23.5t-41 65.5q-3 14 -4 30.5t-1 33.5q0 14 0.5 34.5t1.5 44t1.5 46.5t0.5 42 q0 18 -1 29t-6.5 17.5t-17 10.5t-32.5 9v22q35 5 59 9.5l40 7.5q18 4 30 7zM422 601l-5 -49l-321 -11l-6 14l29 46h303z" />
<glyph unicode="&#x16c;" horiz-adv-x="788" d="M109 212q-1 12 -1 24.5v26.5q0 39 1.5 86.5t1.5 92.5q0 29 -0.5 56t-2 48t-3 35t-4.5 18q-5 8 -21.5 19t-55.5 18l3 26q28 -3 63 -4.5t72 -1.5q35 0 69.5 1.5t63.5 4.5l3 -26q-40 -7 -58 -19.5t-23 -20.5q-4 -7 -6.5 -32t-3.5 -61.5t-1.5 -80.5t-0.5 -89q0 -27 0.5 -54 t2.5 -57q2 -35 12.5 -69t33 -60.5t59 -42.5t91.5 -16q89 0 142 38q35 25 53 61t24 74q5 35 6 75t1 72q0 29 -1 68.5t-3.5 77t-7.5 66.5t-13 37t-26.5 17.5t-57.5 11.5l3 30q29 -2 61 -3.5t65 -1.5q31 0 61 2t56 4l1 -27q-28 -3 -45.5 -13.5t-25.5 -22.5q-5 -9 -8.5 -34 t-5 -58.5t-2 -73.5t-1 -79t-1 -74.5t-2.5 -61.5q-2 -23 -5.5 -47.5t-14.5 -47.5q-20 -42 -57.5 -79.5t-99.5 -56.5q-22 -7 -49 -10.5t-54 -3.5q-45 0 -78.5 6t-59.5 15q-44 16 -72.5 41.5t-45 55.5t-23.5 61t-9 59zM304 842q8 -14 17.5 -25t22.5 -18.5t30.5 -11.5t42.5 -4 t42.5 6.5t30 15.5t20 18.5t12.5 16.5l20 -9q-4 -20 -15 -40.5t-28 -37.5t-40 -28t-52 -11t-51.5 11t-38.5 28t-25 37.5t-12 39.5z" />
<glyph unicode="&#x16d;" horiz-adv-x="516" d="M166 415q-1 -10 -3 -34.5t-3.5 -56.5t-3 -68t-1.5 -69q0 -24 1 -46t3 -35q5 -26 24 -43t53 -17q21 0 39.5 7t33.5 18t25.5 25t16.5 29q4 8 4.5 16t0.5 16v66.5t-0.5 56t-1.5 40.5t-2 22q-2 7 -10 14q-7 6 -20.5 11.5t-37.5 10.5v22q38 3 64 7t43 7q19 4 31 7l14 -6 q-1 -9 -2.5 -32t-2.5 -53t-1.5 -63.5t-0.5 -64.5q0 -51 1.5 -79.5t9.5 -36.5q7 -7 19 -13.5t35 -11.5v-19q-29 -7 -52 -16t-40 -17q-19 -10 -33 -19l-14 6v69l-8 3q-85 -79 -152 -79q-39 0 -72 23.5t-41 65.5q-3 14 -4 30.5t-1 33.5q0 14 0.5 34.5t1.5 44t1.5 46.5t0.5 42 q0 18 -1 29t-6.5 17.5t-17 10.5t-32.5 9v22q35 5 59 9.5l40 7.5q18 4 30 7zM147 643q8 -14 17.5 -25t22.5 -18.5t30.5 -11.5t42.5 -4t42.5 6.5t30 15.5t20 18.5t12.5 16.5l20 -9q-4 -20 -15 -40.5t-28 -37.5t-40 -28t-52 -11t-51.5 11t-38.5 28t-25 37.5t-12 39.5z" />
<glyph unicode="&#x16e;" horiz-adv-x="788" d="M109 212q-1 12 -1 24.5v26.5q0 39 1.5 86.5t1.5 92.5q0 59 -2.5 104t-7.5 53t-21.5 19t-55.5 18l3 26q28 -3 63 -4.5t72 -1.5q35 0 69.5 1.5t63.5 4.5l3 -26q-40 -7 -58 -19.5t-23 -20.5q-4 -7 -6.5 -32t-3.5 -61.5t-1.5 -80.5t-0.5 -89q0 -27 0.5 -54t2.5 -57 q2 -35 12.5 -69t33 -60.5t59 -42.5t91.5 -16q89 0 142 38q35 25 53 61t24 74q5 35 6 75t1 72q0 29 -1 68.5t-3.5 77t-7.5 66.5t-13 37t-26.5 17.5t-57.5 11.5l3 30q29 -2 61 -3.5t65 -1.5q31 0 61 2t56 4l1 -27q-28 -3 -45.5 -13.5t-25.5 -22.5q-5 -10 -8 -34.5t-4.5 -58.5 t-2 -73.5t-1 -78.5t-1.5 -74.5t-3 -61.5q-2 -23 -5.5 -47.5t-14.5 -47.5q-20 -42 -57 -79.5t-100 -56.5q-22 -7 -49 -10.5t-54 -3.5q-45 0 -78.5 6t-59.5 15q-44 16 -72.5 41.5t-45 55.5t-23.5 61t-9 59zM418 869q41 0 69.5 -26t28.5 -64q0 -18 -7.5 -34.5t-21 -28.5 t-31.5 -19t-38 -7q-21 0 -39 7t-31.5 19t-21 28.5t-7.5 34.5q0 38 28.5 64t70.5 26zM423 721q21 2 35.5 18t14.5 39q0 27 -17 43t-38 16q-26 0 -40.5 -16.5t-14.5 -39.5q0 -29 17.5 -44.5t42.5 -15.5z" />
<glyph unicode="&#x16f;" horiz-adv-x="516" d="M166 415q-1 -10 -3 -34.5t-3.5 -56.5t-3 -68t-1.5 -69q0 -24 1 -46t3 -35q5 -26 24 -43t53 -17q21 0 39.5 7t33.5 18t25.5 25t16.5 29q4 8 4.5 16t0.5 16q0 71 -1 122.5t-3 62.5q-1 5 -10 14q-7 6 -20.5 11.5t-37.5 10.5v22q38 3 64 7t43 7l31 7l14 -6q-1 -9 -2.5 -32 t-2.5 -53t-1.5 -63.5t-0.5 -64.5q0 -51 1.5 -79.5t9.5 -36.5q7 -7 19 -13.5t35 -11.5v-19q-29 -7 -52 -16t-40 -17q-10 -5 -18 -9.5t-15 -9.5l-14 6v69l-8 3q-85 -79 -152 -79q-39 0 -72 23.5t-41 65.5q-3 14 -4 30.5t-1 33.5q0 14 0.5 34.5t1.5 44t1.5 46.5t0.5 42 q0 18 -1 29t-6.5 17.5t-17 10.5t-32.5 9v22q35 5 59 9.5l40 7.5l30 7zM253 663q41 0 69.5 -26t28.5 -64q0 -18 -7.5 -34.5t-21 -28.5t-31.5 -19t-38 -7q-21 0 -39 7t-31.5 19t-21 28.5t-7.5 34.5q0 38 28.5 64t70.5 26zM258 515q21 2 35.5 18t14.5 39q0 27 -17 43t-38 16 q-26 0 -40.5 -16.5t-14.5 -39.5q0 -29 17.5 -44.5t42.5 -15.5z" />
<glyph unicode="&#x170;" horiz-adv-x="788" d="M109 212q-1 12 -1 24.5v26.5q0 39 1.5 86.5t1.5 92.5q0 29 -0.5 56t-2 48t-3 35t-4.5 18q-5 8 -21.5 19t-55.5 18l3 26q28 -3 63 -4.5t72 -1.5q35 0 69.5 1.5t63.5 4.5l3 -26q-40 -7 -58 -19.5t-23 -20.5q-4 -7 -6.5 -32t-3.5 -61.5t-1.5 -80.5t-0.5 -89q0 -27 0.5 -54 t2.5 -57q2 -35 12.5 -69t33 -60.5t59 -42.5t91.5 -16q89 0 142 38q35 25 53 61t24 74q5 35 6 75t1 72q0 29 -1 68.5t-3.5 77t-7.5 66.5t-13 37t-26.5 17.5t-57.5 11.5l3 30q29 -2 61 -3.5t65 -1.5q31 0 61 2t56 4l1 -27q-28 -3 -45.5 -13.5t-25.5 -22.5q-5 -9 -8.5 -34 t-5 -58.5t-2 -73.5t-1 -79t-1 -74.5t-2.5 -61.5q-2 -23 -5.5 -47.5t-14.5 -47.5q-20 -42 -57.5 -79.5t-99.5 -56.5q-22 -7 -49 -10.5t-54 -3.5q-45 0 -78.5 6t-59.5 15q-44 16 -72.5 41.5t-45 55.5t-23.5 61t-9 59zM426 859q11 0 21 -4q8 -3 16.5 -8t12.5 -13l-157 -133 l-19 7zM576 854q9 0 19 -4q8 -3 17 -8t14 -13l-173 -130l-18 7z" />
<glyph unicode="&#x171;" horiz-adv-x="516" d="M166 415q-1 -10 -3 -34.5t-3.5 -56.5t-3 -68t-1.5 -69q0 -24 1 -46t3 -35q5 -26 24 -43t53 -17q21 0 39.5 7t33.5 18t25.5 25t16.5 29q4 8 4.5 16t0.5 16v66.5t-0.5 56t-1.5 40.5t-2 22q-2 7 -10 14q-7 6 -20.5 11.5t-37.5 10.5v22q38 3 64 7t43 7q19 4 31 7l14 -6 q-1 -9 -2.5 -32t-2.5 -53t-1.5 -63.5t-0.5 -64.5q0 -51 1.5 -79.5t9.5 -36.5q7 -7 19 -13.5t35 -11.5v-19q-29 -7 -52 -16t-40 -17q-19 -10 -33 -19l-14 6v69l-8 3q-85 -79 -152 -79q-39 0 -72 23.5t-41 65.5q-3 14 -4 30.5t-1 33.5q0 14 0.5 34.5t1.5 44t1.5 46.5t0.5 42 q0 18 -1 29t-6.5 17.5t-17 10.5t-32.5 9v22q35 5 59 9.5l40 7.5q18 4 30 7zM255 685q12 -1 23 -5q9 -3 18 -9.5t14 -17.5l-156 -152l-19 7zM405 680q11 0 22 -4q9 -3 18.5 -9.5t14.5 -18.5l-172 -149l-18 7z" />
<glyph unicode="&#x172;" horiz-adv-x="788" d="M109 212q-1 12 -1 24.5v26.5q0 39 1.5 86.5t1.5 92.5q0 29 -0.5 56t-2 48t-3 35t-4.5 18q-5 8 -21.5 19t-55.5 18l3 26q28 -3 63 -4.5t72 -1.5q35 0 69.5 1.5t63.5 4.5l3 -26q-40 -7 -58 -19.5t-23 -20.5q-4 -7 -6.5 -32t-3.5 -61.5t-1.5 -80.5t-0.5 -89q0 -27 0.5 -54 t2.5 -57q2 -35 12.5 -69t33 -60.5t59 -42.5t91.5 -16q89 0 142 38q35 25 53 61t24 74q5 35 6 75t1 72q0 29 -1 68.5t-3.5 77t-7.5 66.5t-13 37t-26.5 17.5t-57.5 11.5l3 30q29 -2 61 -3.5t65 -1.5q31 0 61 2t56 4l1 -27q-28 -3 -45.5 -13.5t-25.5 -22.5q-5 -9 -8.5 -34 t-5 -58.5t-2 -73.5t-1 -79t-1 -74.5t-2.5 -61.5q-2 -23 -5.5 -47.5t-14.5 -47.5q-20 -42 -57.5 -79.5t-99.5 -56.5q-8 -2 -13 -3q-15 -12 -30.5 -26.5t-28 -29.5t-20 -29.5t-7.5 -27.5q0 -20 15.5 -34.5t43.5 -14.5q8 0 17 1t20 4l7 -21q-18 -11 -33 -16.5t-26 -8.5 q-13 -4 -23 -5q-13 0 -29 3t-29 10.5t-22 20t-9 31.5t20 49t75 72l-3 13l-28 -2q-45 0 -78.5 6t-59.5 15q-44 16 -72.5 41.5t-45 55.5t-23.5 61t-9 59z" />
<glyph unicode="&#x173;" horiz-adv-x="516" d="M166 415q-1 -10 -3 -34.5t-3.5 -56.5t-3 -68t-1.5 -69q0 -24 1 -46t3 -35q5 -26 24 -43t53 -17q21 0 39.5 7t33.5 18t25.5 25t16.5 29q4 8 4.5 16t0.5 16q0 71 -1 122.5t-3 62.5q-1 5 -10 14q-7 6 -20.5 11.5t-37.5 10.5v22q38 3 64 7t43 7l31 7l14 -6q-1 -9 -2.5 -32 t-2.5 -53t-1.5 -63.5t-0.5 -64.5q0 -51 1.5 -79.5t9.5 -36.5q7 -7 19 -13.5t35 -11.5v-19q-40 -8 -72 -22.5t-47 -22.5q-13 -10 -27 -22.5t-25 -26.5t-18.5 -28.5t-7.5 -28.5q0 -20 15.5 -35.5t43.5 -15.5q8 0 17 1t20 4l7 -22q-18 -11 -33 -17t-26 -9q-7 -2 -12.5 -3 t-10.5 -2q-14 0 -29.5 3t-28.5 11t-22 21t-9 33q0 12 6 27t20 33.5t38.5 40.5t61.5 48v56l-8 3q-85 -79 -152 -79q-39 0 -72 23.5t-41 65.5q-3 14 -4 30.5t-1 33.5q0 14 0.5 34.5t1.5 44t1.5 46.5t0.5 42q0 18 -1 29t-6.5 17.5t-17 10.5t-32.5 9v22q35 5 59 9.5l40 7.5l30 7 z" />
<glyph unicode="&#x174;" horiz-adv-x="1052" d="M1058 662q0 -6 1 -11t1 -9.5v-8.5q-15 -2 -25.5 -4.5t-19.5 -8t-17.5 -13.5t-17.5 -22q-4 -7 -16 -34t-28.5 -67.5t-36.5 -90.5t-40.5 -102t-40 -103t-35.5 -92.5t-27 -71t-15 -38.5h-44q-36 105 -66 189t-52 144q-26 70 -47 125h-8l-197 -458h-53q-41 136 -71 233.5 t-51 164.5t-35 107t-22.5 62.5t-13 32t-7.5 13.5q-7 9 -22.5 20t-51.5 14l5 29q28 -2 52 -3.5t42 -2.5q21 -1 39 -1t40 1q19 1 45 2.5t58 3.5l1 -28q-25 -4 -40 -10t-23 -14t-10 -18t-2 -24q0 -11 2 -27t7.5 -41t14.5 -59.5t23 -82.5q13 -42 25 -85q11 -37 23 -79.5 t23 -80.5h9q52 115 82.5 186.5t47.5 112.5q19 48 28 70q2 6 3.5 14.5t1.5 15.5q0 12 -4 26.5t-10 28t-12 24.5t-10 15q-8 8 -23.5 16t-41.5 11l2 28q29 -2 53.5 -3t42.5 -2q21 -1 38 -1q18 0 40 1q19 1 45.5 2t58.5 3l3 -28q-30 -4 -47 -9.5t-26 -12.5t-11.5 -15.5 t-2.5 -17.5q0 -11 3 -27.5t10.5 -41t19 -60t28.5 -84.5q16 -47 31 -92q13 -38 27.5 -81t26.5 -75h10q18 48 34.5 94.5t29.5 83.5q15 43 29 81q57 161 57 212q0 6 -2.5 12.5t-11 13t-25.5 12t-46 7.5l3 28q45 -3 71.5 -4t48.5 -1q24 0 57 1.5t65 4.5zM519.256 784 l-117.155 -76l-16.4238 7l141.243 146h17.5186l141.243 -146l-18.6133 -9z" />
<glyph unicode="&#x175;" horiz-adv-x="731" d="M396 418l8 -2q9 -33 24 -79t32.5 -93t34 -87.5t27.5 -61.5h7q45 102 68.5 166t23.5 87q0 15 -14 23.5t-48 13.5l2 27q42 -3 82 -3q51 0 95 6l2 -26q-26 -8 -39.5 -18t-27.5 -36q-8 -15 -22.5 -46t-34 -76t-44.5 -101.5t-54 -122.5h-39l-107 266h-13l-127 -266h-36 q-10 29 -26.5 76t-35 97.5t-36 97t-29.5 73.5q-5 12 -11 20.5t-14 15t-19.5 11.5t-27.5 9l3 26q32 -3 61.5 -4t57.5 -1q56 0 100 3v-27q-35 -5 -46 -13.5t-11 -19.5q0 -9 6.5 -36t17.5 -63.5t24.5 -78t28.5 -79.5h7q39 84 70.5 160t47.5 149zM369 580l-100 -98l-15 8 l121 183h15l117 -184l-20 -12z" />
<glyph unicode="&#x176;" horiz-adv-x="713" d="M611 657h19t18 1q16 1 34.5 2.5t35.5 3.5l3 -28q-19 -3 -35 -11.5t-28 -18.5q-7 -5 -13.5 -11t-11.5 -13q-17 -21 -46 -62t-61 -87.5t-62.5 -93t-51.5 -78.5q0 -87 1 -139t6 -61q7 -11 29.5 -20t57.5 -12l-3 -30q-33 2 -59 2.5t-44 1.5q-11 1 -20 1h-17h-17t-19 -1 q-17 -1 -41.5 -1.5t-54.5 -2.5l-3 27q38 2 57 13.5t26 21.5q3 4 4.5 19.5t2.5 39.5t1 54.5v63.5q-10 16 -27.5 43t-39 60.5t-45 69.5t-46 69t-41.5 61t-31 44q-11 13 -24 24q-12 9 -28.5 17t-36.5 10l4 28q60 -4 103 -6q11 -1 21.5 -1h19.5h19.5t21.5 1q20 1 46.5 2.5 t57.5 3.5l2 -28q-36 -5 -58.5 -15t-22.5 -22q0 -29 43 -100q19 -33 49.5 -80t76.5 -116h8q64 98 99 155.5t49 87.5q8 17 13 29t5 21q0 13 -19.5 23t-61.5 17l3 28q26 -2 50 -3.5t42 -2.5q11 -1 20.5 -1h19.5zM363 784l-107 -76l-15 7l129 146h16l129 -146l-17 -9z" />
<glyph unicode="&#x177;" horiz-adv-x="477" d="M210 -11q-29 77 -51.5 134t-40 98t-30 67.5t-21.5 42.5q-8 15 -14.5 24t-14.5 14.5t-19 9.5t-27 9l6 29q20 -3 38.5 -4.5t33.5 -2.5q9 -1 17.5 -1h16.5h16.5t17.5 1q15 1 34.5 1.5t39.5 2.5l1 -26q-19 -3 -29.5 -7.5t-16 -9.5t-6.5 -9t-1 -7q0 -4 2 -17.5t11 -43.5 t27 -80.5t49 -128.5h7q12 27 24 58t23.5 61t20.5 56.5t15 44.5q2 7 4 16.5t2 19.5q0 18 -12 28t-54 18l2 27q18 -2 36.5 -2.5t33.5 -1.5q9 -1 17 -1h16h14.5t15.5 1q30 2 70 6l3 -28q-18 -4 -30 -8t-20.5 -10.5t-15.5 -16.5t-16 -26q-14 -27 -33 -68t-40 -87.5t-42 -94.5 t-39 -89.5t-31 -71.5t-18 -41q-19 -41 -39.5 -66t-39 -38t-33 -17t-20.5 -4q-19 0 -33 10.5t-14 32.5q0 3 2 11q3 11 15 23q42 0 68 14t37 25q6 6 12.5 14.5t14 22t17 34.5t21.5 52zM230 580l-100 -98l-15 8l121 183h15l117 -184l-20 -12z" />
<glyph unicode="&#x178;" horiz-adv-x="713" d="M611 657q19 0 37 1q16 1 34.5 2.5t35.5 3.5l3 -28q-19 -3 -35 -11.5t-28 -18.5q-14 -11 -25 -24q-17 -21 -46 -62t-61 -87.5t-62.5 -93t-51.5 -78.5q0 -86 1 -138.5t6 -61.5q7 -11 29.5 -20t57.5 -12l-3 -30q-33 2 -59 2.5t-44 1.5q-21 1 -37 1t-36 -1q-17 -1 -41.5 -1.5 t-54.5 -2.5l-3 27q38 2 57 13.5t26 21.5q3 4 4.5 19.5t2.5 39.5t1 54.5v63.5q-10 16 -27.5 43t-39 60t-45 69t-46 69.5t-41.5 61.5t-31 44q-10 13 -24 24q-12 9 -28.5 17t-36.5 10l4 28q62 -4 103 -6q23 -1 41 -1t41 1q20 1 46.5 2.5t57.5 3.5l2 -28q-36 -5 -58.5 -15 t-22.5 -22q0 -28 43 -100q19 -33 49.5 -80.5t76.5 -115.5h8q32 49 56.5 87.5t42.5 68t30 51t19 36.5q8 17 13 29t5 21q0 13 -19.5 23t-61.5 17l3 28q26 -2 50 -3.5t42 -2.5q21 -1 40 -1zM277 825q20 0 34.5 -14.5t14.5 -34.5t-14.5 -34.5t-34.5 -14.5t-34.5 14.5t-14.5 34.5 t14.5 34.5t34.5 14.5zM499 825q20 0 34.5 -14.5t14.5 -34.5t-14.5 -34.5t-34.5 -14.5t-34.5 14.5t-14.5 34.5t14.5 34.5t34.5 14.5z" />
<glyph unicode="&#x17b;" horiz-adv-x="674" d="M120 664l53 -4h444l4 -19l-439 -585q0 -2 0.5 -5.5t2.5 -5.5q57 0 109.5 0.5t95 2t73 3.5t43.5 6q15 5 30.5 18t29.5 32.5t26 43.5t19 50l31 -7q-14 -104 -24 -149t-10 -44h-556l-7 24l435 583l-2 10q-45 0 -90 -1t-83.5 -2.5t-67.5 -4t-43 -6.5q-29 -8 -54 -39.5 t-48 -79.5l-28 8l47 168zM300 779q0 23 16 39t39 16t39 -16.5t16 -39.5t-16 -39t-39 -16t-39 16.5t-16 39.5z" />
<glyph unicode="&#x17c;" horiz-adv-x="441" d="M415 128q-14 -38 -21 -63t-11 -39q-4 -17 -5 -26q-28 2 -62 2h-71q-30 0 -59.5 -0.5t-56 -1t-49.5 -1t-39 -1.5l-7 24l254 350l-1 6q-10 1 -28 1h-36t-35 -0.5t-30 -2.5q-30 -5 -54 -27.5t-44 -65.5l-24 9l48 135l67 -16l232 5l7 -29l-251 -343l2 -7q10 -1 29.5 -1h41.5 q18 0 35 0.5t29 2.5q39 4 64 25.5t49 71.5zM171 585q0 24 16 40.5t39 16.5q25 0 41.5 -16.5t16.5 -40.5q0 -23 -16.5 -39t-41.5 -16q-23 0 -39 16t-16 39z" />
<glyph unicode="&#x17d;" horiz-adv-x="674" d="M223 828q9 11 27 16.5t39 5.5h7.5t7.5 -1l61 -96h6l68 97l8 1q28 0 38 -10l-102 -122l-39 -8l-13 3zM120 664l53 -4h444l4 -19l-439 -585q0 -2 0.5 -5.5t2.5 -5.5q57 0 109.5 0.5t95 1.5t73 3.5t43.5 6.5q15 5 30.5 18t29.5 32.5t26 43.5t19 50l31 -7q-14 -104 -24 -149 t-10 -44h-556l-7 24l435 583l-2 10q-45 0 -90 -1t-83.5 -2.5t-68 -4t-42.5 -6.5q-29 -8 -54 -39.5t-48 -79.5l-28 8l47 168z" />
<glyph unicode="&#x17e;" horiz-adv-x="441" d="M94 634q9 14 25.5 20.5t37.5 6.5h8t8 -1l63 -117h6l70 118l8 1q26 0 35 -12l-105 -148l-31 -10l-14 4zM415 128q-14 -38 -21 -63t-11 -39q-2 -8 -3 -14.5t-2 -11.5q-28 2 -62 2h-71q-60 0 -115.5 -1t-88.5 -3l-7 24l254 350l-1 6q-10 1 -28 1h-36t-35 -0.5t-30 -2.5 q-30 -5 -54 -27.5t-44 -65.5l-24 9l48 135l67 -16l232 5l7 -29l-251 -343l2 -7q10 -1 29.5 -1h41.5q18 0 35 0.5t29 2.5q39 4 64 25.5t49 71.5z" />
<glyph unicode="&#x17f;" horiz-adv-x="307" d="M284 709q33 0 53 -6t31 -14t15 -16t4 -12q0 -19 -11 -32.5t-34 -16.5q-6 3 -15 11.5t-20.5 16.5t-25.5 14.5t-31 6.5q-27 0 -46 -19q-11 -12 -17.5 -30.5t-9.5 -41t-4 -48.5t-2 -54q-1 -46 -1.5 -94t-0.5 -93q0 -66 1 -118t3 -78q2 -25 18.5 -39t66.5 -21l-3 -27 q-57 6 -121 6q-57 0 -108 -6l-2 26q24 6 37 11.5t19.5 11.5t8.5 13.5t3 17.5q2 18 2.5 45.5t0.5 58.5q0 24 -0.5 48t-1 43.5t-1.5 33.5t-2 18q-2 7 -10 16q-7 7 -19.5 14t-35.5 12v20l48 13q5 2 10.5 3.5t10.5 3.5v36q1 69 20 119t47 83t61 48.5t62 15.5z" />
<glyph unicode="&#x180;" horiz-adv-x="498" d="M429 348q15 -21 23.5 -50t8.5 -65q0 -60 -21 -105.5t-53.5 -76t-71.5 -46t-74 -15.5q-21 -1 -43 3q-19 3 -40 8.5t-38 16.5l-41 -14l-7 7q2 27 4 61.5t3 79.5t1.5 101.5t0.5 128.5v136l-145 -5l-4 11l34 40q15 -2 28 -3.5t26 -2t27.5 -1.5t32.5 -1q-1 25 -2.5 43t-4.5 23 t-10 9q-6 4 -17.5 8.5t-31.5 6.5v20q40 10 66 18t41 14q18 7 27 13l14 -4q-1 -26 -1.5 -53t-1.5 -49q-1 -26 -1 -49l188 7l3 -13l-34 -40q-34 5 -72 6.5t-86 1.5q-1 -32 -1.5 -66t-0.5 -87l6 -1q26 20 48.5 30.5t40 15t28.5 5.5t14 1q38 0 74.5 -16.5t62.5 -51.5zM359 83 q14 19 20.5 50t6.5 65q0 73 -32.5 119t-95.5 46q-27 0 -54.5 -9.5t-48.5 -28.5q-1 -13 -1.5 -36.5t-0.5 -46.5v-42.5v-25.5q0 -36 1.5 -59t6.5 -38t15.5 -23.5t28.5 -16.5q23 -9 47 -9q31 0 60 14.5t47 40.5z" />
<glyph unicode="&#x191;" horiz-adv-x="606" d="M247 610q-4 -28 -4.5 -95.5t-0.5 -161.5h37h45t46.5 1t39.5 2t23 3q5 2 11 5t11 7q9 7 18 18.5t14 31.5l24 -3q-7 -46 -9 -70q-1 -7 -1 -12.5v-10.5v-12t1 -15q1 -14 2.5 -32.5t4.5 -41.5l-25 -3q-3 26 -12 42t-19 25q-10 10 -26 15q-7 2 -20.5 3.5t-30.5 2t-36.5 1 t-37.5 0.5t-33.5 -0.5t-26.5 -0.5q0 -62 1 -107.5t1.5 -81t1.5 -64t1 -56.5q0 -39 -16 -82.5t-44 -80t-67 -60.5t-85 -24q-20 0 -39 4.5t-34 13t-24.5 21t-9.5 27.5q0 16 6.5 30.5t16.5 25.5t22.5 17.5t24.5 6.5q5 0 10.5 -13.5t14.5 -29.5t24 -29.5t40 -13.5t38.5 10.5 t19.5 42.5t7 92.5t1 161.5q0 60 -0.5 124t-1 124t-1.5 111.5t-2 85.5q-2 19 -11 31q-8 12 -25 24t-49 16l3 26q28 -1 49 -2t39.5 -1.5t36 -0.5h38.5q26 0 58.5 0.5t64.5 1.5t60 1.5t44 0.5h31q14 0 31.5 -0.5t34.5 -1.5l29 -161l-28 -6q-4 15 -12 34.5t-20.5 37.5t-28 32 t-34.5 17q-8 1 -22 1.5t-33 0.5q-22 0 -47.5 -0.5t-48 -1.5t-39.5 -2t-22 -2z" />
<glyph unicode="&#x192;" horiz-adv-x="331" d="M18 -245q-30 0 -52 9.5t-22 20.5q0 10 3.5 20.5t8 19t9.5 13.5t8 5q6 0 13 -4.5t15 -10.5t18.5 -10.5t22.5 -4.5q24 0 40 7.5t26 30.5t14.5 66t4.5 114v326h-101l-2 26l103 34q1 32 4.5 65t12.5 63q12 40 33 71t47.5 52t55.5 31.5t58 10.5q26 0 48.5 -7t22.5 -16 q0 -12 -4 -21q-3 -9 -9 -20t-18 -22q-5 3 -15.5 8.5t-23 10.5t-26 9t-24.5 4q-22 0 -43.5 -17.5t-30.5 -65.5q-3 -18 -6.5 -53.5t-3.5 -81.5v-26h128l-6 -55h-121q0 -81 -2 -161t-9.5 -151t-23 -129.5t-43.5 -95.5q-14 -19 -29.5 -31.5t-30.5 -20t-28 -10.5t-22 -3z" />
<glyph unicode="&#x195;" horiz-adv-x="765" d="M713 417q-4 -38 -5 -66t-1 -55v-88q0 -48 -20.5 -88.5t-52.5 -69.5t-71 -45t-76 -16q-20 0 -42 6.5t-41 21.5t-31 40.5t-12 62.5q0 24 1 59.5t1 65.5q0 32 -5 56.5t-17 39.5q-11 14 -26 21.5t-36 7.5t-42 -7.5t-38 -17.5t-28 -20t-11 -16v-33v-74t1 -70t3 -54t5 -28 q4 -6 12 -11q15 -10 49 -14l-3 -27q-29 3 -49.5 4t-34.5 2q-17 1 -28 1q-10 0 -23 -1q-11 -1 -27.5 -2t-38.5 -4l-3 25q17 4 27 8.5t16 8.5q7 4 10 9t5 19.5t2.5 35t1 44.5t0.5 49v206q0 21 -0.5 53.5t-1 64.5t-2.5 57t-5 31q-4 6 -12 12q-7 5 -18 11t-30 11v20 q40 11 65.5 20t40.5 15q18 7 27 13l15 -4q-2 -62 -2 -113.5t-1 -88.5q-1 -43 -1 -78v-71l5 -2q34 26 59.5 40t43.5 20.5t29 7.5t15 1q57 0 89.5 -34.5t37.5 -90.5q1 -8 1 -15.5v-15.5v-18.5t-0.5 -33t-0.5 -36.5v-30q0 -14 1.5 -33t10 -36.5t26 -30t49.5 -12.5q39 0 60.5 15 t32.5 39.5t13.5 57t2.5 67.5q0 36 -2 70.5t-4 48.5q-1 7 -8 13q-6 5 -17.5 11.5t-32.5 11.5v22q69 11 99 20.5t30 8.5z" />
<glyph unicode="&#x197;" horiz-adv-x="354" d="M10 370q31 -3 58 -4t60 -1q0 44 -0.5 84.5t-1.5 72.5t-3 53t-5 26q-5 8 -21 19.5t-57 18.5l3 26q62 -4 100 -6q21 -1 38 -1q16 0 36 1q17 1 40.5 2.5t49.5 3.5l3 -27q-26 -4 -41.5 -11.5t-24 -15t-11 -13l-2.5 -5.5q-2 -5 -4 -26t-3 -52t-2 -69.5t-1 -80.5q39 0 72.5 1.5 t77.5 5.5l2 -13l-43 -44q-20 2 -33.5 3t-25 1.5t-23 1.5t-27.5 1v-15q0 -43 0.5 -84t1.5 -74t2.5 -55t3.5 -28q4 -9 15 -17q9 -7 25.5 -12.5t42.5 -7.5l-3 -30q-32 2 -57.5 2.5t-42.5 1.5q-20 1 -36 1t-36 -1q-17 -1 -40.5 -1.5t-52.5 -2.5l-3 27q21 2 36 8t24 14 q11 9 17 19q2 4 4 27t3 58.5t2 79.5t1 90h-2q-54 0 -96 -2.5t-60 -7.5l-4 17z" />
<glyph unicode="&#x199;" horiz-adv-x="509" d="M498 -4q-73 6 -106 6h-15.5t-11.5 -1t-9 -1q-51 71 -81.5 111.5t-47.5 61t-22.5 25l-5.5 4.5q-5 4 -15 4q-7 0 -13 -1.5t-9 -2.5q1 -55 2.5 -92t3.5 -45t4.5 -14t9 -10.5t18 -8t31.5 -7.5l-3 -27q-19 3 -46.5 4t-57.5 1t-58 -1t-48 -4l-2 26q24 6 40 12t21 20q7 17 8 52 t1 87q0 62 -1 122t-1 102q0 19 1 36t3 34q7 60 29.5 101.5t53 67.5t65 38t64.5 12q27 0 46.5 -5t31.5 -11.5t17.5 -13.5t5.5 -11q0 -19 -13.5 -36.5t-30.5 -18.5q-6 3 -15.5 11t-22.5 16.5t-29 15t-34 6.5q-32 0 -50.5 -19t-28.5 -52.5t-12.5 -79t-2.5 -97.5v-174q19 0 32 8 q6 4 25 18.5t40 33t37 36t16 27.5q0 5 -7.5 13.5t-37.5 11.5l3 27q23 -2 41 -2t30 -1q14 -1 25 -1q19 0 38 1q17 1 37 1.5t40 2.5l3 -28q-48 -4 -105 -41t-121 -92v-7q16 -11 37 -38t44 -57.5t46.5 -58.5t42.5 -41q8 -6 28 -16t45 -10z" />
<glyph unicode="&#x19a;" horiz-adv-x="321" d="M208 705q-1 -16 -2 -50.5t-1.5 -80t-0.5 -98.5v-107q0 -86 0.5 -145.5t1.5 -97.5t3 -56.5t5 -21.5q8 -9 20 -14t41 -10l-5 -28q-22 3 -52 5.5t-53 2.5t-55 -2t-53 -5l-3 27q21 4 38.5 10t26.5 18q3 5 5 29.5t3 65.5t1.5 96.5t0.5 121.5q0 105 -2.5 167t-7.5 70 q-6 9 -17.5 18.5t-40.5 17.5v20q21 5 44.5 14t43.5 17t33 14l13 6zM147 357l-191 -9l-4 13l34 42q19 -2 36 -3.5t35.5 -2.5t40 -1.5t49.5 -0.5v-38zM159 395l207 7l3 -13l-34 -40q-38 5 -79 6.5t-97 1.5v38z" />
<glyph unicode="&#x19e;" horiz-adv-x="517" d="M449 -191q4 -8 11 -13q6 -5 17 -9t28 -4l-3 -28q-26 2 -46.5 3.5t-34.5 2.5q-16 1 -27 1t-25 -1q-12 -1 -29.5 -2t-40.5 -3l-3 27q20 2 32 7t19 10q8 5 12 12q3 7 6 41.5t4.5 83.5t2.5 105t1 106q0 45 -0.5 79.5t-2.5 51.5q-9 89 -78 89q-14 0 -30 -4t-30.5 -10.5 t-26.5 -14t-19 -13.5q-8 -8 -10.5 -14t-2.5 -16v-130q0 -45 0.5 -77.5t3.5 -38.5t12 -11q8 -5 20.5 -9t32.5 -6l-3 -26q-25 3 -44 4t-32 2q-15 1 -26 1q-10 0 -25 -1q-13 -1 -31 -2t-42 -4l-3 25q17 5 28 10t17 10q7 5 11 11q3 6 4.5 38t1.5 72q0 24 -0.5 48.5t-1.5 45 t-2 35.5t-2 19q-2 8 -9 15q-6 6 -17 13t-30 12v20q37 14 61 24.5t38.5 18t20.5 11l6 3.5l14 -4q-1 -11 -1 -22t-1 -22q-1 -12 -1 -24l6 -3q34 26 59 40t42.5 20.5t28 7.5t16.5 1q51 0 82 -32.5t39 -78.5q2 -11 2 -22.5v-22.5q0 -17 -0.5 -53.5t-1 -83t-1 -97t-0.5 -95.5 q0 -51 1 -87t3 -42z" />
<glyph unicode="&#x1a6;" horiz-adv-x="646" d="M774 -123q-11 -4 -26 -5.5t-29 -2.5q-16 -1 -33 -1q-42 0 -91.5 20.5t-102.5 74.5q-12 13 -34 38.5t-46 54.5t-47.5 57t-39.5 45q-24 27 -65 27q-8 0 -20.5 -0.5t-23.5 -2.5q0 -38 0.5 -64t1.5 -33q2 -14 5.5 -23.5t11 -16t21 -10.5t36.5 -7l-3 -30q-26 3 -54.5 4 t-58.5 1q-35 0 -68.5 -1.5t-64.5 -3.5l-3 27q24 6 38.5 11.5t22.5 13t12 19t7 28.5q2 11 3 44.5t2 78.5t1.5 97t0.5 100v55t-0.5 47t-1.5 35t-2 20q-3 15 -5.5 24.5t-10.5 16t-23 11.5t-42 11l4 27q29 -3 63 -4.5t69 -1.5q70 0 127 6l2 -27q-28 -4 -44 -9t-25 -12t-12 -16 t-5 -23q-1 -3 -1 -9t-1 -15q14 1 31 2t35 1q44 0 86 -5t80 -24q43 -23 64 -59t21 -72q0 -28 -12.5 -54.5t-33 -49t-45.5 -41.5t-50 -34l-1 -8q11 -7 19.5 -15t14.5 -14q7 -7 13 -14q9 -10 28 -34t40.5 -50t40.5 -49.5t28 -32.5q23 -26 44.5 -44.5t44 -30.5t48.5 -17.5 t59 -5.5v-25zM347 225q40 20 65 60.5t25 95.5q0 30 -10.5 54.5t-30 42.5t-45.5 28t-58 10q-19 0 -38 -1.5t-37 -6.5q-1 -41 -1.5 -95.5t-0.5 -111.5v-80q54 0 87 1t44 3z" />
<glyph unicode="&#x1af;" horiz-adv-x="788" d="M697 600q-5 -5 -8 -28t-5 -56.5t-2.5 -74.5l-1 -82t-1 -77.5t-2.5 -62.5q-2 -23 -5.5 -47.5t-14.5 -47.5q-20 -42 -57.5 -79.5t-99.5 -56.5q-22 -7 -49 -10.5t-54 -3.5q-45 0 -78.5 6t-59.5 15q-44 16 -72.5 41.5t-45 55.5t-23.5 61t-9 59q-1 12 -1 24.5v26.5 q0 39 1.5 86.5t1.5 92.5q0 29 -0.5 56t-2 48t-3 35t-4.5 18q-5 8 -21.5 19t-55.5 18l3 26q28 -3 63 -4.5t72 -1.5q35 0 69.5 1.5t63.5 4.5l3 -26q-40 -7 -58 -19.5t-23 -20.5q-4 -7 -6.5 -32t-3.5 -61.5t-1.5 -80.5t-0.5 -89q0 -27 0.5 -54t2.5 -57q2 -35 12.5 -69t33 -60.5 t59 -42.5t91.5 -16q89 0 142 38q35 25 53 61t24 74q5 35 6 75t1 72q0 29 -1 68.5t-3.5 76t-7.5 65.5t-13 37t-26.5 17.5t-57.5 11.5l3 30q29 -2 61 -4t65 -2q9 0 24.5 0.5t31.5 1.5t29.5 4t17.5 7q10 10 10 30q0 9 -9.5 19t-35.5 13l-3 15q0 15 15 28t33 13q24 0 42 -16.5 t18 -44.5q0 -12 -2.5 -24t-10 -23.5t-20.5 -23t-35 -22.5q-14 -8 -29.5 -13.5t-28.5 -17.5z" />
<glyph unicode="&#x1b0;" horiz-adv-x="516" d="M433 386q-1 -12 -1.5 -34t-1 -48.5t-1 -53.5t-0.5 -48q0 -51 1.5 -79.5t9.5 -36.5q7 -7 19 -13.5t35 -11.5v-19q-29 -7 -52 -16t-40 -17q-19 -10 -33 -19l-14 6v69l-8 3q-85 -79 -152 -79q-39 0 -72 23.5t-41 65.5q-3 14 -4 30.5t-1 33.5q0 14 0.5 34.5t1.5 44t1.5 46.5 t0.5 42q0 18 -1 29t-6.5 17.5t-17 10.5t-32.5 9v22q35 5 59 9.5l40 7.5q18 4 30 7l13 -6q-1 -10 -3 -34.5t-3.5 -56.5t-3 -68t-1.5 -69q0 -24 1 -46t3 -35q5 -26 24 -43t53 -17q21 0 39.5 7t33.5 18t25.5 25t16.5 29q4 8 4.5 16t0.5 16v66.5t-0.5 56t-1.5 40.5t-2 22 q-2 7 -10 14q-7 6 -20.5 11.5t-37.5 10.5v22q42 0 77.5 2.5t61.5 9.5t40.5 18t14.5 28q0 14 -8 20t-25 9v12q0 6 3.5 13.5t9 14.5t12.5 12t14 5q18 0 34.5 -13t16.5 -38q0 -29 -15.5 -49.5t-35.5 -33.5q-23 -15 -51 -24z" />
<glyph unicode="&#x1b2;" horiz-adv-x="500" />
<glyph unicode="&#x1b5;" horiz-adv-x="674" d="M120 664l53 -4h444l4 -19l-439 -585q0 -2 0.5 -5.5t2.5 -5.5q57 0 109.5 0.5t95 2t73 3.5t43.5 6q15 5 30.5 18t29.5 32.5t26 43.5t19 50l31 -7q-14 -104 -24 -149t-10 -44h-556l-7 24l435 583l-2 10q-45 0 -90 -1t-83.5 -2.5t-67.5 -4t-43 -6.5q-29 -8 -54 -39.5 t-48 -79.5l-28 8l47 168zM156 370q22 -2 51 -3t60.5 -1.5t64.5 -0.5h63h49t43 1t42.5 2t47.5 4l2 -13l-43 -44q-25 2 -49.5 3.5t-50 2.5t-53.5 1h-60h-51q-54 0 -96 -2.5t-60 -7.5l-4 17z" />
<glyph unicode="&#x1b6;" horiz-adv-x="441" d="M380 416l5 -29l-114 -155l1 -5l132 5l3 -11l-31 -35q-29 3 -60 4.5t-70 1.5l-112 -151l3 -7q11 -1 28.5 -1.5t37.5 -0.5t39 0.5t32 2.5q32 4 60.5 24.5t47.5 57.5l25 -8q-4 -11 -9.5 -26.5t-10 -31.5t-8 -29.5t-3.5 -21.5q-30 2 -60 2.5t-54 0.5h-55q-23 0 -49 -1 q-23 -1 -53 -1.5t-65 -2.5l-5 24l124 171l-1 3l-121 -8l-5 11l28 36q26 -2 57 -3.5t66 -1.5l106 144l-4 8q-10 0 -26 0.5t-35 0.5t-36.5 -0.5t-30.5 -2.5q-54 -9 -91 -77l-25 10l42 114l60 -15z" />
<glyph unicode="&#x1b7;" horiz-adv-x="566" d="M265 -21q-63 0 -109 10.5t-86 28.5q-3 10 -6.5 29.5t-7 42t-6 45.5t-2.5 40l28 4q26 -86 73 -122.5t119 -36.5q30 0 59 8.5t51.5 27t36.5 48t14 70.5t-16.5 70t-41 47t-54.5 26.5t-57 8.5q-34 0 -69 -8l-10 23l208 230l-2 12q-30 1 -56.5 1.5t-46.5 0.5q-33 0 -54.5 -0.5 t-35.5 -1.5q-16 -1 -24 -3q-17 -3 -29 -8.5t-22.5 -14.5t-20 -23t-21.5 -34l-26 10l62 158l62 -6h320l8 -29l-214 -227l3 -10h21q38 0 75.5 -12.5t68.5 -36.5t50 -58t19 -76q0 -45 -18.5 -87.5t-52.5 -75t-82 -52t-108 -19.5z" />
<glyph unicode="&#x1bf;" horiz-adv-x="482" d="M164 426q-1 -17 -2 -33.5t-1 -30.5l8 -1q15 6 45.5 17.5t62 23t57.5 20t32 8.5q30 0 54 -25t24 -78q0 -57 -27 -111t-69 -98t-92.5 -76.5t-98.5 -47.5q1 -25 1 -51t1 -48.5t3 -39t8 -22.5q5 -5 15.5 -9t30.5 -8v-20q-36 -11 -60.5 -20t-38.5 -15q-17 -7 -26 -13l-14 4 q2 22 3 61t2 86.5t1.5 101.5t0.5 106q0 48 -0.5 90t-1.5 74.5t-3 53t-6 25.5q-8 10 -21 17t-36 10v20q40 7 66 13t41 11q18 6 27 12zM313 367q-9 0 -26.5 -3t-39 -9t-44.5 -14t-43 -18q-2 -73 -2.5 -144t-0.5 -146l6 -2q57 21 95.5 56.5t61 75t32 78t9.5 65.5 q0 26 -12.5 43.5t-35.5 17.5z" />
<glyph unicode="&#x1d1;" horiz-adv-x="791" d="M240 594q-48 -37 -74 -97t-26 -141q0 -77 21.5 -138.5t58.5 -105t86 -67t104 -23.5q53 0 98 21.5t77.5 61t50.5 94.5t18 122q0 96 -35 167t-93 110q-32 21 -68 32.5t-75 11.5q-83 0 -143 -48zM32 336q0 78 27.5 143t76 111t116.5 71.5t149 25.5q79 0 144 -25t111.5 -70.5 t72.5 -109.5t26 -141q0 -79 -28 -146t-76.5 -116t-114.5 -76.5t-142 -27.5q-71 0 -136.5 27t-115.5 75t-80 114t-30 145zM271 838q9 11 27 16.5t39 5.5h7.5t7.5 -1l61 -96h6l68 97l8 1q28 0 38 -10l-102 -122l-39 -8l-13 3z" />
<glyph unicode="&#x1d2;" horiz-adv-x="500" d="M378 204q0 88 -36 138.5t-97 50.5q-54 0 -87.5 -46.5t-33.5 -122.5q0 -51 15.5 -96.5t41.5 -71.5q34 -33 79 -33q26 0 48 13.5t37.5 37.5t24 57.5t8.5 72.5zM462 218q0 -49 -16.5 -91t-45.5 -73t-67.5 -49t-83.5 -18q-42 0 -80 16.5t-67.5 46t-46.5 70t-17 89.5 q0 48 16.5 88.5t46 70t69.5 45.5t88 16q44 0 81.5 -15t64.5 -42.5t42.5 -66.5t15.5 -87zM122 634q9 14 25.5 20.5t37.5 6.5h8t8 -1l63 -117h6l70 118l8 1q26 0 35 -12l-105 -148l-31 -10l-14 4z" />
<glyph unicode="&#x1d3;" horiz-adv-x="788" d="M109 212q-1 12 -1 24.5v26.5q0 39 1.5 86.5t1.5 92.5q0 59 -2.5 104t-7.5 53t-21.5 19t-55.5 18l3 26q28 -3 63 -4.5t72 -1.5q35 0 69.5 1.5t63.5 4.5l3 -26q-40 -7 -58 -19.5t-23 -20.5q-4 -7 -6.5 -32t-3.5 -61.5t-1.5 -80.5t-0.5 -89q0 -27 0.5 -54t2.5 -57 q2 -35 12.5 -69t33 -60.5t59 -42.5t91.5 -16q89 0 142 38q35 25 53 61t24 74q5 35 6 75t1 72q0 29 -1 68.5t-3.5 77t-7.5 66.5t-13 37t-26.5 17.5t-57.5 11.5l3 30q29 -2 61 -3.5t65 -1.5q31 0 61 2t56 4l1 -27q-28 -3 -45.5 -13.5t-25.5 -22.5q-5 -10 -8 -34.5t-4.5 -58.5 t-2 -73.5t-1 -78.5t-1.5 -74.5t-3 -61.5q-2 -23 -5.5 -47.5t-14.5 -47.5q-20 -42 -57 -79.5t-100 -56.5q-22 -7 -49 -10.5t-54 -3.5q-45 0 -78.5 6t-59.5 15q-44 16 -72.5 41.5t-45 55.5t-23.5 61t-9 59zM287 827.216q9 11.707 27 17.5605t39 5.85352h7.5t7.5 -1.06445 l61 -102.17h6l68 103.234l8 1.06348q28 0 38 -10.6426l-102 -129.841l-39 -8.51367l-13 3.19238z" />
<glyph unicode="&#x1d4;" horiz-adv-x="516" d="M166 415q-1 -10 -3 -34.5t-3.5 -56.5t-3 -68t-1.5 -69q0 -24 1 -46t3 -35q5 -26 24 -43t53 -17q21 0 39.5 7t33.5 18t25.5 25t16.5 29q4 8 4.5 16t0.5 16q0 71 -1 122.5t-3 62.5q-1 5 -10 14q-7 6 -20.5 11.5t-37.5 10.5v22q38 3 64 7t43 7l31 7l14 -6q-1 -9 -2.5 -32 t-2.5 -53t-1.5 -63.5t-0.5 -64.5q0 -51 1.5 -79.5t9.5 -36.5q7 -7 19 -13.5t35 -11.5v-19q-29 -7 -52 -16t-40 -17q-10 -5 -18 -9.5t-15 -9.5l-14 6v69l-8 3q-85 -79 -152 -79q-39 0 -72 23.5t-41 65.5q-3 14 -4 30.5t-1 33.5q0 14 0.5 34.5t1.5 44t1.5 46.5t0.5 42 q0 18 -1 29t-6.5 17.5t-17 10.5t-32.5 9v22q35 5 59 9.5l40 7.5l30 7zM124 634q9 14 25.5 20.5t37.5 6.5h8t8 -1l63 -117h6l70 118l8 1q26 0 35 -12l-105 -148l-31 -10l-14 4z" />
<glyph unicode="&#x1d5;" horiz-adv-x="788" d="M109 212q-1 12 -1 24.5v26.5q0 39 1.5 86.5t1.5 92.5q0 29 -0.5 56t-2 48t-3 35t-4.5 18q-5 8 -21.5 19t-55.5 18l3 26q28 -3 63 -4.5t72 -1.5q35 0 69.5 1.5t63.5 4.5l3 -26q-40 -7 -58 -19.5t-23 -20.5q-4 -7 -6.5 -32t-3.5 -61.5t-1.5 -80.5t-0.5 -89q0 -27 0.5 -54 t2.5 -57q2 -35 12.5 -69t33 -60.5t59 -42.5t91.5 -16q89 0 142 38q35 25 53 61t24 74q5 35 6 75t1 72q0 29 -1 68.5t-3.5 77t-7.5 66.5t-13 37t-26.5 17.5t-57.5 11.5l3 30q29 -2 61 -3.5t65 -1.5q31 0 61 2t56 4l1 -27q-28 -3 -45.5 -13.5t-25.5 -22.5q-6 -9 -9 -34 t-4.5 -58.5t-2 -73.5t-1 -79t-1 -75t-2.5 -61q-2 -23 -5.5 -47.5t-14.5 -47.5q-20 -42 -57.5 -79.5t-99.5 -56.5q-22 -7 -49 -10.5t-54 -3.5q-45 0 -78.5 6t-59.5 15q-44 16 -72.5 41.5t-45 55.5t-23.5 61t-9 59zM598 891l-5 -38q-77 -1 -147 -3q-30 -1 -62 -2t-62 -2 t-57 -2.5t-47 -2.5l-4 11l30 39h354zM317 806q19 0 31.5 -12t12.5 -30q0 -17 -12.5 -29t-31.5 -12q-18 0 -31 12t-13 29q0 18 13 30t31 12zM502 806q19 0 31.5 -12t12.5 -30q0 -17 -12.5 -29t-31.5 -12q-18 0 -30.5 12t-12.5 29q0 18 12.5 30t30.5 12z" />
<glyph unicode="&#x1d6;" horiz-adv-x="516" d="M166 415q-1 -10 -3 -34.5t-3.5 -56.5t-3 -68t-1.5 -69q0 -24 1 -46t3 -35q5 -26 24 -43t53 -17q21 0 39.5 7t33.5 18t25.5 25t16.5 29q4 8 4.5 16t0.5 16v66.5t-0.5 56t-1.5 40.5t-2 22q-2 6 -10 13q-7 5 -20.5 11.5t-37.5 11.5v22q38 3 64 6.5t43 6.5q19 4 31 8l14 -6 q-2 -9 -3 -32t-2 -53t-1.5 -63.5t-0.5 -64.5q0 -51 1.5 -79.5t9.5 -36.5q7 -7 19 -13.5t35 -11.5v-19q-29 -8 -52.5 -16.5t-39.5 -16.5q-19 -10 -33 -19l-14 6v69l-8 3q-85 -79 -152 -79q-39 0 -72 23.5t-41 65.5q-3 14 -4 30.5t-1 33.5q0 13 0.5 34t1.5 44t1.5 46.5 t0.5 42.5q0 18 -1 29t-6.5 17.5t-17 10.5t-32.5 9v22q35 5 59 9.5l40 7.5q18 4 30 7zM419 665l-6 -40l-333 -12l-7 13l30 39h316zM171 576q18 0 30.5 -12.5t12.5 -30.5t-12.5 -30.5t-30.5 -12.5q-19 0 -32 12.5t-13 30.5t13 30.5t32 12.5zM335 576q18 0 31 -12.5t13 -30.5 t-13 -30.5t-31 -12.5q-19 0 -31 12.5t-12 30.5t12 30.5t31 12.5z" />
<glyph unicode="&#x1dd;" horiz-adv-x="424" d="M303 177q5 2 6 3t1 2v17q-1 40 -13.5 71.5t-32.5 54t-46 34.5t-54 12q-21 -1 -42 -8q-18 -6 -38.5 -19t-37.5 -37l-16 26q29 35 59 54t56 28q30 11 57 12q35 0 68 -14t59 -41q14 -14 24.5 -32t17 -37.5t10 -39t3.5 -37.5q0 -29 -4 -57t-15 -52q-24 -57 -72.5 -93 t-108.5 -36q-31 0 -55.5 14.5t-42.5 35t-29 42t-16 36.5l-17 37l8 20q14 3 31.5 4t34.5 2q19 1 39 1h42q42 0 124 -3zM126 140q-11 -3 -11 -16q0 -9 3 -20t8 -20q11 -23 31 -41t48 -18q25 0 44 14q21 14 36 41.5t21 65.5z" />
<glyph unicode="&#x1e2;" horiz-adv-x="951" d="M915 166q-4 -37 -10 -67t-11 -52q-6 -26 -12 -45q-22 -2 -48.5 -3t-63.5 -1q-34 0 -63 0.5t-55 1.5t-50 1.5t-49 0.5q-26 0 -55 -1.5t-63 -3.5l-2 28q48 10 61.5 23.5t13.5 32.5q0 8 -2.5 23.5t-9 41.5t-17 64t-25.5 92q-37 -1 -71.5 -3t-64 -3.5t-51 -3t-32.5 -2.5 q-30 -67 -46.5 -106.5t-24.5 -62t-9.5 -33t-1.5 -21.5q0 -4 3 -10t11 -12t23.5 -11.5t40.5 -8.5l-5 -28q-29 3 -53.5 4t-42.5 2q-21 1 -39 1q-16 0 -33 -1q-14 -1 -30.5 -2t-30.5 -4l-2 28q22 4 41 15t37 37q9 11 27.5 45t41.5 80t48.5 99.5t48.5 103t42 90t28 61.5 q8 19 11.5 31t3.5 27q0 5 -7 11.5t-37 12.5l2 26q28 -2 53 -2.5t44 -1.5q22 -1 41 -1q54 0 108.5 0.5t100 0.5t76.5 0.5t38 0.5h27t27 -2l35 -143l-27 -4q-4 16 -13.5 33t-24 32t-35.5 25.5t-49 13.5q-20 2 -47.5 3t-57.5 1q-21 0 -41.5 -0.5t-37.5 -1t-29 -1.5t-17 -2 q15 -51 35.5 -123t42.5 -147q53 2 88.5 3.5t58.5 4t36 5t20 5.5q9 5 20.5 16.5t14.5 34.5h24q-2 -17 -2 -32v-29q0 -33 3.5 -63.5t12.5 -60.5l-25 -3q-9 29 -18 45t-26.5 24t-46.5 10t-79 2h-17t-24 -1q-14 -1 -29 -1q29 -101 50 -164t34 -76q14 -14 43.5 -17.5t66.5 -3.5 q28 0 48.5 3t37.5 15.5t32.5 38t33.5 70.5zM257 340q23 0 73.5 0.5t112.5 2.5q-10 35 -21 74q-10 33 -22 75.5t-26 87.5h-8q-14 -26 -33 -67.5t-36 -79.5q-20 -45 -40 -93zM708 785l-4 -42q-10 0 -29.5 -0.5t-44.5 -1t-53 -1t-55 -1.5q-64 -2 -140 -5l-6 14l19 37h313z" />
<glyph unicode="&#x1e3;" horiz-adv-x="637" d="M607 259l-9 -19q-26 -4 -60 -5.5t-70 -2t-71.5 -1.5t-63.5 -5l1 -22q2 -21 5 -39.5t10 -35.5q17 -37 46 -57.5t65 -20.5q21 1 42 6q18 5 39 15.5t40 29.5l14 -25q-25 -33 -53.5 -51t-52.5 -26q-28 -10 -56 -11q-38 0 -77.5 20.5t-70.5 64.5h-8q-32 -40 -70.5 -62 t-76.5 -22q-15 0 -31.5 4.5t-30 15t-22 28t-8.5 42.5q0 61 52 101q31 23 70 38.5t81 22.5q2 0 5 1q5 2 13 3q0 14 -0.5 27.5t-2.5 24.5q-2 13 -3 24q-2 26 -24.5 44.5t-57.5 18.5q-12 0 -25.5 -3.5t-20.5 -12.5q-6 -7 -9 -16.5t-5.5 -17t-6 -13t-10.5 -5.5q-19 0 -35 13.5 t-16 32.5q0 9 20.5 20.5t48.5 21t58 16t49 6.5q28 0 55 -14.5t42 -37.5q2 -2 5 -11q33 32 68.5 47t68.5 15q28 0 50 -14t39 -34t28.5 -43.5t18.5 -41.5zM333 254q24 3 51.5 5.5t53 4.5t46 4t30.5 6q4 2 6 8q1 3 1 6q-5 43 -26 71.5t-53 28.5q-46 0 -75.5 -32t-32.5 -86 l-1 -16v0zM256 122q3 18 4 35t1 31q0 9 -0.5 16.5t-0.5 13.5q-67 -17 -105 -44.5t-38 -76.5q0 -22 12.5 -38.5t38.5 -16.5q20 0 35 7t26 18.5t18 25.5t9 29zM476 601l-5 -49l-321 -11l-6 14l29 46h303z" />
<glyph unicode="&#x1e4;" horiz-adv-x="775" d="M652 19q-11 -1 -27.5 -5t-33.5 -8q-19 -4 -40 -10q-27 -7 -59.5 -13t-75.5 -6q-67 0 -135.5 22t-124 67.5t-90 115t-34.5 164.5q0 54 17 101.5t45.5 87.5t66.5 70t80 48t90.5 25.5t93.5 7.5q36 0 75 -4q33 -3 74 -10t82 -20q3 -16 5.5 -36.5t4 -40.5t2.5 -36.5t2 -24.5 l-32 -3q-11 63 -70.5 96.5t-153.5 33.5q-52 0 -101 -17.5t-87 -52.5t-60.5 -89t-22.5 -127q0 -76 21 -137t60 -104t93.5 -66t121.5 -23q13 0 31.5 3t36.5 8.5t32 12.5t18 14q5 11 6.5 27t1.5 33v13t-1 13q-1 7 -1 14l-201 -7l-4 12l37 47q38 -4 76.5 -6t89.5 -2 q-2 20 -5 39.5t-8 28.5q-8 14 -25 21t-53 15l2 27q32 -2 64 -3.5t64 -1.5q30 0 60 1.5t61 3.5v-29q-28 -8 -41 -14.5t-18 -19.5q-4 -9 -5.5 -29t-2.5 -38q26 1 55 2t54 2q29 1 57 2l4 -13l-38 -44q-35 3 -63.5 4.5t-68.5 2.5v-14q0 -32 1 -63t4 -55z" />
<glyph unicode="&#x1e5;" horiz-adv-x="509" d="M437 -63q26 1 46.5 1.5t30.5 1.5l3 -13l-14 -37q-14 2 -32.5 2.5t-40.5 2.5q-10 -27 -29.5 -53.5t-47.5 -47t-63 -33.5t-76 -13q-75 0 -122.5 39t-47.5 108q-27 -1 -48 -1t-32 -2l-4 12l28 36q12 -2 30 -2.5t39 -1.5q11 22 29.5 42t40.5 30q5 3 5 8q0 2 -1 2 q-29 10 -51 28.5t-25 37.5q3 5 20.5 17t37.5 24.5t36 23.5t16 14t-3 4q-43 17 -69.5 52t-26.5 77q0 29 12.5 54t34.5 43t51.5 28.5t63.5 10.5q29 0 54 -5.5t45 -17.5q15 0 40 0.5t48 1.5q27 1 57 2l-6 -57l-86 14q-5 -3 -6 -5t-1 -3q4 -8 10.5 -26t6.5 -40q0 -28 -13 -54 t-35 -45.5t-51.5 -31t-62.5 -11.5q-5 0 -10 0.5t-10 1.5q-29 -18 -46 -35t-17 -29q0 -15 23.5 -20t58 -6.5t74.5 -3t72 -10.5q37 -10 50.5 -41.5t13.5 -73.5zM229 398q-36 0 -59.5 -26t-23.5 -71q0 -24 7 -44.5t19 -36t28 -24.5t35 -9q35 0 56.5 28.5t21.5 73.5 q0 50 -22 79.5t-62 29.5zM154 3q-15 -11 -25.5 -30t-13.5 -39q32 -1 63.5 -1h57.5q28 0 68 0.5t81 1.5q-2 28 -12.5 42.5t-26.5 22.5q-8 4 -25.5 4.5t-34.5 0.5h-52q-15 0 -29.5 1t-25.5 3q-2 0 -3.5 0.5t-3.5 0.5q-11 0 -18 -7zM230 -205q39 0 66.5 9.5t45.5 24t28 32.5 t14 35q-32 1 -64 1.5t-58 0.5q-23 0 -62.5 -0.5t-81.5 -1.5q6 -48 36 -74.5t76 -26.5z" />
<glyph unicode="&#x1ea;" horiz-adv-x="791" d="M32 336q0 78 27.5 143t76 111t116.5 71.5t149 25.5q79 0 144 -25t111.5 -70.5t72.5 -109.5t26 -141q0 -69 -22 -129.5t-61 -108t-92.5 -79t-116.5 -43.5q-15 -13 -29.5 -27.5t-26.5 -29.5t-19 -29.5t-7 -27.5q0 -20 15.5 -35.5t43.5 -15.5q8 0 17 1t20 4l7 -22 q-18 -11 -33 -17t-26 -9q-13 -4 -23 -5q-13 0 -29 3t-29 11t-22 21t-9 33t20 51.5t75 74.5l-3 16l-11 -1q-71 0 -136.5 26.5t-115.5 74t-80 113.5t-30 145zM240 594q-47 -37 -73.5 -97.5t-26.5 -140.5q0 -76 21.5 -138t58.5 -105.5t86 -67t104 -23.5q53 0 98 21.5t77.5 61 t50.5 94.5t18 122q0 95 -35 166.5t-93 110.5q-32 21 -68 32.5t-75 11.5q-83 0 -143 -48z" />
<glyph unicode="&#x1eb;" horiz-adv-x="500" d="M462 218q0 -37 -10 -71t-28 -61.5t-42.5 -49t-54.5 -33.5q-16 -13 -32.5 -28.5t-29.5 -32t-21.5 -32.5t-8.5 -30q0 -20 15.5 -35.5t43.5 -15.5q8 0 17 1t20 4l7 -22q-18 -11 -33 -17t-26 -9q-13 -4 -23 -5q-13 0 -29 3t-29 11t-22 21t-9 33t20 51.5t75 74.5l-3 12h-10 q-42 0 -80 16.5t-67.5 46t-46.5 70t-17 89.5q0 48 16.5 88.5t46 70t69.5 45.5t88 16q44 0 81.5 -15t64.5 -42.5t42.5 -66.5t15.5 -87zM378 204q0 88 -36 138.5t-97 50.5q-54 0 -87.5 -46.5t-33.5 -122.5q0 -51 15.5 -96.5t41.5 -71.5q35 -33 79 -33q26 0 48 13.5t37.5 37.5 t24 57.5t8.5 72.5z" />
<glyph unicode="&#x1ec;" horiz-adv-x="791" d="M32 336q0 78 27.5 143t76 111t116.5 71.5t149 25.5q79 0 144 -25t111.5 -70.5t72.5 -109.5t26 -141q0 -69 -22 -129.5t-61 -108t-92.5 -79t-116.5 -43.5q-15 -13 -29.5 -27.5t-26.5 -29.5t-19 -29.5t-7 -27.5q0 -20 15.5 -35.5t43.5 -15.5q8 0 17 1t20 4l7 -22 q-18 -11 -33 -17t-26 -9q-13 -4 -23 -5q-13 0 -29 3t-29 11t-22 21t-9 33t20 51.5t75 74.5l-3 16l-11 -1q-71 0 -136.5 26.5t-115.5 74t-80 113.5t-30 145zM240 594q-47 -37 -73.5 -97.5t-26.5 -140.5q0 -76 21.5 -138t58.5 -105.5t86 -67t104 -23.5q53 0 98 21.5t77.5 61 t50.5 94.5t18 122q0 95 -35 166.5t-93 110.5q-32 21 -68 32.5t-75 11.5q-83 0 -143 -48zM566 785l-4 -42l-322 -9l-6 14l19 37h313z" />
<glyph unicode="&#x1ed;" horiz-adv-x="500" d="M462 218q0 -37 -10 -71t-28 -61.5t-42.5 -49t-54.5 -33.5q-16 -13 -32.5 -28.5t-29.5 -32t-21.5 -32.5t-8.5 -30q0 -20 15.5 -35.5t43.5 -15.5q8 0 17 1t20 4l7 -22q-18 -11 -33 -17t-26 -9q-13 -4 -23 -5q-13 0 -29 3t-29 11t-22 21t-9 33t20 51.5t75 74.5l-3 12h-10 q-42 0 -80 16.5t-67.5 46t-46.5 70t-17 89.5q0 48 16.5 88.5t46 70t69.5 45.5t88 16q44 0 81.5 -15t64.5 -42.5t42.5 -66.5t15.5 -87zM378 204q0 88 -36 138.5t-97 50.5q-54 0 -87.5 -46.5t-33.5 -122.5q0 -51 15.5 -96.5t41.5 -71.5q35 -33 79 -33q26 0 48 13.5t37.5 37.5 t24 57.5t8.5 72.5zM427 601l-5 -49l-321 -11l-6 14l29 46h303z" />
<glyph unicode="&#x1f4;" horiz-adv-x="746" d="M463 868q20 0 38 -4q15 -3 29.5 -9t19.5 -17l-169 -123l-31 9zM652 19q-11 -1 -27.5 -5t-33.5 -8q-19 -4 -40 -10q-27 -7 -59.5 -13t-75.5 -6q-82 0 -152.5 24.5t-122 70t-80.5 110.5t-29 146q0 63 22 125t69.5 110.5t122 78.5t179.5 30q36 0 75 -4q33 -3 74 -10t82 -20 q5 -39 7.5 -67t4.5 -47q2 -22 3 -37l-27 -5q-14 72 -72.5 108.5t-157.5 36.5q-52 0 -101 -16.5t-87 -50.5t-60.5 -87t-22.5 -126q0 -76 21 -135.5t60 -101t93.5 -63.5t121.5 -22q13 0 31.5 3t36.5 8.5t31.5 12.5t17.5 14q5 11 7 27t2 33q0 36 -4.5 63.5t-12.5 43.5 q-7 14 -34 23.5t-65 17.5l3 27q82 -5 121 -6q24 -1 41 -1q16 0 34 1q15 1 34 2.5t39 3.5v-29q-37 -9 -50 -22.5t-15 -30.5q-2 -12 -2 -31v-41q0 -31 1 -62t4 -50z" />
<glyph unicode="&#x1f5;" horiz-adv-x="465" d="M303 286q0 51 -21.5 82t-63.5 31q-36 0 -59 -26.5t-23 -71.5q0 -25 7 -46t19 -36.5t27.5 -24t33.5 -8.5q29 0 45 16q35 27 35 84zM384 -80q0 25 -14 44t-41 22q-10 1 -37 1.5t-56.5 1t-54.5 1.5t-32 4q-30 -8 -47.5 -33.5t-17.5 -50.5q0 -57 39.5 -90t102.5 -33 q45 0 75.5 15t49 36t26 44t7.5 38zM463 413l-6 -57l-88 14l-2 -2t-2 -3l-2 -3q5 -8 11 -26t6 -41q0 -29 -13 -54.5t-35 -45.5t-51.5 -31.5t-63.5 -11.5q-5 0 -10 0.5t-10 1.5q-29 -18 -46 -36t-17 -32q0 -15 17.5 -21t45.5 -8t62.5 -2.5t68.5 -3.5q55 -5 85.5 -27.5 t30.5 -76.5q0 -31 -17.5 -66.5t-50 -66t-78 -50.5t-101.5 -20q-38 0 -71 10.5t-58 29.5t-39.5 45.5t-14.5 58.5q0 14 8 30.5t22 32t31.5 29t37.5 21.5v6q-26 12 -46.5 30.5t-23.5 38.5q4 6 16 16t27.5 20.5t32 21.5t30.5 19q3 2 5 3.5t2 4.5q0 2 -5 4q-43 17 -70 52.5 t-27 77.5q0 29 13 54t35 43.5t51.5 29t63.5 10.5q60 0 100 -23zM260 662q16 0 31 -4q13 -3 25 -10t20 -21l-127 -145l-25 7z" />
<glyph unicode="&#x1f6;" horiz-adv-x="1243" d="M595 321q-16 1 -38.5 1.5t-48 1t-53 1t-53.5 0.5q-32 0 -61 -0.5t-53 -1.5t-41 -2t-26 -2q0 -44 1 -86.5t2 -76.5t3 -57t4 -29q5 -11 16 -20q9 -8 25 -14.5t42 -8.5l-3 -30q-30 2 -55 2.5t-42 1.5q-20 1 -36 1q-15 0 -35 -1q-17 -1 -41 -1.5t-54 -2.5l-3 27q20 2 34.5 10 t24.5 16q11 10 18 21q2 4 3.5 21.5t2.5 45t1.5 62.5t0.5 73q0 44 -0.5 90t-1 86.5t-1.5 73.5t-2 51q-1 14 -4 22.5t-11 15.5q-9 7 -23.5 14t-45.5 12l3 26q66 -4 102 -6q21 -1 37 -1q17 0 36 1q17 1 39 2.5t48 3.5l3 -26q-26 -5 -42 -13.5t-24 -15.5t-11 -17.5t-5 -24.5 q-3 -26 -4 -77t-2 -114q19 -1 84.5 -2t177.5 -1h64t50 1q1 17 1 34v34q0 29 -0.5 56t-2 48t-3 35t-4.5 18q-5 8 -18.5 19t-52.5 18l3 26q28 -3 57.5 -4.5t66.5 -1.5q35 0 64.5 1.5t58.5 4.5l3 -26q-20 -3 -32.5 -8.5t-20.5 -11t-12 -11t-6 -9.5q-4 -7 -6.5 -32t-3.5 -61.5 t-1.5 -80.5t-0.5 -89q0 -27 0.5 -54t2.5 -57q2 -35 10.5 -69t28 -60.5t53 -42.5t84.5 -16q91 0 143 44t66 129q5 35 6 75t1 72q0 29 -1 68t-3.5 76t-7 66t-11.5 38q-7 11 -22 19.5t-54 10.5l3 30q29 -2 56 -3.5t60 -1.5q31 0 61 2t56 4l1 -27q-28 -3 -45.5 -13.5 t-25.5 -22.5q-4 -7 -7.5 -24t-5.5 -41t-3 -52.5t-1 -59.5v-160q0 -74 -21.5 -128.5t-58.5 -90t-87 -53t-106 -17.5q-65 0 -114 18.5t-82 51t-50 76t-17 92.5z" />
<glyph unicode="&#x1f7;" horiz-adv-x="674" d="M642 492q0 -57 -23 -118.5t-73 -125.5t-130 -129t-194 -129q1 -57 1.5 -94.5t2.5 -43.5q2 -15 6.5 -25.5t14.5 -18t26.5 -12.5t42.5 -9l-3 -30q-26 3 -56.5 4t-62.5 1q-37 0 -73.5 -1.5t-67.5 -3.5l-3 27q24 6 37.5 11.5t21 13t11 19t6.5 28.5q1 7 2 33t1.5 64.5t0.5 87 v100.5v140t-1 130t-2 99.5t-3 49.5q-3 15 -6.5 25.5t-11.5 18t-23.5 13.5t-42.5 13l3 26q17 0 40 1.5t47 3.5t46 4.5t37 4.5l10 -8q-1 -5 -1.5 -29t-0.5 -69h10q48 58 100 82.5t115 24.5q39 0 74.5 -13t62.5 -36.5t43 -56.5t16 -73zM231 52q78 32 136.5 78t97.5 99.5 t58.5 110t19.5 108.5q0 76 -37 120.5t-110 44.5q-36 0 -68 -15.5t-56 -45.5t-38 -73t-14 -97v-152.5t2 -173.5z" />
<glyph unicode="&#x1fc;" horiz-adv-x="951" d="M915 166q-4 -37 -10 -67t-11 -52q-6 -26 -12 -45q-22 -2 -48.5 -3t-63.5 -1q-34 0 -63 0.5t-55 1.5t-50 1.5t-49 0.5q-26 0 -55 -1.5t-63 -3.5l-2 28q48 10 61.5 23.5t13.5 32.5q0 8 -2.5 23.5t-9 41.5t-17 64t-25.5 92q-37 -1 -71.5 -3t-64 -3.5t-51 -3t-32.5 -2.5 q-30 -67 -46.5 -106.5t-24.5 -62t-9.5 -33t-1.5 -21.5q0 -4 3 -10t11 -12t23.5 -11.5t40.5 -8.5l-5 -28q-29 3 -53.5 4t-42.5 2q-21 1 -39 1q-16 0 -33 -1q-14 -1 -30.5 -2t-30.5 -4l-2 28q22 4 41 15t37 37q9 11 27.5 45t41.5 80t48.5 99.5t48.5 103t42 90t28 61.5 q8 19 11.5 31t3.5 27q0 5 -7 11.5t-37 12.5l2 26q28 -2 53 -2.5t44 -1.5q22 -1 41 -1q54 0 108.5 0.5t100 0.5t76.5 0.5t38 0.5h27t27 -2l35 -143l-27 -4q-4 16 -13.5 33t-24 32t-35.5 25.5t-49 13.5q-20 2 -47.5 3t-57.5 1q-21 0 -41.5 -0.5t-37.5 -1t-29 -1.5t-17 -2 q15 -51 35.5 -123t42.5 -147q53 2 88.5 3.5t58.5 4t36 5t20 5.5q9 5 20.5 16.5t14.5 34.5h24q-2 -17 -2 -32v-29q0 -33 3.5 -63.5t12.5 -60.5l-25 -3q-9 29 -18 45t-26.5 24t-46.5 10t-79 2h-17t-24 -1q-14 -1 -29 -1q29 -101 50 -164t34 -76q14 -14 43.5 -17.5t66.5 -3.5 q28 0 48.5 3t37.5 15.5t32.5 38t33.5 70.5zM257 340q23 0 73.5 0.5t112.5 2.5q-10 35 -21 74q-10 33 -22 75.5t-26 87.5h-8q-14 -26 -33 -67.5t-36 -79.5q-20 -45 -40 -93zM580 858q20 0 38 -4q15 -3 29.5 -9t19.5 -17l-169 -123l-31 9z" />
<glyph unicode="&#x1fd;" horiz-adv-x="637" d="M607 259l-9 -19q-26 -4 -60 -5.5t-70 -2t-71.5 -1.5t-63.5 -5l1 -22q2 -21 5 -39.5t10 -35.5q17 -37 46 -57.5t65 -20.5q21 1 42 6q18 5 39 15.5t40 29.5l14 -25q-25 -33 -53.5 -51t-52.5 -26q-28 -10 -56 -11q-38 0 -77.5 20.5t-70.5 64.5h-8q-32 -40 -70.5 -62 t-76.5 -22q-15 0 -31.5 4.5t-30 15t-22 28t-8.5 42.5q0 61 52 101q31 23 70 38.5t81 22.5q2 0 5 1q5 2 13 3q0 14 -0.5 27.5t-2.5 24.5q-2 13 -3 24q-2 26 -24.5 44.5t-57.5 18.5q-12 0 -25.5 -3.5t-20.5 -12.5q-6 -7 -9 -16.5t-5.5 -17t-6 -13t-10.5 -5.5q-19 0 -35 13.5 t-16 32.5q0 9 20.5 20.5t48.5 21t58 16t49 6.5q28 0 55 -14.5t42 -37.5q2 -2 5 -11q33 32 68.5 47t68.5 15q28 0 50 -14t39 -34t28.5 -43.5t18.5 -41.5zM333 254q24 3 51.5 5.5t53 4.5t46 4t30.5 6q4 2 6 8q1 3 1 6q-5 43 -26 71.5t-53 28.5q-46 0 -75.5 -32t-32.5 -86 l-1 -16v0zM256 122q3 18 4 35t1 31q0 9 -0.5 16.5t-0.5 13.5q-67 -17 -105 -44.5t-38 -76.5q0 -22 12.5 -38.5t38.5 -16.5q20 0 35 7t26 18.5t18 25.5t9 29zM372 662q16 0 31 -4q13 -3 25 -10t20 -21l-127 -145l-25 7z" />
<glyph unicode="&#x1fe;" horiz-adv-x="788" d="M581 639q80 -44 125.5 -121.5t45.5 -176.5q0 -78 -28.5 -144.5t-78 -114.5t-116 -75.5t-141.5 -27.5q-87 0 -162 40q-17 -29 -35.5 -66.5t-33.5 -74.5h-61l-6 12q22 29 40 55.5t32 48.5q16 26 28 48q-69 48 -113.5 124t-44.5 170q0 76 27.5 139.5t76 110t116 72.5 t147.5 26q40 0 76.5 -7t68.5 -19q15 27 30 58.5t28 63.5h60l7 -13q-17 -23 -33.5 -46t-28.5 -41q-14 -21 -26 -41zM507 609q-28 16 -59.5 24.5t-65.5 8.5q-88 0 -151.5 -53.5t-84.5 -147.5q-9 -40 -9 -86q0 -76 24 -144.5t66 -111.5zM262 69q32 -23 67 -35t76 -12 q38 0 68.5 9.5t55.5 25.5q57 36 89.5 104.5t32.5 159.5q0 87 -28.5 154t-77.5 109zM441 862q15 0 28 -4q11 -3 22.5 -8.5t18.5 -16.5l-116 -122l-23 6z" />
<glyph unicode="&#x1ff;" horiz-adv-x="500" d="M387 386q35 -27 55 -70t20 -100q0 -48 -16 -89.5t-44.5 -71.5t-67 -47.5t-82.5 -17.5q-49 0 -91 21q-14 -23 -26.5 -47t-25.5 -52h-50l-5 8l73 110q-39 29 -63 74.5t-24 103.5q0 48 16.5 88t45.5 69t69 45t87 16q26 0 50 -5.5t45 -15.5q12 21 24 44t24 49h50l4 -9z M240 393q-26 -1 -47.5 -14t-37 -35.5t-24 -53.5t-8.5 -69q0 -41 9 -75.5t25 -60.5l172 274q-33 34 -89 34zM266 25q26 1 47 15t36 38.5t23.5 57.5t8.5 72q0 73 -25 120l-171 -272q34 -31 81 -31zM306 662q16 0 31 -4q13 -3 25 -10t20 -21l-127 -145l-25 7z" />
<glyph unicode="&#x21c;" horiz-adv-x="558" d="M159 208q69 64 116 112t73 90q27 43 27 83q0 48 -39 76t-100 28q-34 0 -58 -6t-41 -19t-28.5 -34t-19.5 -50l-31 6l34 194h28q0 -21 7 -29.5t14 -8.5q33 11 67.5 17.5t62.5 6.5q48 0 82 -12t56 -31.5t32.5 -43t10.5 -46.5q0 -21 -3 -41.5t-17 -47t-42 -61.5t-78 -85l1 -6 q46 -6 84.5 -23t66 -44t43 -63t15.5 -80q0 -32 -11 -63t-31 -58.5t-48 -50.5t-62 -38q-27 -12 -57.5 -17.5t-63.5 -5.5q-44 0 -84.5 12t-71.5 33.5t-50 51t-19 65.5q0 12 8 24.5t19 22.5t24 16.5t23 6.5q14 0 17 -14.5t3 -33.5q0 -140 157 -140q34 0 64.5 10.5t53 30.5 t36 49t13.5 67q0 34 -13.5 64t-37 51.5t-55.5 34t-69 12.5q-26 0 -47 -10t-38 -27z" />
<glyph unicode="&#x21d;" horiz-adv-x="342" d="M107 482q-12 -36 -12 -52q0 -14 12 -14q14 0 27 2.5t34 2.5q28 0 49 -9t35.5 -23.5t21.5 -33t7 -37.5q0 -38 -18.5 -77t-65.5 -88v-8q27 -2 51 -13.5t42 -31t28.5 -46t10.5 -59.5q0 -32 -9.5 -64.5t-27 -62t-43 -54t-56.5 -40.5q-21 -11 -46.5 -16.5t-52.5 -5.5 q-48 0 -75 14.5t-27 24.5q0 11 4 22.5t10 20.5t12.5 15t12.5 6q4 0 12 -8.5t22 -18.5t34 -18.5t47 -8.5q24 0 46.5 10.5t40 31t28 49.5t10.5 65q0 25 -9 47t-25.5 38.5t-41 26.5t-55.5 10q-6 0 -13 -1t-12 -4l-42 -34l-17 23l57 50q33 29 54.5 51t33.5 42q22 34 22 70 q0 35 -22 58.5t-67 23.5q-27 0 -50 -7t-41 -24l-20 9l63 154z" />
<glyph unicode="&#x224;" horiz-adv-x="674" d="M487 569l-2 11q-123 0 -195.5 -3t-112.5 -11q-41 -8 -57.5 -29.5t-27.5 -50.5l-26 6l45 170l9 3l53 -4h419l6 -20l-427 -543l2 -9q32 0 75 0.5t89.5 1t92.5 2t84 2.5q15 0 30.5 -7t27.5 -20t20 -32.5t8 -44.5q0 -30 -7 -61t-24 -61.5t-45.5 -59.5t-71.5 -56l-15 22 q32 22 50.5 44t28 43t12.5 40.5t3 36.5q0 42 -28.5 55t-82.5 13q-175 0 -351 -6l-7 26z" />
<glyph unicode="&#x225;" horiz-adv-x="385" d="M294 348l-2 5q-72 0 -113.5 -3t-65 -11t-35 -22.5t-24.5 -37.5l-22 7l48 141l61 -15q14 0 51 0.5t77 1.5q47 1 101 2l7 -29l-255 -315l2 -6q23 0 51 0.5t55 1.5t49 2.5t33 3.5q23 -4 37.5 -24t14.5 -50t-8 -62.5t-26 -64.5t-47 -62.5t-72 -57.5l-15 22q49 33 75 79t26 91 q0 26 -14.5 41.5t-47.5 15.5h-52q-38 0 -67.5 -1t-66.5 -3l-5 23z" />
<glyph unicode="&#x226;" horiz-adv-x="696" d="M236 -3q-28 3 -53 4t-44 2q-22 1 -41 1q-18 0 -36 -1q-15 -1 -31.5 -2t-30.5 -4l-4 29q23 7 38 14q9 4 17 9q14 9 28.5 30t26.5 48q5 12 16.5 43t33 91.5t54.5 156.5t81 239l109 8q36 -103 64.5 -183t51 -141t39 -105t28.5 -74q28 -70 40 -91q9 -10 20 -20 q10 -8 23 -15.5t30 -9.5l-4 -29q-28 3 -53 4t-44 2q-22 1 -41 1t-40 -1q-18 -1 -41 -2t-48 -4l-2 28q27 4 44 9.5t26.5 12t12.5 13.5t3 14q0 8 -3 20.5t-9.5 32.5t-17 49t-25.5 70q-23 2 -59.5 3t-74.5 1q-40 0 -73.5 -1t-50.5 -3q-15 -41 -25 -70.5t-15.5 -49.5t-8 -32.5 t-2.5 -20.5q0 -5 2.5 -12t12.5 -13.5t28.5 -12.5t49.5 -10zM222 304q14 -1 30.5 -1.5t31.5 -0.5h34h37q17 0 36 0.5t39 1.5v1l2 6l-102 265h-11q-20 -48 -37.5 -95t-31.5 -85q-17 -45 -31 -85zM341 831q22 0 37.5 -15.5t15.5 -36.5q0 -22 -15.5 -37t-37.5 -15 q-23 0 -38.5 15t-15.5 37q0 21 15.5 36.5t38.5 15.5z" />
<glyph unicode="&#x227;" horiz-adv-x="412" d="M254 213q0 1 -1 2t-5 1q-12 -10 -29 -19t-34.5 -18t-33 -18t-24.5 -21q-7 -9 -9 -17.5t-2 -17.5q0 -27 13 -45t41 -18q14 0 27 5.5t23.5 14.5t19 19.5t13.5 20.5q1 11 1.5 27t0.5 32v37q0 9 -1 15zM317 375q9 -14 11 -31t2 -37q0 -35 -1 -72t-1 -84q0 -31 1.5 -55.5 t4.5 -32.5q7 -20 26 -20q18 0 37 22l13 -23q-23 -28 -50 -39t-44 -11q-20 0 -37 18t-25 47h-5q-8 -9 -22.5 -21t-31.5 -22t-34.5 -17t-32.5 -7t-31 6.5t-29 19.5t-21.5 31.5t-8.5 42.5q0 17 6 37t30 38q12 9 32.5 17t43.5 16.5t47.5 18.5t45.5 24q10 8 10 18q0 15 -1 30.5 t-3 31.5q-3 26 -24 45.5t-56 19.5q-29 0 -42 -13q-7 -7 -11 -16.5t-7 -18.5t-6.5 -15t-11.5 -6q-20 0 -35 14t-15 28q0 9 21 21t50 22.5t59 17.5t48 7q28 0 56 -14.5t42 -37.5zM141 585q0 24 16 40.5t39 16.5q25 0 41.5 -16.5t16.5 -40.5q0 -23 -16.5 -39t-41.5 -16 q-23 0 -39 16t-16 39z" />
<glyph unicode="&#x228;" horiz-adv-x="644" d="M43 662q25 -2 58.5 -3t71.5 -1q19 0 57 0.5t79.5 1.5t77 1.5t50.5 0.5q58 0 122 -3l17 -156l-27 -3q-4 15 -10.5 34t-17.5 36t-26.5 29.5t-37.5 14.5q-20 2 -48.5 2.5t-57.5 0.5q-21 0 -41.5 -0.5t-37.5 -1t-29 -1t-16 -1.5q-1 -7 -2.5 -26.5t-2.5 -47t-1.5 -62 t-0.5 -70.5v-44h13.5t33.5 0.5t44.5 1t46.5 1.5t39 2.5t22 3.5q9 4 16 7.5t13 10t11.5 18t12.5 30.5l24 -3q-8 -45 -9 -68.5t-1 -24.5t1 -27.5t7 -73.5l-26 -3q-3 26 -12 41.5t-19 24.5q-11 11 -25 15q-9 2 -28 3.5t-42.5 2.5t-47.5 1h-43h-31v-77.5t0.5 -71.5t2 -59 t3.5 -41q1 -6 5 -13t9 -9q9 -3 25 -5t35.5 -3.5t41 -2t42.5 -0.5q32 0 58.5 2t35.5 6q31 14 58 45.5t42 73.5l30 -5v1q-9 -47 -16.5 -78t-13.5 -51q-7 -23 -12 -36q-25 -2 -52.5 -3t-62.5 -1q-20 0 -55 0.5t-74 1.5t-77.5 1.5t-66.5 0.5q-12 0 -30 -0.5t-37 -1.5t-35.5 -1.5 t-27.5 -1.5q0 6 -1 11t-1.5 9.5t-0.5 6.5q20 2 34.5 10t23.5 16q11 10 18 21q3 5 4.5 27.5t2.5 57t1.5 78t0.5 88.5q0 48 -0.5 94t-1 83.5t-1.5 62.5t-3 30q0 1 -3.5 6.5t-12.5 12.5t-25 14t-43 11q0 7 1.5 17t1.5 9zM385 12l-21 -46l3 -5q29 -1 45 -9.5t24 -19.5t10 -21.5 t2 -13.5q0 -21 -10 -38t-25.5 -29.5t-35.5 -19.5t-41 -7q-14 0 -28 3q-12 2 -25.5 7t-24.5 15l9 21q16 -9 35.5 -12.5t31.5 -3.5q9 0 19 2.5t18.5 7.5t14 13t5.5 19q0 34 -52 34q-12 0 -27 -3l-5 7l38 72l-10 27h50z" />
</font>
</defs>
</svg>
